<mxfile host="app.diagrams.net" agent="Mozilla/5.0 (Windows NT 10.0; Win64; x64) AppleWebKit/537.36 (KHTML, like Gecko) Chrome/137.0.0.0 Safari/537.36" version="27.1.6">
  <diagram name="Page-1" id="RcTMPw4JLW2sjZRvjjpT">
    <mxGraphModel dx="815" dy="1549" grid="1" gridSize="10" guides="1" tooltips="1" connect="1" arrows="1" fold="1" page="1" pageScale="1" pageWidth="850" pageHeight="1100" background="none" math="0" shadow="0">
      <root>
        <mxCell id="0" />
        <mxCell id="1" parent="0" />
        <mxCell id="Qdo3hB_uDaMukJDxGay6-1" value="" style="group;fontStyle=0;fontColor=#FFFFFF;labelPosition=center;verticalLabelPosition=top;align=left;verticalAlign=bottom;opacity=0;" parent="1" vertex="1" connectable="0">
          <mxGeometry x="150" y="-40" width="1410.05" height="1650" as="geometry" />
        </mxCell>
        <mxCell id="Qdo3hB_uDaMukJDxGay6-2" value="" style="shape=image;verticalLabelPosition=bottom;verticalAlign=top;imageAspect=0;image=data:image/png,iVBORw0KGgoAAAANSUhEUgAAAgAAAAFVCAYAAACZ01cjAAAABmJLR0QA/wD/AP+gvaeTAAAaBklEQVR4nO3deZQdZZ3G8W9CSNhCWBLCEnYQZN8XQTYJyiI7jGcg0KMox+UA47ig4xxg9CAoyjbqgCIYGDdUGMERERBBZBEEFMOmsgiDsjvskNDzx5uWTtvp7ntvVf3qrfp+zqkjeMi9z73pvvXc9633LZAkSZIkSZIkSZIkSZIkSZIkSZIkSZIkSZIkSZIkSZIkSZIkSZIkSZIkSZIkSZIkSZIkSZIkSZIkSZIkSZIkSZIkSZIkSZIkSZIkSZIkSZIkSZIkSZIkSZIkSZIkSZIkSZIkSZIkSZIkSZIkSZIkSZIkSZIkSRWYEB1AktQc46IDaAGrAjsDmwIbAusDywBLA4sArwN/nX/MAe4CbgWuBp4OyCtJkrq0AXAa8ADQ3+UxF7gR+BCpMEiSpJraE7iO7k/6CzteBM4BZlT3UiRJ0mh2BG6h+BP/cEXgFGDxal6WJEkaznLAeaR5/LJP/oOPu4GtKnh9kiRpiG2Bh6j2xD/4eBU4uvRXKUmS/uYo4BXiTv6Djy8C48t9uZIk6RTiT/pDj29gCZAkqTQfJf5kv7Dj9BJftyRJrTWL6i/26/Q4rrRXL0lSC21CWoIXfYIf7XiVtCRRkiT1aDJwP/En97EeDwFLlfJOSJJqbZHoAA1zMrBPdIgOTJn/v9eEppAkKWPrk4bVo7/Vd3q8AqxVwvshSVIr/Ij4k3m3xwXFvx2SJDXfZsSfxHs55gLrFv6uSJJqa0J0gIb4SHSAHi0CvBf4WHQQSdlbBji0oMe6iLSqSqqlZanPVr+9HH8BFi34vZHUPutT3OfStIqzt4pbwvbuQGBidIgCrADsHh1CUvb6owNobCwAvTskOkCB9ooOICl7FoBMWAB6MxF4a3SIAu0ZHUCSVA0LQG+2BpaIDlGgtYHp0SEkZc0RgExYAHqzZXSAEmwSHUBS1iwAmbAA9KaJa+ctAJJ6YQHIhAWgN+tEByjBjOgAkqTyWQB608Q1ql4DIKkXjgBkwgLQmyWjA5Rg+egAkrJmAciEBaA3TVoBMMCfCUlqAT/se/NydIAS2N4l9cLPkExYAHrzfHSAEqxO2hZYkrphAciEBaA3j0cHKMGbgDuAXaODSMqSBSATFoDe3B0doCQrAVcDZ9KMGx1Jqo4FIBMWgN7MiQ5QonHAMcAVwMrBWSRJBbMA9Obn0QEqsCup6DTproeSyuMIgFrjUdIPfNOPecDJwIRi3jZJDTWD4j53mrjZWm04AtC7b0cHqMh44BPATTRzC2RJxXAEQK2xBfHfzqs+ngT2KeLNk9Q4K+MIgFrk58SflCOO2TRzN0RJ3VsJC4Ba5ADiT8ZRx83AGj2/g5KawgKg1rmO+JNx1PF/wGG9v4WSGmBFLABqmW2A14g/GUceZwOTen0jJWVtOhYAtdDHiD8JRx93Axv3+kZKytYKWADUQuOBK4k/CUcfLwLH9vheSsrTNCwAaqkZwCPEn4TrcJwDLN7b2ykpMxYAtdo6wF+IPwHX4bgH2LS3t1NSRqZiAVDL7QQ8T/wJuA7Hc8ARvb2dkjJhAZCAjYCHiD8B1+X4AbBMT++opLpbHguABMBqpP3zo0++c4FPAvcF55hDKkaSmmk5LADS3ywKXEDsyf/d87NMBv4rMEs/aZXAUV2/m5LqbFksANIC+og52f6a4dflHwQ8G5Rp4LiU9G1BUnMsgwVAWkAf1Z5cHwU+zMjL8DYCfldxrqHHfcDmY30TJdWeBUAaoo/yT6avk+5MeCRj35J3SeD8CrKNdLwEfHCMeSXV2xQsANIC+ijv5HkF8CF6uyvfLNJyvcgi8D1cJSDlzgIgDdFHsSfLs4G9Sd/gi7I+cGfBOTs9/ghsXeBrklStpbEASAvoo9gT5aol5ZwAnAjMKzhvJ8fc+RnGl/QaJZVnMhYAaQF95FEABrwTeLLgzJ0eVwMrlfw6JRVrKSwAWfAblhbmMmBb4LbADLuRNlHaITCDJDWSBUAj+QOwHXASaYVBhNWA64EzSRsqSaq3/ugAUt30kdcUwFBvAx4rKHu3x03AmmW/UEk9WQKnALLgCIDG6mrSbX2vDMywLXA7cEhgBkkjcwQgExYAdeJxYC/SlMC8oAxTgO8C5zD2zY4kVccCIA3RR95TAEPtQtpuOHJK4DZg3ZJfp6TOLIZTAFlwBEDduhbYDPhxYIYtSCXg8MAMkhbkCEAmLADqxROk3QiPA14LyjAZuBCYTVp/LCmWBUAaoo9mTQEMtQ1pG9/IKYF7SKMSkuJMxCmALDgCoKLcQtrD//LADOuRlgoeC4wLzCG1mSMAmbAAqEhPAfuSpgReDcowCTgDuARYLiiD1GYWgExYAFS0ftKufTuQdhKMsh9wB7BjYAapjSwAmbAAqCy3kq7S/05ghlWBn5HuLLhIYA5JUov10eyLAEdyBPAisRcIXgOsXPYLlcR4vAgwC44AqAqzSVMC9wdm2JU0JbBXYAapDZwCyIQFQFW5HdgS+GZghmmkVQpnkpYqSZJUuj7aOwUw1BHA88ROCdwCrF32C5VayimADDgCoAizSXsG/DYww9bAr4F3BWaQpDAWAEW5m3R733MDMywNfItUSJYIzCE1jdcBSIP04RTAwhwBPEfslMAcYOOyX6jUEvNwCqD2HAFQHcwGtgLuDMzwZuBm0jbCktR4FgDVxb3AdsBZgRkWJ20j/D1gmcAcUu6cApAG6cMpgLE6EHiG2CmBB4HtS36dUlO9hlMAtecIgOroB6Tb+t4UmGF14DrSNsL+nkiSutaHIwCdmkTatOd1YkcDrgRWLPm1Sk3yKo4A1J7fbFRnr5AuyjsAeDowx0zSNsJ7BGaQctIfHUCjswAoB/9NmhK4ITDDdOAK0ojEooE5pBxYADJgAVAu/gTsApxEmhKIMA44BrgKmBGUQZKUmT68BqAouwN/Jva6gCeBd5b9QqVMvYTXANSeIwDK0VWkjYOuD8ywPGlq4kzSxYqS3uAUQAYsAMrVI8CupCmBeUEZBqYEfgmsG5RBqiMLQAYsAMrZPNI6/ZnAY4E5tgBuAw4PzCBJHbEAqAl+Rlol8JPADJOBC0n3NVgqMIdUB44AZMACoKZ4HNgTOI60DWmUWcCtpEIitZUFIAMWADVJP+mivN2BRwNzrAfciHcWlFRjFgA10XWkb+D/E5hhMdKdBS8BlgvMIUVwBCADFgA11ZPAPqQpgVcDc+wP3A7sEJhBqpoFIAMWADXZwJTAjsAfA3OsBlyLdxZUe1gAMuCHkdrgV6SlehcHZpgAnAD8FFgpMIckARYAtcdfgUOBo0l3GYyyG3AnacWC1FSOAGTAAqC2ORd4C/D7wAzTgB/hnQXVXBaADFgA1Ea/Jk0JfCsww8A2wjcAawXmkNRSFgC11XPAYcCHiV0lsDVwE7BXYAapaI4AZMACoDbrB04HNgfuCswxMCUwG1giMIdUFAtABiwAEswBtgcuCs4xi7RiYePgHFKvLAAZsABIyfOkE/CRwAuBOTYAbsZthCWVzAIgLWg2sBXwm8AMi5O2Ef4esExgDqlbjgBkwAIg/b17gG2Bs4JzHATcQZqekHJiAciABUAa3sukYfiDgWcDc6xOurnRifj7KqlAfqBII/s+aTTg9sAMA9sI/wRYMTCHNFaOAGTAAiCN7j7SMHz0lMDupG2E3x6cQxqNBSADFgBpbF4hTQkcADwTmGMF4Me4jbDqzQKQAQuA1JlLgc2AGwMzDGwj/AtgzcAckjJmAZA69zCwE3AS8Hpgjm1I1yYcGphBGo4jABmwAEjdmUu6Mn9/4KnAHFOA7+A2wqoXC0AGLABSby4jTQn8IjjHLOAWYKPgHBJYALJgAZB69wiwK/FTAhuSSoDbCEtSjfSRWnFRx6qVptdY7QY8RrF/190cF+M2worzMMX8HE+rOnibOAIgFesaYFPgyuAcB5MuENwuOIfaySmADFgApOI9DrwDOB6YF5hjDdxGWJLC9eEUQBvtAjxK/JTAlbiNsKrzIE4B1J7fCqRyXUtaJfDj4BwzSXcW3CM4h9rBKYAMWACk8j0B7A0cB7wWmGM6biOsalgAMmABkKrRTzrx7gg8EJhjPGkb4etwG2Gp1SwAUrVuAbYGLg/OsR1plcAhwTnUTI4AZMACIFXvKWA/4FOkLYWjTAG+DZyCUwKDebvl3lkApEH6cBWA/t5WwO+JXyVwG/Cmkl9rDmaR3o89o4NkrqifaVcBqBH6sABoeEuTvolHl4DnSCfAtlqP9B70k7Z3XjY2TtbuxwIg/U0fFgCN7AjgReKLwGxgqZJfa91MBG5lwffhvNBEebsPC0Dtjevxz2+CQ2VjtSXFXnC1GvCnAh9P9bAd8C3SLn6R7gLeBfwuOEdVPkvauXGwftK+CVdVHyd791LMlNKdxF4nk7MXgZ3KfIJ3E/9tpa2HIwDNNRm4iPifsZdJdxbs9YtC3e1LuovjcO/BozgV0I17if/5bfvx3Gh/Sa4CkOrnOeBw4EjghcAck4AzgEuB5QNzlGll4GssvOSsDHyxujiN0R8dQKOzAEj1NZu0Z8Bvg3PsS9pGuNThxACLAN9k9HnmPmD/0tM0iwUgAxYAqd7uBrYFzgrOMYN0q+MTSSfOJjge2HmM/+2XgeVKzNI0FoAW8BqAuMNrANpnFm8sU4s8rgVWKfellm4H0n0ZOnnds0OS5mkO8T+nbT+8BkBqkAtJGwfdEZxj5/kZ9gnO0a3lSfsuTOjwz80CDiw+TiP1RwfQ6CwAUl7uBbYnfkpgKvBD0g2OJgVn6dS5pCmNbnwJpwLGwgKQAQuAlJ+B5XkHAs8G5hhHurPgL4F1A3N04v309i1+ReLLl1QIC4CUr0uAzYCbgnNsQbqXwOHBOUazKcUs6TsMOKiAx2kyRwAyYAGQ8vYQaXneqcR+6E4mXaNQ122ElyAt+VusoMf7CrBCQY/VRBaADFgApPy9RlrStj/wdHCWWaQ99TcLzjHUGcAGBT7eNNL1DxqeBSADFgCpOX5IOvHeEJxjPdK0RF22Ef5H4L0lPO67gINLeFypEhYAqVn+BOwCnETa3z7KwDbClxB71fyapE18yvIVYHqJj58rRwAyYAGQmmcuace+twN/jo3CfqQ9A94a8NwTge8AU0p8jqnA2SU+fq4sABmwAEjNdRVp46DrgnOsSsw2wv9OupdC2Q4BDq3geaRCWQCkZnsU2I00JTAvMMcE4ATgp6Q77JVtJvDRCp5nwJdwKmAwRwAyYAGQmm8e6dv3TOCx2CjsCtwJ7F3ic6wEXES1n29TgXMqfL66swBkwAIgtcfPSJvhXBGcYypwGWkZ3cSCH3s8cAExa/T3I60MkAUgCxYAqV2eAPYCjiPtHxBlYBvhG4B1CnzcfwH2KPDxOvUfpO2Cpdrr9G5YQz0AXFxEkIZblLRJi1QH/aRv33NIu/dFzl1vBdwMvAe4tMfH2hz4dM+JerM86b39h+Ac0YocATgbuL7Ax2uLudEBlEyh+Hs9r1rpK1BTTQUuJ/7e5f2kbYSX7PJ1TAH+UIPXMHAc1uXraIpbKO69rPs9JqQRWQBUZ+NIu/a9QvyJ827SdQqd+m4Nsg8+ngFW6eJ1NIUFQJrPAqAcbE09vkW/RCokY/WeGmQe7risg9fQNDdjAZAAC4DyMYW0e170ybOfsW0j/GbghRpkXdgxa5T8TXUTFgAJsAAoP+8DXib+BPoQsONCMi4O/LYGGUc6ngVmjPZmN9CNWABqz2WAkoZzLvAW4PfBOVYj7V9wIn//efV5YKOqA3VoCvCf0SEkxXEEQLmaDHyT+G/S/cDVvLGN8AE1yNPJ0dfJm94Av8QRAAmwAChv40gbB9VhlcAjpDX2j9cgSyfHk7Rrg6AbsADUnlMAkkbTD5xB2mjnruAsqwDfBqYF5+jU8qR9DsZFB6lIf3QAjc4CIGms5gDbAF+NDpKpmcA/RYeQBlgAJHXiJdIKgSNJy+/UmdNJFzY2nSMAGbAAVMNfBjXNbNI+/r+JDpKZpYGv0/ypAD/zMmABkNSte4BtgbOig2TmbcBR0SEkC4CkXrxM2rb3YNKmNxqb02j2VIAjABmwAEgqwvdJFwjeHh0kE0sD59PcqQALQAYsAJKKcj+wPWlKwBPA6HYjXVDZRP79Z8ACIKlIr5CmBA4k3RJXI/sCsHZ0CLWTBUBSGS4FNiNtCauFW5K0r0LTpgIcAciABUBSWR4GdgZOAl4PzlJnuwLvjw5RMAtABiwAkso0l3Qnv/2Ap2Kj1NrngHWiQ6hdLACSqnA5aUrg+uggNbUkcAHN+Ux2BCADTflhk1R/j5CufHdKYHg7AB+IDlEQC0AGLADV8JdBSgamBGYCj8VGqaVTgXWjQxTAz7wMWAAkRbiGNCVwZXSQmlmCZk0FqMb8IZMU5XFgb9K3Xr3hLcDR0SF65AhABiwAkiLNBf4SHaKGTiPvqQALQAYsAJIibQx8NjpEDS0BfANYJDpIlywAGbAASIoyEZgNTIoOUlPbA8dEh1BzWQAkRTmBdCGgFu5kYIPoEF1wBCADFgBJEXYCjo8OkYHFgPPIbyrAApABC4Ckqk0GzsfPn7HaDvjn6BBqHn8BJVXtNGCt6BCZ+QywYXSIDjgCkAELgKQq7QO8LzpEhiaR11SABSADFgBJVZlOOompO9sCH4kOMUYWgAxYAKrhL4ME5wArRIfI3EnARtEh1AwWAElVOALYLzpEA0wibRC0aHSQUfilJwMWAEllWx04KzpEg2xB/acCLAAZsABIKtMiwIXAlOggDXMCaRtlqWsWAEllOhZ4a3SIBqr7VIAjABmwAEgqy8akrWxVjs2Bj0eHWAgLQAYsAJLK4I1+qvFvwCbRIYZhAciABUBSGbzRTzUmUu+pANWYBUBS0bzRT7U2Az4RHWIIRwAyYAGQVKTJwAX42VK1fwO2jA4xiAUgA/6SSirSacCa0SFaaAJpm+WJ0UGUDwuApKJ4o59YmwKfjA4xnyMAGbAAVMNfBjXddODr0SHEvwJbRYfAz7wsWAAkFeEcYFp0CDGBtCpgseAcFoAMWAAk9cob/dTLBqSRAGlEFgBJvfBGP/V0PLB14PM7ApABC4Ckbi0CXIQ3+qmj6KkAC0AGLACSunUssGN0CC3Um0n7A0SwAGTAAiCpG5vgjX5y8DFgm+gQqicLgKRODew/741+6i9qKsARgAxYACR16kS80U9O1if9nVXJApABC4CkTuxEfe9Br4X7KF6voSEsAJLGyhv95Gs88DVg8YqezxGADPiLLGms1gfuA16KDqKurAd8qqLnsgBkwAJQDX8Z1AS/At5BGgnYCjgJuA14PTKUOnI81UwF+JmXAQuApE7NI534TyQVgRWBQ4Fzgf+Ni6UxqHoqQDVmAZDUqyeAi4GjgVVJpeB44Crg1cBcGt56wGdKfg5HADJgAZBUpNdJowOnAjOB5YB9SaMDDwXm0oKOI63oKIsFIAMWAEllegG4jDQ6sAaw9vx/vhx4OS5W640HzgeWig6iOBYASVX6I2k04J2k0YGZpNGC2yJDtdRawKdLemxHADIwITqApNZ6iXSdwFXz/30NYA9gd1IxWCYmVqscA1wK/Lzgx7UAZMARAEl18SBpdOBQYCouNaxCWVMBFoAMWAAk1ZFLDauzJt7ZsZUsAJJyMHip4SrARrjUsEgfBHYp8PEcAciABUBSjn7HgksNZwJn4VLDbg1MBUwu6PEsABmwAFTDXwapPC+QRgKOZcGlhhcDz8fFys4awGcLeiw/8zJgAZDUNANLDQ8FVsClhp34AGklhlrAZYCSmmzoUsMVSSe4fXCp4XDGkcrTxsBzPTyOIwAZcARAUpv8GZjNgksNjwduwKWGA1YHPtfjY1gAMmABkNRWA0sNTyXdInc6LjUccDTw9ugQKpcFQJKSJ3Gp4YBxwHl0P0XiCEAGLACSNLy2LzVche6nAiwAGbAASNLo2rrU8Chgzy7+nAUgAxYASercSEsNm3TyGwd8FVg2OoiKZwGQpN4MLDU8nrSqYGXgSNLowLOBuYqyCvD5Dv9Mk0pQY1kAJKlYTVxq+B46mwqwAGTAAiBJ5RlpqeGjgbm68TWcCmgUC0A1bMOSYMGlhjPIa6nhysAXx/jf+pknzbcY6ReiyGPVSl+BpLItCewOnAk8SPGfGUUd+4/htZxe4PMdPobnUxccAZCkehhpqWEv+/IX7cukfRFG4ghABiwAklRPg5caTqc+Sw1XIn3DlzQGTgFIKtKKwBHAd4FniJkKOGCEfF8o8HmcAiiJIwCSlJ86LDX8EgufCnAKIAMWAEnKW9RSw5VI90aQNAKnACRF2RD4OPBT4BWK/yw6aJjn/HyBj+8UgLJmAZBUB4OXGj5AMZ9Fj5PuhzDY5wp6bAtAiZwCkKT2GLzUcE2KWWo4DThjyP/nNQDSfI4ASKq7xUijA6cAt5IuJuzkM+ngQY91aod/1hEANdYkLACS8jJ4qeHTjP6Z9ARvTAWcMob/3gIQzCkASdJwBi81nMboSw2nAmfP/2enAKT5HAGQ1CRTgUOAc4BHWPCz6RDgZIr7rHMEQFmzAEhqssFLDR8FzsMCIAEWAEntMZU0dWABqDmvAZAkFelJ4OHoEBqdBUCSpBayAEiSiuYqgAxYACRJRbMAZMACIEkqmgUgAxYASZJayAIgSSqaIwAZmBAdoCXmkrbQLNKzBT+eJKlFxkUHkCQ1zuKkuwsW4QXg1YIeS5IkSZIkSZIkSZIkSZIkSZIkSZIkSZIkSZIkSZIkSZIkSZIkSZIkSZIkSZIkSZIkSZIkSZIkSZIkSZIkSZIkSZIkSZIkSZIkSZIkSZIkSZIkSZIkSZIkSZIkSZIkSZIkSZIkSZIkSZIkSZIkSZIkSZIkSZIkSZIkSZIkSZIkSZIkSZIkSZIkSZIkSZIkSZIkSZKkzv0/5hxqzKl1xLwAAAAASUVORK5CYII=;" parent="Qdo3hB_uDaMukJDxGay6-1" vertex="1">
          <mxGeometry x="754.0941825539496" y="151.75925925925927" width="61.27015233250841" height="35.64814814814815" as="geometry" />
        </mxCell>
        <mxCell id="Qdo3hB_uDaMukJDxGay6-3" value="Pressure Releif &#xa;Valve" style="shape=image;verticalLabelPosition=bottom;verticalAlign=top;imageAspect=0;image=data:image/png,iVBORw0KGgoAAAANSUhEUgAAAMgAAADICAYAAACtWK6eAAAABHNCSVQICAgIfAhkiAAAAAFzUkdCAK7OHOkAAAAEZ0FNQQAAsY8L/GEFAAAACXBIWXMAAAsTAAALEwEAmpwYAAAMa0lEQVR4Xu3dedAcRRnH8W8uEhJIkIQjEYmgpCKnKKHQQgOSAuRQSDygOIoSREQES5AiohBERIFSEAEFRFBRBBQMICAiyH0UIoFwCkLkzIEYCSSQZPzDHnx56pnemd2Z3Z3d36fqKatme3rW0L93d2d6ekBEREREREREREREREREREREREREREREREREmjHUbhAR2BC4CVgBzAcOtw1E+tUQ4BEgMfVp21CkH01xwpEAV9iG0hmD7QZpqzF2Q7C63SCdoYCIRCggIhEKSL0MAfYAzgBmAmvbBiK9ZJrzAz0B/mTarQEcBTxt2r0ArG/aivSMRgGZBJwFvOq0Sesc06dIz8gKyGPANcBK5zVbN9hOpTz6DdKdJgG7AIPsC4677QaRXpH1CZK37gZG205FesGHw9coO+jz1F3AXuGslkjPGAbsA9zjDPpG9SZwCbCN7VSk7sYB3wCecwZ+o1oEnAysZzsVqbtNgfOB152B36jmAgcDq9pORepsELA7cKMz6PPWrbZTkV6wNfCoM+CLlr2SLlJ7q4U7Au1gj9ViZ1uegIzUNaz20D9yeaYCa9mNGW4BZhS8czA9A3YXsAR4OUxYFKmFHZxPgoG1DLgI2HLAPlkXCgd+gqwVzoA977RLgP0GtBXpWsOAh50B/BIwC1jH7tAgIJsDP81xBuxq26lIt5oA/AqYB9wGHAAMt40GyArIMmdbVv3WdirSK7ICUqR2tp1KefQjvbPWsBsK+AfwWeA6+4JI3e0AzA6LxdlPhEZ1c7jtVn/cpKeMAA4E5jiDvlEtBX4GbGE7Fam78cC3gQXOwG9ULwLHa3EG6UVbAb8E3nAGfqN6AdgfWMV2KlJ3M4DbnUFfpBpNNRGppZ84g72ZUkCk52ziDPRYPRruFbHbGwVkO+BbwJcia/uKdJ3pzkD36nrg4+G+kawLhTYgI4CDnDNgz4Sr9yJdb8PIdY3Xwtevjc0+jQIyATipwRmwM02fIl3rWDN4/wkcA6xpGwZZAZkb5nTlOQNmP21EutoWwKHAbjmeO5gVkCJ1iu1UpFe0GpC5wFjbqUgv2Bi41Bn0eeoR4JDw412kZwwCdg0LTttB36hWAteG6e151uwVqY1RwGFh1XY78BvVkvCIg8m2U5G6mwicBvzLGfiNah5wNPAO26lI3X0k3Aq73Bn4eerOHGfARGpnM+BeZ8AXLV3bkJ4zsonFqZc62xSQLqLbNssztcC8qDnh7sIZ9gXpLgpIeVbYDcbKcB/6x8LV9gvC8j4ifWE48JTzdWkxcDrwHrtD5Eq6vmJJT9oQ+EMIxUPAVxo8Q1ABEYlQQLqcfoOIRCggIhEKiEiEAiISoYCIRCgg0qoJYfmil4Fnw9OwdL+KlKLOp3lHhEUqXnXe/9dsY5Fm1DUgMzJmDaT1kN2hrvQVS4rYHLgJuBzYwL44wDi7oa4UEMljHPBj4K9h6dO+oYBIzLAwn+wJ4AvAENug1ykgkmXncN/KD1p8lmKtKSBiTQKuCUsM9f1KKgqIpMYA3w9noHaxLzoWA9+1G0XK1A2neQcDBwPznffh1QrgvPDcxHWd15PwbEWRlnU6IFOB+53jZ9UtwJYD9ldApFKdCshE4DLnuFn1DPAZ24kCIlVrd0BGhUdSv+4c06slwHHAqrajQAGRSrUrIIOAfcNkQnusrLoYWM92ZCggUql2BGQKcIdzjKy6B/iQ7SSDAiKVqjIg44GLwnpctn+vXgAOKDhVXQGRSlURkOHATOA/Tr9eLQVOBla3HeWggEilyg7IdOBJp7+suiKs5dUsBUQqVVZANgNudPrJqjlhCdRWKSBSqVYDMjY8fSrvc0gWhifwljUrVwGRSjUbkKHAEeE+cLuvV28CZ1TwtCoFRCrVTEB2Ah529smq64D32U5KooBIpYoEZCPgaqdtVj0O7GY7KZkCIpXKE5Ax4UGgbzjtvPo3cBSwyoA+qqKASKViARkMfB54yXndq4HT0NtFAZFKZQXk8bBAgt2eVXYaersoIFKprIDkraxp6O3S8wEpMu9GyjcNuMFuzOE14HvAqWHqeqesG+ZwWfMzHjnXLVZ0+N9NcmrmEyTPNPR2yfoEqUM90m9rfNXR9s5/uKwqMg29XeockCSsK5z30d3SAb93/qPZamYaervUPSBJWBAvk5b96ZxpwCfsRsdq4d6OdlzX6EfL7QbpvCFh/Sn71yxWTwJ72o46rO6fIAsbLbTdjR/b/eAw4Ey7Mac/h/VyH7QvdEDWWawknGnrVsuB+4CvAg/YF6Wz1gQWOX/NitRy4Oww3b2Tsj5BeuY6iLTfj5wB1Wy9DBwepr93ggIipdqkwM1NRWousKM9WBsoIFKqG5zBlIQruweG/7WvFamrwrT4dlFApDSfdAZSWueHNuc5rxWtZWEKymhz/CooIFKKVYC/OwMpCfdvpFPU1wZecdok4XEDFxf4lHkJOKjia10KiJTiaGcQpXWUaXuk0yatY4EPArc5r2XVfcC25hhlUUCkZeuEv/52ECXhvg97hXwY8JjTNjFzh/YC5jltsuo3wPrmWK1SQKRlFzgDKK3dbeNgV6dtWr8Y0G5VYFa4KGfbefUacAIwckAfrVBApCVbRdbGvc42Nq519klCf9uYtu8CLnHaZtU8YG/TRzMUEGnJ7c7gScI6VY2W4pkc2tl9E+DujGlC24bfHLZ9Vt0WftM0SwGRpu3tDJy0fmgbZzjd2Tet/W3jYHC4pvKis49XK8LXwHVsRzkoINKUkZEf0AsLrHC4BrDA6SMBngtT4bOMBk4J10Xsvl4tDmfb7EmDGAVEmnKCM2jSOtQ2buAQp4+0vmMbO94LzHb2zaonwkXNPBQQKWz9yFmlOU0sHD0Y+JvTVxKe7bGB3SHDjmHOlu0jq/4Y5o7FKCBSWOxsUrOPHNjO6Sut39nGEUOBLxdc9PrMyFdCBUQK2dYZLGldYRsXdLnTZ1pFgzcWOKvAzOJF4SYv++mngEhugyOnWJe2+CQnwleprMc3N/PVDWDTsMyp7S+rHgR2GLC/AiK5HeQMlLROto2bdJLTd1pftI0L2KPgo9uuDAvDKSCSy+jIItPPNzgdW8SocHrXHiMJp4OzfivkMRw4psDDP5cB5zrbEwVErFOdQZLWAbZxi/ZzjpHWGbZxE8YDF0amyOQpBUTeslHkYtw9GVNCWjEIuNM5VpJzCkteU4A7nGPkKQVE3nKVM0DSqmqp0K0jf+Gvt41btA/wrHOcWCkgAuF5gXZwpHWxbVyynzvHTCtrGn2zRgEnRs6i2VJAhKGRh2m+CrzT7lCyCZEf1N6NWGWYCFzqHM+Wt5ic9JnDnYGR1jdt44p83Tl2WvZW3jJ9FLjfOWZaWq2wz42NTNd4Ghhhd6jIcOAp5z0kZjGIKqTPUJzvHPsQ21j6y9nOoEir3Y9Em+68h7TS5YSqNCZcCH00fKocbBtIf9ksMofpL7Zxm9zovJck3Az1AdtYpEqxwfh+27hNYqG91TYWqcqezgBM61zbuM3Ocd5TWnvZxiJlGx6Z0PdKxT+I8xgXOXEwLywRJFKZmc7AS+tI27hDjnDeW1rH28YiZRkfuSj3WFgNsRvELl4uCetniZTuQmfApbWrbdxhOzrvMa1f28YirZoSmRh4rW3cJWITKKtayFr6UKOp5ZPtDl0iNgX/voofiSB9ZF9ngKV1um3cZU5z3nNan7ONRYoaFbkPYkFY9bCbxW4DfhFY3e4gUsSJzsBKq5UFEtoptpDEKbaxSF4TIzcHPdDkEjudEFuKaFlYllSksMucAZXW9rZxl4stZjfbNpa3K3tBgV4wFbjZbgyWAFfbjTWwS+Q3x05hHV6RhmILRfdqza3RV0bpsNhV6F6u3ew/hPyPLhi93bvthj7Rr/+/G1JA3i5dKK3f3G43iGSZGe4OtF9DerFWAsfZfwD5P53F8m0Qnv461L5Qsk8BM+zG8CyRIg/GacabwL1hVRSRrjTL+auehO3SBfQbRCRCARGJUEBEIhQQkQgFRCRCARGJUEBEIhQQkQgFRCRCARGJUEBEIhQQkQgFRCRCARGJUEBEIhQQkQgFRCRCARGJUEBEIhQQkQgFRCRCARGJUEBEIhQQkQgFRCRCARGJUEBEIhQQkQgFRCRCARGJUEBEIhQQkQgFRCRCARGJUEBEIhQQkQgFRCRCAemsxG4IsrZLmykgnbXAbggW2Q0i/WgcMN88I30hsLZtKNKvJgNXAk8Bs4GNbQMRERERERHpD/8FMu8Lc9sKz5EAAAAASUVORK5CYII=;fontColor=#FFFFFF;" parent="Qdo3hB_uDaMukJDxGay6-1" vertex="1">
          <mxGeometry x="876.6109217757617" y="325.925925925926" width="70.69632961443277" height="61.111111111111114" as="geometry" />
        </mxCell>
        <mxCell id="Qdo3hB_uDaMukJDxGay6-4" style="edgeStyle=orthogonalEdgeStyle;rounded=1;orthogonalLoop=1;jettySize=auto;html=1;entryX=1;entryY=0.5;entryDx=0;entryDy=0;endArrow=none;startFill=0;fillColor=#d80073;strokeColor=light-dark(#A50040, #f5005e);strokeWidth=5;curved=0;" parent="Qdo3hB_uDaMukJDxGay6-1" target="Qdo3hB_uDaMukJDxGay6-11" edge="1">
          <mxGeometry relative="1" as="geometry">
            <mxPoint x="1125.1806029026488" y="575.7074074074075" as="sourcePoint" />
          </mxGeometry>
        </mxCell>
        <mxCell id="Qdo3hB_uDaMukJDxGay6-6" value="" style="verticalLabelPosition=bottom;aspect=fixed;html=1;verticalAlign=top;fillColor=strokeColor;align=center;outlineConnect=0;shape=mxgraph.fluid_power.x11820;points=[[0.5,1,0]];rotation=90;" parent="Qdo3hB_uDaMukJDxGay6-1" vertex="1">
          <mxGeometry x="1190.0548818429518" y="422.44074074074075" width="39.84" height="59.85" as="geometry" />
        </mxCell>
        <mxCell id="Qdo3hB_uDaMukJDxGay6-7" value="Flow Control&amp;nbsp; &amp;nbsp; &amp;nbsp; &amp;nbsp; &amp;nbsp; &amp;nbsp;&lt;div&gt;Valve 1&amp;nbsp; &amp;nbsp; &amp;nbsp; &amp;nbsp; &amp;nbsp; &amp;nbsp; &amp;nbsp; &amp;nbsp; &amp;nbsp;&lt;/div&gt;" style="verticalLabelPosition=bottom;aspect=fixed;html=1;verticalAlign=top;fillColor=strokeColor;align=right;outlineConnect=0;shape=mxgraph.fluid_power.x10630;points=[[0.36,0,0],[0.36,1,0]];fontColor=#FFFFFF;" parent="Qdo3hB_uDaMukJDxGay6-1" vertex="1">
          <mxGeometry x="966.1831713972481" y="774.0740740740741" width="33.98" height="75.14" as="geometry" />
        </mxCell>
        <mxCell id="Qdo3hB_uDaMukJDxGay6-8" value="Chamber" style="rounded=1;whiteSpace=wrap;html=1;" parent="Qdo3hB_uDaMukJDxGay6-1" vertex="1">
          <mxGeometry x="721.1025620672144" y="1456.4814814814815" width="94.2617728192437" height="183.33333333333334" as="geometry" />
        </mxCell>
        <mxCell id="Qdo3hB_uDaMukJDxGay6-9" style="edgeStyle=orthogonalEdgeStyle;rounded=1;orthogonalLoop=1;jettySize=auto;html=1;exitX=0;exitY=0.5;exitDx=0;exitDy=0;entryX=0.5;entryY=1;entryDx=0;entryDy=0;entryPerimeter=0;endArrow=none;startFill=0;fillColor=#d80073;strokeColor=light-dark(#A50040, #f5005e);strokeWidth=5;curved=0;" parent="Qdo3hB_uDaMukJDxGay6-1" source="Qdo3hB_uDaMukJDxGay6-11" target="Qdo3hB_uDaMukJDxGay6-6" edge="1">
          <mxGeometry relative="1" as="geometry">
            <mxPoint x="1166.4894386381409" y="453.48518518518523" as="targetPoint" />
            <Array as="points">
              <mxPoint x="1125.2499130297217" y="452.4666666666667" />
            </Array>
          </mxGeometry>
        </mxCell>
        <mxCell id="Qdo3hB_uDaMukJDxGay6-10" style="edgeStyle=orthogonalEdgeStyle;rounded=1;orthogonalLoop=1;jettySize=auto;html=1;exitX=0;exitY=0.5;exitDx=0;exitDy=0;entryX=1;entryY=0.5;entryDx=0;entryDy=0;endArrow=none;startFill=0;fillColor=#d80073;strokeColor=light-dark(#A50040, #f5005e);strokeWidth=5;curved=0;" parent="Qdo3hB_uDaMukJDxGay6-1" source="Qdo3hB_uDaMukJDxGay6-11" target="Qdo3hB_uDaMukJDxGay6-18" edge="1">
          <mxGeometry relative="1" as="geometry" />
        </mxCell>
        <mxCell id="Qdo3hB_uDaMukJDxGay6-11" value="" style="shape=image;verticalLabelPosition=bottom;verticalAlign=top;imageAspect=0;image=data:image/png,iVBORw0KGgoAAAANSUhEUgAAAMgAAADICAYAAACtWK6eAAAABHNCSVQICAgIfAhkiAAAAAlwSFlzAAALEwAACxMBAJqcGAAAChVJREFUeJzt3XnsHGUdx/E3pZSrLUdLQUQEEUUNRIWIBIFGkUgkcmggIhGjwQuNGomiYgyJBGI0gLdGPJAjGjV4IAZSDzwRrwByiAcip0BtLS1HW+ofX1aWX38z+8zOzjMz3fcredKk+e3MM7Pz2Wd35jlAkiRJkiRJkiRJkiRJkiRJkiRJkiRJkiRJkiRJkiRJkiRJkiRJkiRJkiRJkiRJkiRJkiRJkiRJkiRJkiRJkiRJkiRJkiRJkiRJkiRJm5TN2q5AB80FTgEOBbZouS5t2wDcCpwP3NtyXdQR3yQuDMsT5XZgUZ2Tqk3DfrR/MXa1nF7jvPbWnLYr0DFPa7sCHTaV58aAPNm1wMNtV6Kjft52BdQNJwEP0f5Xmi6VLzOlN3Sm8qAT7AwcCMxrYd/nA7vO8v/vAu7KXJfHgFuAP2fer1ToZmb/FN+nzUpNK3+DSCUMiFTCgEglDIhUwoBIJQyIVMKASCUMiFTCgEglDIhUwoBIJQyIVGJu2xXIYAGwNbCK6Mau5swFdiR6AS9//F91zELgrcAVxJs03CP2DmLM+Ql0d0KGvvXmPQj4NHAjsI4n6vsI8HvgLGDv1mqn/9scOA1YQdogoNuBE1upabm+BGRf4Keknev1wIXATm1UVLAYuJrxRstdQnwF64o+BOQUooWoeq7vAQ5uob5TbRHRvNcZUnoTMYKwC7ockB2JD5Q653oNcFjuik+rOcAyJjPueh1wDrBl1iPYWFcDcjRwN5M51w8Au+et/nR6G6PfjNXAnaR/JbgBOCDnQczQtYDsAFxUUKfZyv2k/Q78Yc6DmEZbEt9pi96AZcAhPPGsZx7wKuD6ktcMylrgo7QzaUOXAnIUMVHEqPO1grhBsvPQa58JnMeT72zNLIfkOIhpdQLFJ/58imds2Qq4uOS1w+U64AWNHcHsuhCQ7YCvFtRjZrmZ8tu4rwQeLXjtxY3UXkDxRX4NaT0EjgfuK9jGzNbkTPI9N2k7IEcSz4tGnZf1wLmk3QH8cME2VmBvjsb8hdlP+rEVtrEE+HbBdmaWPxJz9zatrYAsBC4o2PfM8leqfT1aQNy9artlnCpFsx/uMMa2TiTurIy6MB4lPg2b7KLTRkCOIB6cjjr+x4BPAduMsY+i51RH1Ky7ChS9iePaBfhuyXaHy++A59XYV5mcAVkAfLFgfzPL34GlNfZ1WcF2j66xTZWYdEAGTmLjPlyzlUeADxJdXCYpV0BeBtxWsK+ZrcZngPk191cUkGNqblcFmgoIwFOAH5TsY7j8FnjOhPYLzQdkPvBZ4sIfdWy3AS+d0H4NSGZNBmTgDaQ99HoYeB+TaU2aDMhS4qtSSvC/QHwFmxQDklmOgAA8leg6n3JR/Rp4ds39NRGQbYku6Smtxu3Ay2vsq4gBySxXQAbeBKws2e+gPAS8l/Hv7086IIcQt2VTAv4l4nZvEwxIZrkDArEM2ZUl+x4uv2C8gUKTCsg2RFePlFbjDuAVY9S1CgOSWRsBGXgz8N+SOgzKamLhmyoLFU0iIAdT/CB1ZvkKsH2FbY/LgGTWZkAAnk56V/ufAc9I3G6dgGwFfILoBjKqTncR/aRyMSCZtR0QiJbh7cCDJfUZlAeBdzC6NRk3IC8uee3M8nXG63FQhwHJrAsBGdiT9PHZPwb2KNlW1YBsCXyM8m7lg3IP7T25NiCZdSkgEC3DO4nfHaMu1FXEzCuzqRKQF5E+3PgSYnhyWwxIZl0LyMBexJriKRftlWw89DQlIPOAs0lrNe4FjpvsIY7FgGTW1YBAPAN5D8VdvIfLSmKWkIFRAdmftFGRG4g5wBY3c4iVGZDMuhyQgWcBvyTtYr4C2I3igOxHDANem7Ct+4gBYV1iQDLrQ0AgWpPTKB6/MlxWUPx8JWW8xgZiANiSLEdWjQHJrC8BGdgH+A1pF/k45QHgtdmOpjoDklnfAgLR2/f9RO/fSYbjMmLAV5cZkMz6GJCB5wLXUj8Yy4kBXn1gQDLrc0AgxrV/iPHmuN0AfJ8Y2NUXBiSzvgdkYF9imYDUYPwHOLmVmtbTy4A4J1H/rCdmV5FK9b0F2Zx6X7G+Rb/W2+hlC9JnfQ7IpH6k/xt4Tea6j8uAZNbHgGwOnE7abd6VpHdf/wbd6VJSxIBk1reAVHlQeBXRibFqp8Qq067mZkAy60tAqnQ1WQW8ZZZtVO3WvmNjRzM+A5JZHwKyN+mdFZdRPpBqMDAqZTjt3cRaKF1iQDLrckDmAO8mrbv7g8Sw3dSJHQ4i/bfJheQfWlvEgGTW1YDsRfqKuz8hhutWVWVyhjvJOzlDEQOSWdcCUmXI7erH/7bKdECzqTq9z3Y191eHAcmsSwHZk2gNUi7Uq4lWZlK2Jn2CuH/R/ARxRQxIZl0IyGbESrurSuozKGuI3yVNde85lG5MMVrEgGTWdkB2J55XpFyQ405DWtW2xApQKa3JP4HDM9RpwIBk1mZATiFt6tG6E1mPaynpyxx8nvqL46QwIJm1EZDdgB+V7Hu4TGIphDrmA58jrTX5B5NbKKeIAcksd0DeSP7FdCbhcOLr1Kh6D5Za27ahehiQzHIFZFfg8pL9DZdrmOxybJNSZbHOvwGHNVAHA5JZjoC8nhjBN+qiegT4AN1pNYpUWe75k4y33HMRA5JZkwHZBfheyT6Gy7U0tyR0ExYCF5B2bLcCL5nQfg1IZk0F5HXEHFMprcYZxOQLfXQksbLUqONcD5xLPJCsw4BkNumALAG+U7Ld4fIHYrKFvtse+Bppx3wL0VFyXEUBaWs5hk1e0VjucfobnUDMZzvqInkU+Aj9bTWKHEWsOJXSmnyc6CxZVdGM90fUrLsKFHWrqDIOYjExA3rKJ+ifgOdPqO5dtANwEWnn4ibgwArbXkBx1/9JrP+uWVzK7Cf8V6Q9uT6OGKY66mJYC5wJbDHZ6nfWMcRKVKPOyzrgHGIg1yhnFGxjBU491ZgTKX7zzqO4K/lWxBp9KZ+U1wEvbOwIumsRxR9AM8v1lC9QeiTx1XS2117cTPUFcaGXtQBXEbco5wz9/bGkLT6zDjiLmDRhmr2amFpo1PlaTvRUHl7ibQ9iUFfZhBOTuoWsAqcy+s1bQ4zRTll4ZgNwA3BAzoPouJ1I/532GHGu70/428tzHsS0mkP6QKWUVuNs0r5TT6PjSbvTl1KWE+vMK4PFxF2VOm/YjcTUOiq3hFjBqs65XkN0x1dGOxGDksZ5wy6l/lPiaXMqxT+8y8o9xDh6tWAusXrTStLerLuIzogaz/6kzxS5nnhi36fJtjdZ2xMzhixj47HiDxCdEE9mvKfB2thSYoz7zBGMa4mHq2cTq/32Ut1pZ/pgEdFtexXxYErN2Zo43+uJH/Tr2q2OJEmSJEmSJEmSJEmSJEmSJEmSJEmSJEmSJEmSJEmSJEmSJEmSJEmSJEmSJEmSJEmSJEmSJEmSJElSBv8DhZGUYnvjcPsAAAAASUVORK5CYII=;rotation=90;" parent="Qdo3hB_uDaMukJDxGay6-1" vertex="1">
          <mxGeometry x="1084.0103874213028" y="473.8555555555556" width="82.47905121683824" height="71.2962962962963" as="geometry" />
        </mxCell>
        <mxCell id="Qdo3hB_uDaMukJDxGay6-12" style="edgeStyle=orthogonalEdgeStyle;rounded=0;orthogonalLoop=1;jettySize=auto;html=1;entryX=1;entryY=0.5;entryDx=0;entryDy=0;endArrow=none;startFill=0;fillColor=#60a917;strokeColor=light-dark(#2D7600, #65ff05);strokeWidth=5;" parent="Qdo3hB_uDaMukJDxGay6-1" source="Qdo3hB_uDaMukJDxGay6-14" target="Qdo3hB_uDaMukJDxGay6-2" edge="1">
          <mxGeometry relative="1" as="geometry" />
        </mxCell>
        <mxCell id="Qdo3hB_uDaMukJDxGay6-13" style="edgeStyle=orthogonalEdgeStyle;rounded=1;orthogonalLoop=1;jettySize=auto;html=1;entryX=1;entryY=0.5;entryDx=0;entryDy=0;endArrow=none;startFill=0;strokeWidth=5;strokeColor=light-dark(#A50040, #ff0062);fillColor=#d80073;curved=0;" parent="Qdo3hB_uDaMukJDxGay6-1" source="Qdo3hB_uDaMukJDxGay6-14" target="Qdo3hB_uDaMukJDxGay6-3" edge="1">
          <mxGeometry relative="1" as="geometry">
            <mxPoint x="989.748614602059" y="366.6666666666667" as="targetPoint" />
            <Array as="points">
              <mxPoint x="977.9658929996534" y="168.05555555555557" />
              <mxPoint x="977.9658929996534" y="356.4814814814815" />
            </Array>
          </mxGeometry>
        </mxCell>
        <mxCell id="Qdo3hB_uDaMukJDxGay6-14" value="" style="verticalLabelPosition=top;align=right;html=1;verticalAlign=bottom;pointerEvents=1;shape=mxgraph.pid2valves.valve;valveType=gate;actuator=solenoid;labelPosition=left;" parent="Qdo3hB_uDaMukJDxGay6-1" vertex="1">
          <mxGeometry x="1048.6622226140862" y="152.7777777777778" width="35.348164807216385" height="30.555555555555557" as="geometry" />
        </mxCell>
        <mxCell id="Qdo3hB_uDaMukJDxGay6-15" value="" style="verticalLabelPosition=bottom;aspect=fixed;html=1;verticalAlign=top;fillColor=strokeColor;align=center;outlineConnect=0;shape=mxgraph.fluid_power.x11820;points=[[0.5,1,0]];rotation=90;" parent="Qdo3hB_uDaMukJDxGay6-1" vertex="1">
          <mxGeometry x="1190.0548818429518" y="300.2185185185185" width="39.84" height="59.85" as="geometry" />
        </mxCell>
        <mxCell id="Qdo3hB_uDaMukJDxGay6-16" style="edgeStyle=orthogonalEdgeStyle;rounded=1;orthogonalLoop=1;jettySize=auto;html=1;exitX=0;exitY=0.5;exitDx=0;exitDy=0;entryX=0.5;entryY=1;entryDx=0;entryDy=0;entryPerimeter=0;endArrow=none;startFill=0;fillColor=#d80073;strokeColor=light-dark(#A50040, #f5005e);strokeWidth=5;curved=0;" parent="Qdo3hB_uDaMukJDxGay6-1" source="Qdo3hB_uDaMukJDxGay6-18" target="Qdo3hB_uDaMukJDxGay6-15" edge="1">
          <mxGeometry relative="1" as="geometry">
            <mxPoint x="1166.4894386381409" y="331.262962962963" as="targetPoint" />
            <Array as="points">
              <mxPoint x="1125.2499130297217" y="330.24444444444447" />
            </Array>
          </mxGeometry>
        </mxCell>
        <mxCell id="Qdo3hB_uDaMukJDxGay6-17" style="edgeStyle=orthogonalEdgeStyle;rounded=1;orthogonalLoop=1;jettySize=auto;html=1;endArrow=none;startFill=0;entryX=1.006;entryY=0.67;entryDx=0;entryDy=0;entryPerimeter=0;fillColor=#d80073;strokeColor=light-dark(#A50040, #ff0062);strokeWidth=5;curved=0;" parent="Qdo3hB_uDaMukJDxGay6-1" source="Qdo3hB_uDaMukJDxGay6-18" target="Qdo3hB_uDaMukJDxGay6-14" edge="1">
          <mxGeometry relative="1" as="geometry">
            <mxPoint x="1125.2499130297217" y="183.33333333333334" as="targetPoint" />
            <Array as="points">
              <mxPoint x="1125.2499130297217" y="173.14814814814815" />
            </Array>
          </mxGeometry>
        </mxCell>
        <mxCell id="Qdo3hB_uDaMukJDxGay6-18" value="" style="shape=image;verticalLabelPosition=bottom;verticalAlign=top;imageAspect=0;image=data:image/png,iVBORw0KGgoAAAANSUhEUgAAAMgAAADICAYAAACtWK6eAAAABHNCSVQICAgIfAhkiAAAAAlwSFlzAAALEwAACxMBAJqcGAAAChVJREFUeJzt3XnsHGUdx/E3pZSrLUdLQUQEEUUNRIWIBIFGkUgkcmggIhGjwQuNGomiYgyJBGI0gLdGPJAjGjV4IAZSDzwRrwByiAcip0BtLS1HW+ofX1aWX38z+8zOzjMz3fcredKk+e3MM7Pz2Wd35jlAkiRJkiRJkiRJkiRJkiRJkiRJkiRJkiRJkiRJkiRJkiRJkiRJkiRJkiRJkiRJkiRJkiRJkiRJkiRJkiRJkiRJkiRJkiRJkiRJkiRJm5TN2q5AB80FTgEOBbZouS5t2wDcCpwP3NtyXdQR3yQuDMsT5XZgUZ2Tqk3DfrR/MXa1nF7jvPbWnLYr0DFPa7sCHTaV58aAPNm1wMNtV6Kjft52BdQNJwEP0f5Xmi6VLzOlN3Sm8qAT7AwcCMxrYd/nA7vO8v/vAu7KXJfHgFuAP2fer1ToZmb/FN+nzUpNK3+DSCUMiFTCgEglDIhUwoBIJQyIVMKASCUMiFTCgEglDIhUwoBIJQyIVGJu2xXIYAGwNbCK6Mau5swFdiR6AS9//F91zELgrcAVxJs03CP2DmLM+Ql0d0KGvvXmPQj4NHAjsI4n6vsI8HvgLGDv1mqn/9scOA1YQdogoNuBE1upabm+BGRf4Keknev1wIXATm1UVLAYuJrxRstdQnwF64o+BOQUooWoeq7vAQ5uob5TbRHRvNcZUnoTMYKwC7ockB2JD5Q653oNcFjuik+rOcAyJjPueh1wDrBl1iPYWFcDcjRwN5M51w8Au+et/nR6G6PfjNXAnaR/JbgBOCDnQczQtYDsAFxUUKfZyv2k/Q78Yc6DmEZbEt9pi96AZcAhPPGsZx7wKuD6ktcMylrgo7QzaUOXAnIUMVHEqPO1grhBsvPQa58JnMeT72zNLIfkOIhpdQLFJ/58imds2Qq4uOS1w+U64AWNHcHsuhCQ7YCvFtRjZrmZ8tu4rwQeLXjtxY3UXkDxRX4NaT0EjgfuK9jGzNbkTPI9N2k7IEcSz4tGnZf1wLmk3QH8cME2VmBvjsb8hdlP+rEVtrEE+HbBdmaWPxJz9zatrYAsBC4o2PfM8leqfT1aQNy9artlnCpFsx/uMMa2TiTurIy6MB4lPg2b7KLTRkCOIB6cjjr+x4BPAduMsY+i51RH1Ky7ChS9iePaBfhuyXaHy++A59XYV5mcAVkAfLFgfzPL34GlNfZ1WcF2j66xTZWYdEAGTmLjPlyzlUeADxJdXCYpV0BeBtxWsK+ZrcZngPk191cUkGNqblcFmgoIwFOAH5TsY7j8FnjOhPYLzQdkPvBZ4sIfdWy3AS+d0H4NSGZNBmTgDaQ99HoYeB+TaU2aDMhS4qtSSvC/QHwFmxQDklmOgAA8leg6n3JR/Rp4ds39NRGQbYku6Smtxu3Ay2vsq4gBySxXQAbeBKws2e+gPAS8l/Hv7086IIcQt2VTAv4l4nZvEwxIZrkDArEM2ZUl+x4uv2C8gUKTCsg2RFePlFbjDuAVY9S1CgOSWRsBGXgz8N+SOgzKamLhmyoLFU0iIAdT/CB1ZvkKsH2FbY/LgGTWZkAAnk56V/ufAc9I3G6dgGwFfILoBjKqTncR/aRyMSCZtR0QiJbh7cCDJfUZlAeBdzC6NRk3IC8uee3M8nXG63FQhwHJrAsBGdiT9PHZPwb2KNlW1YBsCXyM8m7lg3IP7T25NiCZdSkgEC3DO4nfHaMu1FXEzCuzqRKQF5E+3PgSYnhyWwxIZl0LyMBexJriKRftlWw89DQlIPOAs0lrNe4FjpvsIY7FgGTW1YBAPAN5D8VdvIfLSmKWkIFRAdmftFGRG4g5wBY3c4iVGZDMuhyQgWcBvyTtYr4C2I3igOxHDANem7Ct+4gBYV1iQDLrQ0AgWpPTKB6/MlxWUPx8JWW8xgZiANiSLEdWjQHJrC8BGdgH+A1pF/k45QHgtdmOpjoDklnfAgLR2/f9RO/fSYbjMmLAV5cZkMz6GJCB5wLXUj8Yy4kBXn1gQDLrc0AgxrV/iPHmuN0AfJ8Y2NUXBiSzvgdkYF9imYDUYPwHOLmVmtbTy4A4J1H/rCdmV5FK9b0F2Zx6X7G+Rb/W2+hlC9JnfQ7IpH6k/xt4Tea6j8uAZNbHgGwOnE7abd6VpHdf/wbd6VJSxIBk1reAVHlQeBXRibFqp8Qq067mZkAy60tAqnQ1WQW8ZZZtVO3WvmNjRzM+A5JZHwKyN+mdFZdRPpBqMDAqZTjt3cRaKF1iQDLrckDmAO8mrbv7g8Sw3dSJHQ4i/bfJheQfWlvEgGTW1YDsRfqKuz8hhutWVWVyhjvJOzlDEQOSWdcCUmXI7erH/7bKdECzqTq9z3Y191eHAcmsSwHZk2gNUi7Uq4lWZlK2Jn2CuH/R/ARxRQxIZl0IyGbESrurSuozKGuI3yVNde85lG5MMVrEgGTWdkB2J55XpFyQ405DWtW2xApQKa3JP4HDM9RpwIBk1mZATiFt6tG6E1mPaynpyxx8nvqL46QwIJm1EZDdgB+V7Hu4TGIphDrmA58jrTX5B5NbKKeIAcksd0DeSP7FdCbhcOLr1Kh6D5Za27ahehiQzHIFZFfg8pL9DZdrmOxybJNSZbHOvwGHNVAHA5JZjoC8nhjBN+qiegT4AN1pNYpUWe75k4y33HMRA5JZkwHZBfheyT6Gy7U0tyR0ExYCF5B2bLcCL5nQfg1IZk0F5HXEHFMprcYZxOQLfXQksbLUqONcD5xLPJCsw4BkNumALAG+U7Ld4fIHYrKFvtse+Bppx3wL0VFyXEUBaWs5hk1e0VjucfobnUDMZzvqInkU+Aj9bTWKHEWsOJXSmnyc6CxZVdGM90fUrLsKFHWrqDIOYjExA3rKJ+ifgOdPqO5dtANwEWnn4ibgwArbXkBx1/9JrP+uWVzK7Cf8V6Q9uT6OGKY66mJYC5wJbDHZ6nfWMcRKVKPOyzrgHGIg1yhnFGxjBU491ZgTKX7zzqO4K/lWxBp9KZ+U1wEvbOwIumsRxR9AM8v1lC9QeiTx1XS2117cTPUFcaGXtQBXEbco5wz9/bGkLT6zDjiLmDRhmr2amFpo1PlaTvRUHl7ibQ9iUFfZhBOTuoWsAqcy+s1bQ4zRTll4ZgNwA3BAzoPouJ1I/532GHGu70/428tzHsS0mkP6QKWUVuNs0r5TT6PjSbvTl1KWE+vMK4PFxF2VOm/YjcTUOiq3hFjBqs65XkN0x1dGOxGDksZ5wy6l/lPiaXMqxT+8y8o9xDh6tWAusXrTStLerLuIzogaz/6kzxS5nnhi36fJtjdZ2xMzhixj47HiDxCdEE9mvKfB2thSYoz7zBGMa4mHq2cTq/32Ut1pZ/pgEdFtexXxYErN2Zo43+uJH/Tr2q2OJEmSJEmSJEmSJEmSJEmSJEmSJEmSJEmSJEmSJEmSJEmSJEmSJEmSJEmSJEmSJEmSJEmSJEmSJElSBv8DhZGUYnvjcPsAAAAASUVORK5CYII=;rotation=90;" parent="Qdo3hB_uDaMukJDxGay6-1" vertex="1">
          <mxGeometry x="1084.0103874213028" y="351.6333333333334" width="82.47905121683824" height="71.2962962962963" as="geometry" />
        </mxCell>
        <mxCell id="Qdo3hB_uDaMukJDxGay6-19" style="edgeStyle=orthogonalEdgeStyle;rounded=1;orthogonalLoop=1;jettySize=auto;html=1;exitX=1;exitY=0.5;exitDx=0;exitDy=0;endArrow=none;startFill=0;entryX=0.36;entryY=0;entryDx=0;entryDy=0;entryPerimeter=0;curved=0;fillColor=#d80073;strokeColor=light-dark(#A50040, #fa0060);strokeWidth=6;" parent="Qdo3hB_uDaMukJDxGay6-1" source="Qdo3hB_uDaMukJDxGay6-3" target="Qdo3hB_uDaMukJDxGay6-7" edge="1">
          <mxGeometry relative="1" as="geometry">
            <mxPoint x="1001.5313362044643" y="488.8888888888889" as="targetPoint" />
            <Array as="points">
              <mxPoint x="980.3224373201346" y="356.4814814814815" />
            </Array>
          </mxGeometry>
        </mxCell>
        <mxCell id="Qdo3hB_uDaMukJDxGay6-20" value="" style="shape=image;verticalLabelPosition=bottom;verticalAlign=top;imageAspect=0;image=data:image/png,iVBORw0KGgoAAAANSUhEUgAAAgAAAAFVCAYAAACZ01cjAAAABmJLR0QA/wD/AP+gvaeTAAAaBklEQVR4nO3deZQdZZ3G8W9CSNhCWBLCEnYQZN8XQTYJyiI7jGcg0KMox+UA47ig4xxg9CAoyjbqgCIYGDdUGMERERBBZBEEFMOmsgiDsjvskNDzx5uWTtvp7ntvVf3qrfp+zqkjeMi9z73pvvXc9633LZAkSZIkSZIkSZIkSZIkSZIkSZIkSZIkSZIkSZIkSZIkSZIkSZIkSZIkSZIkSZIkSZIkSZIkSZIkSZIkSZIkSZIkSZIkSZIkSZIkSZIkSZIkSZIkSZIkSZIkSZIkSZIkSZIkSZIkSZIkSZIkSZIkSZIkSZIkSRWYEB1AktQc46IDaAGrAjsDmwIbAusDywBLA4sArwN/nX/MAe4CbgWuBp4OyCtJkrq0AXAa8ADQ3+UxF7gR+BCpMEiSpJraE7iO7k/6CzteBM4BZlT3UiRJ0mh2BG6h+BP/cEXgFGDxal6WJEkaznLAeaR5/LJP/oOPu4GtKnh9kiRpiG2Bh6j2xD/4eBU4uvRXKUmS/uYo4BXiTv6Djy8C48t9uZIk6RTiT/pDj29gCZAkqTQfJf5kv7Dj9BJftyRJrTWL6i/26/Q4rrRXL0lSC21CWoIXfYIf7XiVtCRRkiT1aDJwP/En97EeDwFLlfJOSJJqbZHoAA1zMrBPdIgOTJn/v9eEppAkKWPrk4bVo7/Vd3q8AqxVwvshSVIr/Ij4k3m3xwXFvx2SJDXfZsSfxHs55gLrFv6uSJJqa0J0gIb4SHSAHi0CvBf4WHQQSdlbBji0oMe6iLSqSqqlZanPVr+9HH8BFi34vZHUPutT3OfStIqzt4pbwvbuQGBidIgCrADsHh1CUvb6owNobCwAvTskOkCB9ooOICl7FoBMWAB6MxF4a3SIAu0ZHUCSVA0LQG+2BpaIDlGgtYHp0SEkZc0RgExYAHqzZXSAEmwSHUBS1iwAmbAA9KaJa+ctAJJ6YQHIhAWgN+tEByjBjOgAkqTyWQB608Q1ql4DIKkXjgBkwgLQmyWjA5Rg+egAkrJmAciEBaA3TVoBMMCfCUlqAT/se/NydIAS2N4l9cLPkExYAHrzfHSAEqxO2hZYkrphAciEBaA3j0cHKMGbgDuAXaODSMqSBSATFoDe3B0doCQrAVcDZ9KMGx1Jqo4FIBMWgN7MiQ5QonHAMcAVwMrBWSRJBbMA9Obn0QEqsCup6DTproeSyuMIgFrjUdIPfNOPecDJwIRi3jZJDTWD4j53mrjZWm04AtC7b0cHqMh44BPATTRzC2RJxXAEQK2xBfHfzqs+ngT2KeLNk9Q4K+MIgFrk58SflCOO2TRzN0RJ3VsJC4Ba5ADiT8ZRx83AGj2/g5KawgKg1rmO+JNx1PF/wGG9v4WSGmBFLABqmW2A14g/GUceZwOTen0jJWVtOhYAtdDHiD8JRx93Axv3+kZKytYKWADUQuOBK4k/CUcfLwLH9vheSsrTNCwAaqkZwCPEn4TrcJwDLN7b2ykpMxYAtdo6wF+IPwHX4bgH2LS3t1NSRqZiAVDL7QQ8T/wJuA7Hc8ARvb2dkjJhAZCAjYCHiD8B1+X4AbBMT++opLpbHguABMBqpP3zo0++c4FPAvcF55hDKkaSmmk5LADS3ywKXEDsyf/d87NMBv4rMEs/aZXAUV2/m5LqbFksANIC+og52f6a4dflHwQ8G5Rp4LiU9G1BUnMsgwVAWkAf1Z5cHwU+zMjL8DYCfldxrqHHfcDmY30TJdWeBUAaoo/yT6avk+5MeCRj35J3SeD8CrKNdLwEfHCMeSXV2xQsANIC+ijv5HkF8CF6uyvfLNJyvcgi8D1cJSDlzgIgDdFHsSfLs4G9Sd/gi7I+cGfBOTs9/ghsXeBrklStpbEASAvoo9gT5aol5ZwAnAjMKzhvJ8fc+RnGl/QaJZVnMhYAaQF95FEABrwTeLLgzJ0eVwMrlfw6JRVrKSwAWfAblhbmMmBb4LbADLuRNlHaITCDJDWSBUAj+QOwHXASaYVBhNWA64EzSRsqSaq3/ugAUt30kdcUwFBvAx4rKHu3x03AmmW/UEk9WQKnALLgCIDG6mrSbX2vDMywLXA7cEhgBkkjcwQgExYAdeJxYC/SlMC8oAxTgO8C5zD2zY4kVccCIA3RR95TAEPtQtpuOHJK4DZg3ZJfp6TOLIZTAFlwBEDduhbYDPhxYIYtSCXg8MAMkhbkCEAmLADqxROk3QiPA14LyjAZuBCYTVp/LCmWBUAaoo9mTQEMtQ1pG9/IKYF7SKMSkuJMxCmALDgCoKLcQtrD//LADOuRlgoeC4wLzCG1mSMAmbAAqEhPAfuSpgReDcowCTgDuARYLiiD1GYWgExYAFS0ftKufTuQdhKMsh9wB7BjYAapjSwAmbAAqCy3kq7S/05ghlWBn5HuLLhIYA5JUov10eyLAEdyBPAisRcIXgOsXPYLlcR4vAgwC44AqAqzSVMC9wdm2JU0JbBXYAapDZwCyIQFQFW5HdgS+GZghmmkVQpnkpYqSZJUuj7aOwUw1BHA88ROCdwCrF32C5VayimADDgCoAizSXsG/DYww9bAr4F3BWaQpDAWAEW5m3R733MDMywNfItUSJYIzCE1jdcBSIP04RTAwhwBPEfslMAcYOOyX6jUEvNwCqD2HAFQHcwGtgLuDMzwZuBm0jbCktR4FgDVxb3AdsBZgRkWJ20j/D1gmcAcUu6cApAG6cMpgLE6EHiG2CmBB4HtS36dUlO9hlMAtecIgOroB6Tb+t4UmGF14DrSNsL+nkiSutaHIwCdmkTatOd1YkcDrgRWLPm1Sk3yKo4A1J7fbFRnr5AuyjsAeDowx0zSNsJ7BGaQctIfHUCjswAoB/9NmhK4ITDDdOAK0ojEooE5pBxYADJgAVAu/gTsApxEmhKIMA44BrgKmBGUQZKUmT68BqAouwN/Jva6gCeBd5b9QqVMvYTXANSeIwDK0VWkjYOuD8ywPGlq4kzSxYqS3uAUQAYsAMrVI8CupCmBeUEZBqYEfgmsG5RBqiMLQAYsAMrZPNI6/ZnAY4E5tgBuAw4PzCBJHbEAqAl+Rlol8JPADJOBC0n3NVgqMIdUB44AZMACoKZ4HNgTOI60DWmUWcCtpEIitZUFIAMWADVJP+mivN2BRwNzrAfciHcWlFRjFgA10XWkb+D/E5hhMdKdBS8BlgvMIUVwBCADFgA11ZPAPqQpgVcDc+wP3A7sEJhBqpoFIAMWADXZwJTAjsAfA3OsBlyLdxZUe1gAMuCHkdrgV6SlehcHZpgAnAD8FFgpMIckARYAtcdfgUOBo0l3GYyyG3AnacWC1FSOAGTAAqC2ORd4C/D7wAzTgB/hnQXVXBaADFgA1Ea/Jk0JfCsww8A2wjcAawXmkNRSFgC11XPAYcCHiV0lsDVwE7BXYAapaI4AZMACoDbrB04HNgfuCswxMCUwG1giMIdUFAtABiwAEswBtgcuCs4xi7RiYePgHFKvLAAZsABIyfOkE/CRwAuBOTYAbsZthCWVzAIgLWg2sBXwm8AMi5O2Ef4esExgDqlbjgBkwAIg/b17gG2Bs4JzHATcQZqekHJiAciABUAa3sukYfiDgWcDc6xOurnRifj7KqlAfqBII/s+aTTg9sAMA9sI/wRYMTCHNFaOAGTAAiCN7j7SMHz0lMDupG2E3x6cQxqNBSADFgBpbF4hTQkcADwTmGMF4Me4jbDqzQKQAQuA1JlLgc2AGwMzDGwj/AtgzcAckjJmAZA69zCwE3AS8Hpgjm1I1yYcGphBGo4jABmwAEjdmUu6Mn9/4KnAHFOA7+A2wqoXC0AGLABSby4jTQn8IjjHLOAWYKPgHBJYALJgAZB69wiwK/FTAhuSSoDbCEtSjfSRWnFRx6qVptdY7QY8RrF/190cF+M2worzMMX8HE+rOnibOAIgFesaYFPgyuAcB5MuENwuOIfaySmADFgApOI9DrwDOB6YF5hjDdxGWJLC9eEUQBvtAjxK/JTAlbiNsKrzIE4B1J7fCqRyXUtaJfDj4BwzSXcW3CM4h9rBKYAMWACk8j0B7A0cB7wWmGM6biOsalgAMmABkKrRTzrx7gg8EJhjPGkb4etwG2Gp1SwAUrVuAbYGLg/OsR1plcAhwTnUTI4AZMACIFXvKWA/4FOkLYWjTAG+DZyCUwKDebvl3lkApEH6cBWA/t5WwO+JXyVwG/Cmkl9rDmaR3o89o4NkrqifaVcBqBH6sABoeEuTvolHl4DnSCfAtlqP9B70k7Z3XjY2TtbuxwIg/U0fFgCN7AjgReKLwGxgqZJfa91MBG5lwffhvNBEebsPC0Dtjevxz2+CQ2VjtSXFXnC1GvCnAh9P9bAd8C3SLn6R7gLeBfwuOEdVPkvauXGwftK+CVdVHyd791LMlNKdxF4nk7MXgZ3KfIJ3E/9tpa2HIwDNNRm4iPifsZdJdxbs9YtC3e1LuovjcO/BozgV0I17if/5bfvx3Gh/Sa4CkOrnOeBw4EjghcAck4AzgEuB5QNzlGll4GssvOSsDHyxujiN0R8dQKOzAEj1NZu0Z8Bvg3PsS9pGuNThxACLAN9k9HnmPmD/0tM0iwUgAxYAqd7uBrYFzgrOMYN0q+MTSSfOJjge2HmM/+2XgeVKzNI0FoAW8BqAuMNrANpnFm8sU4s8rgVWKfellm4H0n0ZOnnds0OS5mkO8T+nbT+8BkBqkAtJGwfdEZxj5/kZ9gnO0a3lSfsuTOjwz80CDiw+TiP1RwfQ6CwAUl7uBbYnfkpgKvBD0g2OJgVn6dS5pCmNbnwJpwLGwgKQAQuAlJ+B5XkHAs8G5hhHurPgL4F1A3N04v309i1+ReLLl1QIC4CUr0uAzYCbgnNsQbqXwOHBOUazKcUs6TsMOKiAx2kyRwAyYAGQ8vYQaXneqcR+6E4mXaNQ122ElyAt+VusoMf7CrBCQY/VRBaADFgApPy9RlrStj/wdHCWWaQ99TcLzjHUGcAGBT7eNNL1DxqeBSADFgCpOX5IOvHeEJxjPdK0RF22Ef5H4L0lPO67gINLeFypEhYAqVn+BOwCnETa3z7KwDbClxB71fyapE18yvIVYHqJj58rRwAyYAGQmmcuace+twN/jo3CfqQ9A94a8NwTge8AU0p8jqnA2SU+fq4sABmwAEjNdRVp46DrgnOsSsw2wv9OupdC2Q4BDq3geaRCWQCkZnsU2I00JTAvMMcE4ATgp6Q77JVtJvDRCp5nwJdwKmAwRwAyYAGQmm8e6dv3TOCx2CjsCtwJ7F3ic6wEXES1n29TgXMqfL66swBkwAIgtcfPSJvhXBGcYypwGWkZ3cSCH3s8cAExa/T3I60MkAUgCxYAqV2eAPYCjiPtHxBlYBvhG4B1CnzcfwH2KPDxOvUfpO2Cpdrr9G5YQz0AXFxEkIZblLRJi1QH/aRv33NIu/dFzl1vBdwMvAe4tMfH2hz4dM+JerM86b39h+Ac0YocATgbuL7Ax2uLudEBlEyh+Hs9r1rpK1BTTQUuJ/7e5f2kbYSX7PJ1TAH+UIPXMHAc1uXraIpbKO69rPs9JqQRWQBUZ+NIu/a9QvyJ827SdQqd+m4Nsg8+ngFW6eJ1NIUFQJrPAqAcbE09vkW/RCokY/WeGmQe7risg9fQNDdjAZAAC4DyMYW0e170ybOfsW0j/GbghRpkXdgxa5T8TXUTFgAJsAAoP+8DXib+BPoQsONCMi4O/LYGGUc6ngVmjPZmN9CNWABqz2WAkoZzLvAW4PfBOVYj7V9wIn//efV5YKOqA3VoCvCf0SEkxXEEQLmaDHyT+G/S/cDVvLGN8AE1yNPJ0dfJm94Av8QRAAmwAChv40gbB9VhlcAjpDX2j9cgSyfHk7Rrg6AbsADUnlMAkkbTD5xB2mjnruAsqwDfBqYF5+jU8qR9DsZFB6lIf3QAjc4CIGms5gDbAF+NDpKpmcA/RYeQBlgAJHXiJdIKgSNJy+/UmdNJFzY2nSMAGbAAVMNfBjXNbNI+/r+JDpKZpYGv0/ypAD/zMmABkNSte4BtgbOig2TmbcBR0SEkC4CkXrxM2rb3YNKmNxqb02j2VIAjABmwAEgqwvdJFwjeHh0kE0sD59PcqQALQAYsAJKKcj+wPWlKwBPA6HYjXVDZRP79Z8ACIKlIr5CmBA4k3RJXI/sCsHZ0CLWTBUBSGS4FNiNtCauFW5K0r0LTpgIcAciABUBSWR4GdgZOAl4PzlJnuwLvjw5RMAtABiwAkso0l3Qnv/2Ap2Kj1NrngHWiQ6hdLACSqnA5aUrg+uggNbUkcAHN+Ux2BCADTflhk1R/j5CufHdKYHg7AB+IDlEQC0AGLADV8JdBSgamBGYCj8VGqaVTgXWjQxTAz7wMWAAkRbiGNCVwZXSQmlmCZk0FqMb8IZMU5XFgb9K3Xr3hLcDR0SF65AhABiwAkiLNBf4SHaKGTiPvqQALQAYsAJIibQx8NjpEDS0BfANYJDpIlywAGbAASIoyEZgNTIoOUlPbA8dEh1BzWQAkRTmBdCGgFu5kYIPoEF1wBCADFgBJEXYCjo8OkYHFgPPIbyrAApABC4Ckqk0GzsfPn7HaDvjn6BBqHn8BJVXtNGCt6BCZ+QywYXSIDjgCkAELgKQq7QO8LzpEhiaR11SABSADFgBJVZlOOompO9sCH4kOMUYWgAxYAKrhL4ME5wArRIfI3EnARtEh1AwWAElVOALYLzpEA0wibRC0aHSQUfilJwMWAEllWx04KzpEg2xB/acCLAAZsABIKtMiwIXAlOggDXMCaRtlqWsWAEllOhZ4a3SIBqr7VIAjABmwAEgqy8akrWxVjs2Bj0eHWAgLQAYsAJLK4I1+qvFvwCbRIYZhAciABUBSGbzRTzUmUu+pANWYBUBS0bzRT7U2Az4RHWIIRwAyYAGQVKTJwAX42VK1fwO2jA4xiAUgA/6SSirSacCa0SFaaAJpm+WJ0UGUDwuApKJ4o59YmwKfjA4xnyMAGbAAVMNfBjXddODr0SHEvwJbRYfAz7wsWAAkFeEcYFp0CDGBtCpgseAcFoAMWAAk9cob/dTLBqSRAGlEFgBJvfBGP/V0PLB14PM7ApABC4Ckbi0CXIQ3+qmj6KkAC0AGLACSunUssGN0CC3Um0n7A0SwAGTAAiCpG5vgjX5y8DFgm+gQqicLgKRODew/741+6i9qKsARgAxYACR16kS80U9O1if9nVXJApABC4CkTuxEfe9Br4X7KF6voSEsAJLGyhv95Gs88DVg8YqezxGADPiLLGms1gfuA16KDqKurAd8qqLnsgBkwAJQDX8Z1AS/At5BGgnYCjgJuA14PTKUOnI81UwF+JmXAQuApE7NI534TyQVgRWBQ4Fzgf+Ni6UxqHoqQDVmAZDUqyeAi4GjgVVJpeB44Crg1cBcGt56wGdKfg5HADJgAZBUpNdJowOnAjOB5YB9SaMDDwXm0oKOI63oKIsFIAMWAEllegG4jDQ6sAaw9vx/vhx4OS5W640HzgeWig6iOBYASVX6I2k04J2k0YGZpNGC2yJDtdRawKdLemxHADIwITqApNZ6iXSdwFXz/30NYA9gd1IxWCYmVqscA1wK/Lzgx7UAZMARAEl18SBpdOBQYCouNaxCWVMBFoAMWAAk1ZFLDauzJt7ZsZUsAJJyMHip4SrARrjUsEgfBHYp8PEcAciABUBSjn7HgksNZwJn4VLDbg1MBUwu6PEsABmwAFTDXwapPC+QRgKOZcGlhhcDz8fFys4awGcLeiw/8zJgAZDUNANLDQ8FVsClhp34AGklhlrAZYCSmmzoUsMVSSe4fXCp4XDGkcrTxsBzPTyOIwAZcARAUpv8GZjNgksNjwduwKWGA1YHPtfjY1gAMmABkNRWA0sNTyXdInc6LjUccDTw9ugQKpcFQJKSJ3Gp4YBxwHl0P0XiCEAGLACSNLy2LzVche6nAiwAGbAASNLo2rrU8Chgzy7+nAUgAxYASercSEsNm3TyGwd8FVg2OoiKZwGQpN4MLDU8nrSqYGXgSNLowLOBuYqyCvD5Dv9Mk0pQY1kAJKlYTVxq+B46mwqwAGTAAiBJ5RlpqeGjgbm68TWcCmgUC0A1bMOSYMGlhjPIa6nhysAXx/jf+pknzbcY6ReiyGPVSl+BpLItCewOnAk8SPGfGUUd+4/htZxe4PMdPobnUxccAZCkehhpqWEv+/IX7cukfRFG4ghABiwAklRPg5caTqc+Sw1XIn3DlzQGTgFIKtKKwBHAd4FniJkKOGCEfF8o8HmcAiiJIwCSlJ86LDX8EgufCnAKIAMWAEnKW9RSw5VI90aQNAKnACRF2RD4OPBT4BWK/yw6aJjn/HyBj+8UgLJmAZBUB4OXGj5AMZ9Fj5PuhzDY5wp6bAtAiZwCkKT2GLzUcE2KWWo4DThjyP/nNQDSfI4ASKq7xUijA6cAt5IuJuzkM+ngQY91aod/1hEANdYkLACS8jJ4qeHTjP6Z9ARvTAWcMob/3gIQzCkASdJwBi81nMboSw2nAmfP/2enAKT5HAGQ1CRTgUOAc4BHWPCz6RDgZIr7rHMEQFmzAEhqssFLDR8FzsMCIAEWAEntMZU0dWABqDmvAZAkFelJ4OHoEBqdBUCSpBayAEiSiuYqgAxYACRJRbMAZMACIEkqmgUgAxYASZJayAIgSSqaIwAZmBAdoCXmkrbQLNKzBT+eJKlFxkUHkCQ1zuKkuwsW4QXg1YIeS5IkSZIkSZIkSZIkSZIkSZIkSZIkSZIkSZIkSZIkSZIkSZIkSZIkSZIkSZIkSZIkSZIkSZIkSZIkSZIkSZIkSZIkSZIkSZIkSZIkSZIkSZIkSZIkSZIkSZIkSZIkSZIkSZIkSZIkSZIkSZIkSZIkSZIkSZIkSZIkSZIkSZIkSZIkSZIkSZIkSZIkSZIkSZIkSZKkzv0/5hxqzKl1xLwAAAAASUVORK5CYII=;rotation=90;" parent="Qdo3hB_uDaMukJDxGay6-1" vertex="1">
          <mxGeometry x="947.3072513901946" y="1100" width="61.27015233250841" height="35.64814814814815" as="geometry" />
        </mxCell>
        <mxCell id="Qdo3hB_uDaMukJDxGay6-21" style="edgeStyle=orthogonalEdgeStyle;rounded=1;orthogonalLoop=1;jettySize=auto;html=1;entryX=0;entryY=0.5;entryDx=0;entryDy=0;endArrow=none;startFill=0;fillColor=#d80073;strokeColor=light-dark(#A50040, #fa0060);curved=0;strokeWidth=6;" parent="Qdo3hB_uDaMukJDxGay6-1" source="Qdo3hB_uDaMukJDxGay6-22" target="Qdo3hB_uDaMukJDxGay6-20" edge="1">
          <mxGeometry relative="1" as="geometry" />
        </mxCell>
        <mxCell id="Qdo3hB_uDaMukJDxGay6-22" value="flow&lt;div&gt;sensor&lt;/div&gt;" style="verticalLabelPosition=bottom;sketch=0;html=1;fillColor=#A153A0;strokeColor=#ffffff;verticalAlign=top;align=center;points=[[0,0.5,0],[0.125,0.25,0],[0.25,0,0],[0.5,0,0],[0.75,0,0],[0.875,0.25,0],[1,0.5,0],[0.875,0.75,0],[0.75,1,0],[0.5,1,0],[0.125,0.75,0]];pointerEvents=1;shape=mxgraph.cisco_safe.compositeIcon;bgIcon=mxgraph.cisco_safe.design.blank_device;resIcon=mxgraph.cisco_safe.design.flow_sensor;rotation=90;fontColor=#FFFFFF;" parent="Qdo3hB_uDaMukJDxGay6-1" vertex="1">
          <mxGeometry x="954.3768843516378" y="977.7777777777778" width="47.13088640962185" height="36.66666666666667" as="geometry" />
        </mxCell>
        <mxCell id="Qdo3hB_uDaMukJDxGay6-23" style="edgeStyle=orthogonalEdgeStyle;rounded=1;orthogonalLoop=1;jettySize=auto;html=1;entryX=0.36;entryY=1;entryDx=0;entryDy=0;entryPerimeter=0;endArrow=none;startFill=0;fillColor=#d80073;strokeColor=light-dark(#A50040, #fa0060);curved=0;strokeWidth=6;" parent="Qdo3hB_uDaMukJDxGay6-1" source="Qdo3hB_uDaMukJDxGay6-22" target="Qdo3hB_uDaMukJDxGay6-7" edge="1">
          <mxGeometry relative="1" as="geometry">
            <Array as="points">
              <mxPoint x="980.3224373201346" y="855.5555555555557" />
            </Array>
          </mxGeometry>
        </mxCell>
        <mxCell id="Qdo3hB_uDaMukJDxGay6-24" style="edgeStyle=orthogonalEdgeStyle;rounded=1;orthogonalLoop=1;jettySize=auto;html=1;exitX=0;exitY=0.5;exitDx=0;exitDy=0;exitPerimeter=0;entryX=0.75;entryY=0;entryDx=0;entryDy=0;endArrow=none;startFill=0;fillColor=#d80073;strokeColor=light-dark(#A50040, #fa0060);curved=0;strokeWidth=6;" parent="Qdo3hB_uDaMukJDxGay6-1" source="Qdo3hB_uDaMukJDxGay6-25" target="Qdo3hB_uDaMukJDxGay6-8" edge="1">
          <mxGeometry relative="1" as="geometry">
            <Array as="points">
              <mxPoint x="977.9658929996534" y="1307.7777777777778" />
              <mxPoint x="977.9658929996534" y="1354.6296296296298" />
              <mxPoint x="791.7988916816471" y="1354.6296296296298" />
            </Array>
          </mxGeometry>
        </mxCell>
        <mxCell id="Qdo3hB_uDaMukJDxGay6-25" value="" style="verticalLabelPosition=bottom;aspect=fixed;html=1;verticalAlign=top;fillColor=strokeColor;align=center;outlineConnect=0;shape=mxgraph.fluid_power.x11770;points=[[0,0.5,0]]" parent="Qdo3hB_uDaMukJDxGay6-1" vertex="1">
          <mxGeometry x="1001.5077707612596" y="1293.5185185185187" width="46.82" height="27.96" as="geometry" />
        </mxCell>
        <mxCell id="Qdo3hB_uDaMukJDxGay6-26" style="edgeStyle=orthogonalEdgeStyle;rounded=1;orthogonalLoop=1;jettySize=auto;html=1;exitX=1;exitY=0.5;exitDx=0;exitDy=0;entryX=0;entryY=0.5;entryDx=0;entryDy=0;entryPerimeter=0;endArrow=none;startFill=0;fillColor=#d80073;strokeColor=light-dark(#A50040, #fa0060);curved=0;strokeWidth=6;" parent="Qdo3hB_uDaMukJDxGay6-1" source="Qdo3hB_uDaMukJDxGay6-20" target="Qdo3hB_uDaMukJDxGay6-25" edge="1">
          <mxGeometry relative="1" as="geometry" />
        </mxCell>
        <mxCell id="Qdo3hB_uDaMukJDxGay6-27" style="edgeStyle=orthogonalEdgeStyle;rounded=1;orthogonalLoop=1;jettySize=auto;html=1;entryX=1;entryY=0.5;entryDx=0;entryDy=0;endArrow=none;startFill=0;fillColor=#60a917;strokeColor=light-dark(#2D7600, #61f505);strokeWidth=5;curved=0;" parent="Qdo3hB_uDaMukJDxGay6-1" target="Qdo3hB_uDaMukJDxGay6-32" edge="1">
          <mxGeometry relative="1" as="geometry">
            <mxPoint x="41.30883573549204" y="575.7074074074075" as="sourcePoint" />
          </mxGeometry>
        </mxCell>
        <mxCell id="Qdo3hB_uDaMukJDxGay6-29" value="" style="verticalLabelPosition=bottom;aspect=fixed;html=1;verticalAlign=top;fillColor=strokeColor;align=center;outlineConnect=0;shape=mxgraph.fluid_power.x11820;points=[[0.5,1,0]];rotation=90;" parent="Qdo3hB_uDaMukJDxGay6-1" vertex="1">
          <mxGeometry x="106.04449442164916" y="422.44074074074075" width="39.84" height="59.85" as="geometry" />
        </mxCell>
        <mxCell id="Qdo3hB_uDaMukJDxGay6-30" style="edgeStyle=orthogonalEdgeStyle;rounded=1;orthogonalLoop=1;jettySize=auto;html=1;exitX=0;exitY=0.5;exitDx=0;exitDy=0;entryX=0.5;entryY=1;entryDx=0;entryDy=0;entryPerimeter=0;endArrow=none;startFill=0;fillColor=#60a917;strokeColor=light-dark(#2D7600, #61f505);strokeWidth=5;curved=0;" parent="Qdo3hB_uDaMukJDxGay6-1" source="Qdo3hB_uDaMukJDxGay6-32" target="Qdo3hB_uDaMukJDxGay6-29" edge="1">
          <mxGeometry relative="1" as="geometry">
            <mxPoint x="82.47905121683824" y="453.48518518518523" as="targetPoint" />
            <Array as="points">
              <mxPoint x="41.23952560841912" y="452.4666666666667" />
            </Array>
          </mxGeometry>
        </mxCell>
        <mxCell id="Qdo3hB_uDaMukJDxGay6-31" style="edgeStyle=orthogonalEdgeStyle;rounded=1;orthogonalLoop=1;jettySize=auto;html=1;exitX=0;exitY=0.5;exitDx=0;exitDy=0;entryX=1;entryY=0.5;entryDx=0;entryDy=0;endArrow=none;startFill=0;fillColor=#60a917;strokeColor=light-dark(#2D7600, #61f505);strokeWidth=5;curved=0;" parent="Qdo3hB_uDaMukJDxGay6-1" source="Qdo3hB_uDaMukJDxGay6-32" target="Qdo3hB_uDaMukJDxGay6-35" edge="1">
          <mxGeometry relative="1" as="geometry" />
        </mxCell>
        <mxCell id="Qdo3hB_uDaMukJDxGay6-32" value="" style="shape=image;verticalLabelPosition=bottom;verticalAlign=top;imageAspect=0;image=data:image/png,iVBORw0KGgoAAAANSUhEUgAAAMgAAADICAYAAACtWK6eAAAABHNCSVQICAgIfAhkiAAAAAlwSFlzAAALEwAACxMBAJqcGAAAChVJREFUeJzt3XnsHGUdx/E3pZSrLUdLQUQEEUUNRIWIBIFGkUgkcmggIhGjwQuNGomiYgyJBGI0gLdGPJAjGjV4IAZSDzwRrwByiAcip0BtLS1HW+ofX1aWX38z+8zOzjMz3fcredKk+e3MM7Pz2Wd35jlAkiRJkiRJkiRJkiRJkiRJkiRJkiRJkiRJkiRJkiRJkiRJkiRJkiRJkiRJkiRJkiRJkiRJkiRJkiRJkiRJkiRJkiRJkiRJkiRJkiRJm5TN2q5AB80FTgEOBbZouS5t2wDcCpwP3NtyXdQR3yQuDMsT5XZgUZ2Tqk3DfrR/MXa1nF7jvPbWnLYr0DFPa7sCHTaV58aAPNm1wMNtV6Kjft52BdQNJwEP0f5Xmi6VLzOlN3Sm8qAT7AwcCMxrYd/nA7vO8v/vAu7KXJfHgFuAP2fer1ToZmb/FN+nzUpNK3+DSCUMiFTCgEglDIhUwoBIJQyIVMKASCUMiFTCgEglDIhUwoBIJQyIVGJu2xXIYAGwNbCK6Mau5swFdiR6AS9//F91zELgrcAVxJs03CP2DmLM+Ql0d0KGvvXmPQj4NHAjsI4n6vsI8HvgLGDv1mqn/9scOA1YQdogoNuBE1upabm+BGRf4Keknev1wIXATm1UVLAYuJrxRstdQnwF64o+BOQUooWoeq7vAQ5uob5TbRHRvNcZUnoTMYKwC7ockB2JD5Q653oNcFjuik+rOcAyJjPueh1wDrBl1iPYWFcDcjRwN5M51w8Au+et/nR6G6PfjNXAnaR/JbgBOCDnQczQtYDsAFxUUKfZyv2k/Q78Yc6DmEZbEt9pi96AZcAhPPGsZx7wKuD6ktcMylrgo7QzaUOXAnIUMVHEqPO1grhBsvPQa58JnMeT72zNLIfkOIhpdQLFJ/58imds2Qq4uOS1w+U64AWNHcHsuhCQ7YCvFtRjZrmZ8tu4rwQeLXjtxY3UXkDxRX4NaT0EjgfuK9jGzNbkTPI9N2k7IEcSz4tGnZf1wLmk3QH8cME2VmBvjsb8hdlP+rEVtrEE+HbBdmaWPxJz9zatrYAsBC4o2PfM8leqfT1aQNy9artlnCpFsx/uMMa2TiTurIy6MB4lPg2b7KLTRkCOIB6cjjr+x4BPAduMsY+i51RH1Ky7ChS9iePaBfhuyXaHy++A59XYV5mcAVkAfLFgfzPL34GlNfZ1WcF2j66xTZWYdEAGTmLjPlyzlUeADxJdXCYpV0BeBtxWsK+ZrcZngPk191cUkGNqblcFmgoIwFOAH5TsY7j8FnjOhPYLzQdkPvBZ4sIfdWy3AS+d0H4NSGZNBmTgDaQ99HoYeB+TaU2aDMhS4qtSSvC/QHwFmxQDklmOgAA8leg6n3JR/Rp4ds39NRGQbYku6Smtxu3Ay2vsq4gBySxXQAbeBKws2e+gPAS8l/Hv7086IIcQt2VTAv4l4nZvEwxIZrkDArEM2ZUl+x4uv2C8gUKTCsg2RFePlFbjDuAVY9S1CgOSWRsBGXgz8N+SOgzKamLhmyoLFU0iIAdT/CB1ZvkKsH2FbY/LgGTWZkAAnk56V/ufAc9I3G6dgGwFfILoBjKqTncR/aRyMSCZtR0QiJbh7cCDJfUZlAeBdzC6NRk3IC8uee3M8nXG63FQhwHJrAsBGdiT9PHZPwb2KNlW1YBsCXyM8m7lg3IP7T25NiCZdSkgEC3DO4nfHaMu1FXEzCuzqRKQF5E+3PgSYnhyWwxIZl0LyMBexJriKRftlWw89DQlIPOAs0lrNe4FjpvsIY7FgGTW1YBAPAN5D8VdvIfLSmKWkIFRAdmftFGRG4g5wBY3c4iVGZDMuhyQgWcBvyTtYr4C2I3igOxHDANem7Ct+4gBYV1iQDLrQ0AgWpPTKB6/MlxWUPx8JWW8xgZiANiSLEdWjQHJrC8BGdgH+A1pF/k45QHgtdmOpjoDklnfAgLR2/f9RO/fSYbjMmLAV5cZkMz6GJCB5wLXUj8Yy4kBXn1gQDLrc0AgxrV/iPHmuN0AfJ8Y2NUXBiSzvgdkYF9imYDUYPwHOLmVmtbTy4A4J1H/rCdmV5FK9b0F2Zx6X7G+Rb/W2+hlC9JnfQ7IpH6k/xt4Tea6j8uAZNbHgGwOnE7abd6VpHdf/wbd6VJSxIBk1reAVHlQeBXRibFqp8Qq067mZkAy60tAqnQ1WQW8ZZZtVO3WvmNjRzM+A5JZHwKyN+mdFZdRPpBqMDAqZTjt3cRaKF1iQDLrckDmAO8mrbv7g8Sw3dSJHQ4i/bfJheQfWlvEgGTW1YDsRfqKuz8hhutWVWVyhjvJOzlDEQOSWdcCUmXI7erH/7bKdECzqTq9z3Y191eHAcmsSwHZk2gNUi7Uq4lWZlK2Jn2CuH/R/ARxRQxIZl0IyGbESrurSuozKGuI3yVNde85lG5MMVrEgGTWdkB2J55XpFyQ405DWtW2xApQKa3JP4HDM9RpwIBk1mZATiFt6tG6E1mPaynpyxx8nvqL46QwIJm1EZDdgB+V7Hu4TGIphDrmA58jrTX5B5NbKKeIAcksd0DeSP7FdCbhcOLr1Kh6D5Za27ahehiQzHIFZFfg8pL9DZdrmOxybJNSZbHOvwGHNVAHA5JZjoC8nhjBN+qiegT4AN1pNYpUWe75k4y33HMRA5JZkwHZBfheyT6Gy7U0tyR0ExYCF5B2bLcCL5nQfg1IZk0F5HXEHFMprcYZxOQLfXQksbLUqONcD5xLPJCsw4BkNumALAG+U7Ld4fIHYrKFvtse+Bppx3wL0VFyXEUBaWs5hk1e0VjucfobnUDMZzvqInkU+Aj9bTWKHEWsOJXSmnyc6CxZVdGM90fUrLsKFHWrqDIOYjExA3rKJ+ifgOdPqO5dtANwEWnn4ibgwArbXkBx1/9JrP+uWVzK7Cf8V6Q9uT6OGKY66mJYC5wJbDHZ6nfWMcRKVKPOyzrgHGIg1yhnFGxjBU491ZgTKX7zzqO4K/lWxBp9KZ+U1wEvbOwIumsRxR9AM8v1lC9QeiTx1XS2117cTPUFcaGXtQBXEbco5wz9/bGkLT6zDjiLmDRhmr2amFpo1PlaTvRUHl7ibQ9iUFfZhBOTuoWsAqcy+s1bQ4zRTll4ZgNwA3BAzoPouJ1I/532GHGu70/428tzHsS0mkP6QKWUVuNs0r5TT6PjSbvTl1KWE+vMK4PFxF2VOm/YjcTUOiq3hFjBqs65XkN0x1dGOxGDksZ5wy6l/lPiaXMqxT+8y8o9xDh6tWAusXrTStLerLuIzogaz/6kzxS5nnhi36fJtjdZ2xMzhixj47HiDxCdEE9mvKfB2thSYoz7zBGMa4mHq2cTq/32Ut1pZ/pgEdFtexXxYErN2Zo43+uJH/Tr2q2OJEmSJEmSJEmSJEmSJEmSJEmSJEmSJEmSJEmSJEmSJEmSJEmSJEmSJEmSJEmSJEmSJEmSJEmSJElSBv8DhZGUYnvjcPsAAAAASUVORK5CYII=;rotation=90;" parent="Qdo3hB_uDaMukJDxGay6-1" vertex="1">
          <mxGeometry y="473.8555555555556" width="82.47905121683824" height="71.2962962962963" as="geometry" />
        </mxCell>
        <mxCell id="Qdo3hB_uDaMukJDxGay6-33" value="" style="verticalLabelPosition=bottom;aspect=fixed;html=1;verticalAlign=top;fillColor=strokeColor;align=center;outlineConnect=0;shape=mxgraph.fluid_power.x11820;points=[[0.5,1,0]];rotation=90;" parent="Qdo3hB_uDaMukJDxGay6-1" vertex="1">
          <mxGeometry x="106.04449442164916" y="300.2185185185185" width="39.84" height="59.85" as="geometry" />
        </mxCell>
        <mxCell id="Qdo3hB_uDaMukJDxGay6-34" style="edgeStyle=orthogonalEdgeStyle;rounded=1;orthogonalLoop=1;jettySize=auto;html=1;exitX=0;exitY=0.5;exitDx=0;exitDy=0;entryX=0.5;entryY=1;entryDx=0;entryDy=0;entryPerimeter=0;endArrow=none;startFill=0;fillColor=#60a917;strokeColor=light-dark(#2D7600, #61f505);strokeWidth=5;curved=0;" parent="Qdo3hB_uDaMukJDxGay6-1" source="Qdo3hB_uDaMukJDxGay6-35" target="Qdo3hB_uDaMukJDxGay6-33" edge="1">
          <mxGeometry relative="1" as="geometry">
            <mxPoint x="82.47905121683824" y="331.262962962963" as="targetPoint" />
            <Array as="points">
              <mxPoint x="41.23952560841912" y="330.24444444444447" />
            </Array>
          </mxGeometry>
        </mxCell>
        <mxCell id="Qdo3hB_uDaMukJDxGay6-35" value="" style="shape=image;verticalLabelPosition=bottom;verticalAlign=top;imageAspect=0;image=data:image/png,iVBORw0KGgoAAAANSUhEUgAAAMgAAADICAYAAACtWK6eAAAABHNCSVQICAgIfAhkiAAAAAlwSFlzAAALEwAACxMBAJqcGAAAChVJREFUeJzt3XnsHGUdx/E3pZSrLUdLQUQEEUUNRIWIBIFGkUgkcmggIhGjwQuNGomiYgyJBGI0gLdGPJAjGjV4IAZSDzwRrwByiAcip0BtLS1HW+ofX1aWX38z+8zOzjMz3fcredKk+e3MM7Pz2Wd35jlAkiRJkiRJkiRJkiRJkiRJkiRJkiRJkiRJkiRJkiRJkiRJkiRJkiRJkiRJkiRJkiRJkiRJkiRJkiRJkiRJkiRJkiRJkiRJkiRJkiRJm5TN2q5AB80FTgEOBbZouS5t2wDcCpwP3NtyXdQR3yQuDMsT5XZgUZ2Tqk3DfrR/MXa1nF7jvPbWnLYr0DFPa7sCHTaV58aAPNm1wMNtV6Kjft52BdQNJwEP0f5Xmi6VLzOlN3Sm8qAT7AwcCMxrYd/nA7vO8v/vAu7KXJfHgFuAP2fer1ToZmb/FN+nzUpNK3+DSCUMiFTCgEglDIhUwoBIJQyIVMKASCUMiFTCgEglDIhUwoBIJQyIVGJu2xXIYAGwNbCK6Mau5swFdiR6AS9//F91zELgrcAVxJs03CP2DmLM+Ql0d0KGvvXmPQj4NHAjsI4n6vsI8HvgLGDv1mqn/9scOA1YQdogoNuBE1upabm+BGRf4Keknev1wIXATm1UVLAYuJrxRstdQnwF64o+BOQUooWoeq7vAQ5uob5TbRHRvNcZUnoTMYKwC7ockB2JD5Q653oNcFjuik+rOcAyJjPueh1wDrBl1iPYWFcDcjRwN5M51w8Au+et/nR6G6PfjNXAnaR/JbgBOCDnQczQtYDsAFxUUKfZyv2k/Q78Yc6DmEZbEt9pi96AZcAhPPGsZx7wKuD6ktcMylrgo7QzaUOXAnIUMVHEqPO1grhBsvPQa58JnMeT72zNLIfkOIhpdQLFJ/58imds2Qq4uOS1w+U64AWNHcHsuhCQ7YCvFtRjZrmZ8tu4rwQeLXjtxY3UXkDxRX4NaT0EjgfuK9jGzNbkTPI9N2k7IEcSz4tGnZf1wLmk3QH8cME2VmBvjsb8hdlP+rEVtrEE+HbBdmaWPxJz9zatrYAsBC4o2PfM8leqfT1aQNy9artlnCpFsx/uMMa2TiTurIy6MB4lPg2b7KLTRkCOIB6cjjr+x4BPAduMsY+i51RH1Ky7ChS9iePaBfhuyXaHy++A59XYV5mcAVkAfLFgfzPL34GlNfZ1WcF2j66xTZWYdEAGTmLjPlyzlUeADxJdXCYpV0BeBtxWsK+ZrcZngPk191cUkGNqblcFmgoIwFOAH5TsY7j8FnjOhPYLzQdkPvBZ4sIfdWy3AS+d0H4NSGZNBmTgDaQ99HoYeB+TaU2aDMhS4qtSSvC/QHwFmxQDklmOgAA8leg6n3JR/Rp4ds39NRGQbYku6Smtxu3Ay2vsq4gBySxXQAbeBKws2e+gPAS8l/Hv7086IIcQt2VTAv4l4nZvEwxIZrkDArEM2ZUl+x4uv2C8gUKTCsg2RFePlFbjDuAVY9S1CgOSWRsBGXgz8N+SOgzKamLhmyoLFU0iIAdT/CB1ZvkKsH2FbY/LgGTWZkAAnk56V/ufAc9I3G6dgGwFfILoBjKqTncR/aRyMSCZtR0QiJbh7cCDJfUZlAeBdzC6NRk3IC8uee3M8nXG63FQhwHJrAsBGdiT9PHZPwb2KNlW1YBsCXyM8m7lg3IP7T25NiCZdSkgEC3DO4nfHaMu1FXEzCuzqRKQF5E+3PgSYnhyWwxIZl0LyMBexJriKRftlWw89DQlIPOAs0lrNe4FjpvsIY7FgGTW1YBAPAN5D8VdvIfLSmKWkIFRAdmftFGRG4g5wBY3c4iVGZDMuhyQgWcBvyTtYr4C2I3igOxHDANem7Ct+4gBYV1iQDLrQ0AgWpPTKB6/MlxWUPx8JWW8xgZiANiSLEdWjQHJrC8BGdgH+A1pF/k45QHgtdmOpjoDklnfAgLR2/f9RO/fSYbjMmLAV5cZkMz6GJCB5wLXUj8Yy4kBXn1gQDLrc0AgxrV/iPHmuN0AfJ8Y2NUXBiSzvgdkYF9imYDUYPwHOLmVmtbTy4A4J1H/rCdmV5FK9b0F2Zx6X7G+Rb/W2+hlC9JnfQ7IpH6k/xt4Tea6j8uAZNbHgGwOnE7abd6VpHdf/wbd6VJSxIBk1reAVHlQeBXRibFqp8Qq067mZkAy60tAqnQ1WQW8ZZZtVO3WvmNjRzM+A5JZHwKyN+mdFZdRPpBqMDAqZTjt3cRaKF1iQDLrckDmAO8mrbv7g8Sw3dSJHQ4i/bfJheQfWlvEgGTW1YDsRfqKuz8hhutWVWVyhjvJOzlDEQOSWdcCUmXI7erH/7bKdECzqTq9z3Y191eHAcmsSwHZk2gNUi7Uq4lWZlK2Jn2CuH/R/ARxRQxIZl0IyGbESrurSuozKGuI3yVNde85lG5MMVrEgGTWdkB2J55XpFyQ405DWtW2xApQKa3JP4HDM9RpwIBk1mZATiFt6tG6E1mPaynpyxx8nvqL46QwIJm1EZDdgB+V7Hu4TGIphDrmA58jrTX5B5NbKKeIAcksd0DeSP7FdCbhcOLr1Kh6D5Za27ahehiQzHIFZFfg8pL9DZdrmOxybJNSZbHOvwGHNVAHA5JZjoC8nhjBN+qiegT4AN1pNYpUWe75k4y33HMRA5JZkwHZBfheyT6Gy7U0tyR0ExYCF5B2bLcCL5nQfg1IZk0F5HXEHFMprcYZxOQLfXQksbLUqONcD5xLPJCsw4BkNumALAG+U7Ld4fIHYrKFvtse+Bppx3wL0VFyXEUBaWs5hk1e0VjucfobnUDMZzvqInkU+Aj9bTWKHEWsOJXSmnyc6CxZVdGM90fUrLsKFHWrqDIOYjExA3rKJ+ifgOdPqO5dtANwEWnn4ibgwArbXkBx1/9JrP+uWVzK7Cf8V6Q9uT6OGKY66mJYC5wJbDHZ6nfWMcRKVKPOyzrgHGIg1yhnFGxjBU491ZgTKX7zzqO4K/lWxBp9KZ+U1wEvbOwIumsRxR9AM8v1lC9QeiTx1XS2117cTPUFcaGXtQBXEbco5wz9/bGkLT6zDjiLmDRhmr2amFpo1PlaTvRUHl7ibQ9iUFfZhBOTuoWsAqcy+s1bQ4zRTll4ZgNwA3BAzoPouJ1I/532GHGu70/428tzHsS0mkP6QKWUVuNs0r5TT6PjSbvTl1KWE+vMK4PFxF2VOm/YjcTUOiq3hFjBqs65XkN0x1dGOxGDksZ5wy6l/lPiaXMqxT+8y8o9xDh6tWAusXrTStLerLuIzogaz/6kzxS5nnhi36fJtjdZ2xMzhixj47HiDxCdEE9mvKfB2thSYoz7zBGMa4mHq2cTq/32Ut1pZ/pgEdFtexXxYErN2Zo43+uJH/Tr2q2OJEmSJEmSJEmSJEmSJEmSJEmSJEmSJEmSJEmSJEmSJEmSJEmSJEmSJEmSJEmSJEmSJEmSJEmSJElSBv8DhZGUYnvjcPsAAAAASUVORK5CYII=;rotation=90;" parent="Qdo3hB_uDaMukJDxGay6-1" vertex="1">
          <mxGeometry y="351.6333333333334" width="82.47905121683824" height="71.2962962962963" as="geometry" />
        </mxCell>
        <mxCell id="Qdo3hB_uDaMukJDxGay6-37" value="" style="shape=image;verticalLabelPosition=bottom;verticalAlign=top;imageAspect=0;image=data:image/png,iVBORw0KGgoAAAANSUhEUgAAAgAAAAFVCAYAAACZ01cjAAAABmJLR0QA/wD/AP+gvaeTAAAaBklEQVR4nO3deZQdZZ3G8W9CSNhCWBLCEnYQZN8XQTYJyiI7jGcg0KMox+UA47ig4xxg9CAoyjbqgCIYGDdUGMERERBBZBEEFMOmsgiDsjvskNDzx5uWTtvp7ntvVf3qrfp+zqkjeMi9z73pvvXc9633LZAkSZIkSZIkSZIkSZIkSZIkSZIkSZIkSZIkSZIkSZIkSZIkSZIkSZIkSZIkSZIkSZIkSZIkSZIkSZIkSZIkSZIkSZIkSZIkSZIkSZIkSZIkSZIkSZIkSZIkSZIkSZIkSZIkSZIkSZIkSZIkSZIkSZIkSZIkSRWYEB1AktQc46IDaAGrAjsDmwIbAusDywBLA4sArwN/nX/MAe4CbgWuBp4OyCtJkrq0AXAa8ADQ3+UxF7gR+BCpMEiSpJraE7iO7k/6CzteBM4BZlT3UiRJ0mh2BG6h+BP/cEXgFGDxal6WJEkaznLAeaR5/LJP/oOPu4GtKnh9kiRpiG2Bh6j2xD/4eBU4uvRXKUmS/uYo4BXiTv6Djy8C48t9uZIk6RTiT/pDj29gCZAkqTQfJf5kv7Dj9BJftyRJrTWL6i/26/Q4rrRXL0lSC21CWoIXfYIf7XiVtCRRkiT1aDJwP/En97EeDwFLlfJOSJJqbZHoAA1zMrBPdIgOTJn/v9eEppAkKWPrk4bVo7/Vd3q8AqxVwvshSVIr/Ij4k3m3xwXFvx2SJDXfZsSfxHs55gLrFv6uSJJqa0J0gIb4SHSAHi0CvBf4WHQQSdlbBji0oMe6iLSqSqqlZanPVr+9HH8BFi34vZHUPutT3OfStIqzt4pbwvbuQGBidIgCrADsHh1CUvb6owNobCwAvTskOkCB9ooOICl7FoBMWAB6MxF4a3SIAu0ZHUCSVA0LQG+2BpaIDlGgtYHp0SEkZc0RgExYAHqzZXSAEmwSHUBS1iwAmbAA9KaJa+ctAJJ6YQHIhAWgN+tEByjBjOgAkqTyWQB608Q1ql4DIKkXjgBkwgLQmyWjA5Rg+egAkrJmAciEBaA3TVoBMMCfCUlqAT/se/NydIAS2N4l9cLPkExYAHrzfHSAEqxO2hZYkrphAciEBaA3j0cHKMGbgDuAXaODSMqSBSATFoDe3B0doCQrAVcDZ9KMGx1Jqo4FIBMWgN7MiQ5QonHAMcAVwMrBWSRJBbMA9Obn0QEqsCup6DTproeSyuMIgFrjUdIPfNOPecDJwIRi3jZJDTWD4j53mrjZWm04AtC7b0cHqMh44BPATTRzC2RJxXAEQK2xBfHfzqs+ngT2KeLNk9Q4K+MIgFrk58SflCOO2TRzN0RJ3VsJC4Ba5ADiT8ZRx83AGj2/g5KawgKg1rmO+JNx1PF/wGG9v4WSGmBFLABqmW2A14g/GUceZwOTen0jJWVtOhYAtdDHiD8JRx93Axv3+kZKytYKWADUQuOBK4k/CUcfLwLH9vheSsrTNCwAaqkZwCPEn4TrcJwDLN7b2ykpMxYAtdo6wF+IPwHX4bgH2LS3t1NSRqZiAVDL7QQ8T/wJuA7Hc8ARvb2dkjJhAZCAjYCHiD8B1+X4AbBMT++opLpbHguABMBqpP3zo0++c4FPAvcF55hDKkaSmmk5LADS3ywKXEDsyf/d87NMBv4rMEs/aZXAUV2/m5LqbFksANIC+og52f6a4dflHwQ8G5Rp4LiU9G1BUnMsgwVAWkAf1Z5cHwU+zMjL8DYCfldxrqHHfcDmY30TJdWeBUAaoo/yT6avk+5MeCRj35J3SeD8CrKNdLwEfHCMeSXV2xQsANIC+ijv5HkF8CF6uyvfLNJyvcgi8D1cJSDlzgIgDdFHsSfLs4G9Sd/gi7I+cGfBOTs9/ghsXeBrklStpbEASAvoo9gT5aol5ZwAnAjMKzhvJ8fc+RnGl/QaJZVnMhYAaQF95FEABrwTeLLgzJ0eVwMrlfw6JRVrKSwAWfAblhbmMmBb4LbADLuRNlHaITCDJDWSBUAj+QOwHXASaYVBhNWA64EzSRsqSaq3/ugAUt30kdcUwFBvAx4rKHu3x03AmmW/UEk9WQKnALLgCIDG6mrSbX2vDMywLXA7cEhgBkkjcwQgExYAdeJxYC/SlMC8oAxTgO8C5zD2zY4kVccCIA3RR95TAEPtQtpuOHJK4DZg3ZJfp6TOLIZTAFlwBEDduhbYDPhxYIYtSCXg8MAMkhbkCEAmLADqxROk3QiPA14LyjAZuBCYTVp/LCmWBUAaoo9mTQEMtQ1pG9/IKYF7SKMSkuJMxCmALDgCoKLcQtrD//LADOuRlgoeC4wLzCG1mSMAmbAAqEhPAfuSpgReDcowCTgDuARYLiiD1GYWgExYAFS0ftKufTuQdhKMsh9wB7BjYAapjSwAmbAAqCy3kq7S/05ghlWBn5HuLLhIYA5JUov10eyLAEdyBPAisRcIXgOsXPYLlcR4vAgwC44AqAqzSVMC9wdm2JU0JbBXYAapDZwCyIQFQFW5HdgS+GZghmmkVQpnkpYqSZJUuj7aOwUw1BHA88ROCdwCrF32C5VayimADDgCoAizSXsG/DYww9bAr4F3BWaQpDAWAEW5m3R733MDMywNfItUSJYIzCE1jdcBSIP04RTAwhwBPEfslMAcYOOyX6jUEvNwCqD2HAFQHcwGtgLuDMzwZuBm0jbCktR4FgDVxb3AdsBZgRkWJ20j/D1gmcAcUu6cApAG6cMpgLE6EHiG2CmBB4HtS36dUlO9hlMAtecIgOroB6Tb+t4UmGF14DrSNsL+nkiSutaHIwCdmkTatOd1YkcDrgRWLPm1Sk3yKo4A1J7fbFRnr5AuyjsAeDowx0zSNsJ7BGaQctIfHUCjswAoB/9NmhK4ITDDdOAK0ojEooE5pBxYADJgAVAu/gTsApxEmhKIMA44BrgKmBGUQZKUmT68BqAouwN/Jva6gCeBd5b9QqVMvYTXANSeIwDK0VWkjYOuD8ywPGlq4kzSxYqS3uAUQAYsAMrVI8CupCmBeUEZBqYEfgmsG5RBqiMLQAYsAMrZPNI6/ZnAY4E5tgBuAw4PzCBJHbEAqAl+Rlol8JPADJOBC0n3NVgqMIdUB44AZMACoKZ4HNgTOI60DWmUWcCtpEIitZUFIAMWADVJP+mivN2BRwNzrAfciHcWlFRjFgA10XWkb+D/E5hhMdKdBS8BlgvMIUVwBCADFgA11ZPAPqQpgVcDc+wP3A7sEJhBqpoFIAMWADXZwJTAjsAfA3OsBlyLdxZUe1gAMuCHkdrgV6SlehcHZpgAnAD8FFgpMIckARYAtcdfgUOBo0l3GYyyG3AnacWC1FSOAGTAAqC2ORd4C/D7wAzTgB/hnQXVXBaADFgA1Ea/Jk0JfCsww8A2wjcAawXmkNRSFgC11XPAYcCHiV0lsDVwE7BXYAapaI4AZMACoDbrB04HNgfuCswxMCUwG1giMIdUFAtABiwAEswBtgcuCs4xi7RiYePgHFKvLAAZsABIyfOkE/CRwAuBOTYAbsZthCWVzAIgLWg2sBXwm8AMi5O2Ef4esExgDqlbjgBkwAIg/b17gG2Bs4JzHATcQZqekHJiAciABUAa3sukYfiDgWcDc6xOurnRifj7KqlAfqBII/s+aTTg9sAMA9sI/wRYMTCHNFaOAGTAAiCN7j7SMHz0lMDupG2E3x6cQxqNBSADFgBpbF4hTQkcADwTmGMF4Me4jbDqzQKQAQuA1JlLgc2AGwMzDGwj/AtgzcAckjJmAZA69zCwE3AS8Hpgjm1I1yYcGphBGo4jABmwAEjdmUu6Mn9/4KnAHFOA7+A2wqoXC0AGLABSby4jTQn8IjjHLOAWYKPgHBJYALJgAZB69wiwK/FTAhuSSoDbCEtSjfSRWnFRx6qVptdY7QY8RrF/190cF+M2worzMMX8HE+rOnibOAIgFesaYFPgyuAcB5MuENwuOIfaySmADFgApOI9DrwDOB6YF5hjDdxGWJLC9eEUQBvtAjxK/JTAlbiNsKrzIE4B1J7fCqRyXUtaJfDj4BwzSXcW3CM4h9rBKYAMWACk8j0B7A0cB7wWmGM6biOsalgAMmABkKrRTzrx7gg8EJhjPGkb4etwG2Gp1SwAUrVuAbYGLg/OsR1plcAhwTnUTI4AZMACIFXvKWA/4FOkLYWjTAG+DZyCUwKDebvl3lkApEH6cBWA/t5WwO+JXyVwG/Cmkl9rDmaR3o89o4NkrqifaVcBqBH6sABoeEuTvolHl4DnSCfAtlqP9B70k7Z3XjY2TtbuxwIg/U0fFgCN7AjgReKLwGxgqZJfa91MBG5lwffhvNBEebsPC0Dtjevxz2+CQ2VjtSXFXnC1GvCnAh9P9bAd8C3SLn6R7gLeBfwuOEdVPkvauXGwftK+CVdVHyd791LMlNKdxF4nk7MXgZ3KfIJ3E/9tpa2HIwDNNRm4iPifsZdJdxbs9YtC3e1LuovjcO/BozgV0I17if/5bfvx3Gh/Sa4CkOrnOeBw4EjghcAck4AzgEuB5QNzlGll4GssvOSsDHyxujiN0R8dQKOzAEj1NZu0Z8Bvg3PsS9pGuNThxACLAN9k9HnmPmD/0tM0iwUgAxYAqd7uBrYFzgrOMYN0q+MTSSfOJjge2HmM/+2XgeVKzNI0FoAW8BqAuMNrANpnFm8sU4s8rgVWKfellm4H0n0ZOnnds0OS5mkO8T+nbT+8BkBqkAtJGwfdEZxj5/kZ9gnO0a3lSfsuTOjwz80CDiw+TiP1RwfQ6CwAUl7uBbYnfkpgKvBD0g2OJgVn6dS5pCmNbnwJpwLGwgKQAQuAlJ+B5XkHAs8G5hhHurPgL4F1A3N04v309i1+ReLLl1QIC4CUr0uAzYCbgnNsQbqXwOHBOUazKcUs6TsMOKiAx2kyRwAyYAGQ8vYQaXneqcR+6E4mXaNQ122ElyAt+VusoMf7CrBCQY/VRBaADFgApPy9RlrStj/wdHCWWaQ99TcLzjHUGcAGBT7eNNL1DxqeBSADFgCpOX5IOvHeEJxjPdK0RF22Ef5H4L0lPO67gINLeFypEhYAqVn+BOwCnETa3z7KwDbClxB71fyapE18yvIVYHqJj58rRwAyYAGQmmcuace+twN/jo3CfqQ9A94a8NwTge8AU0p8jqnA2SU+fq4sABmwAEjNdRVp46DrgnOsSsw2wv9OupdC2Q4BDq3geaRCWQCkZnsU2I00JTAvMMcE4ATgp6Q77JVtJvDRCp5nwJdwKmAwRwAyYAGQmm8e6dv3TOCx2CjsCtwJ7F3ic6wEXES1n29TgXMqfL66swBkwAIgtcfPSJvhXBGcYypwGWkZ3cSCH3s8cAExa/T3I60MkAUgCxYAqV2eAPYCjiPtHxBlYBvhG4B1CnzcfwH2KPDxOvUfpO2Cpdrr9G5YQz0AXFxEkIZblLRJi1QH/aRv33NIu/dFzl1vBdwMvAe4tMfH2hz4dM+JerM86b39h+Ac0YocATgbuL7Ax2uLudEBlEyh+Hs9r1rpK1BTTQUuJ/7e5f2kbYSX7PJ1TAH+UIPXMHAc1uXraIpbKO69rPs9JqQRWQBUZ+NIu/a9QvyJ827SdQqd+m4Nsg8+ngFW6eJ1NIUFQJrPAqAcbE09vkW/RCokY/WeGmQe7risg9fQNDdjAZAAC4DyMYW0e170ybOfsW0j/GbghRpkXdgxa5T8TXUTFgAJsAAoP+8DXib+BPoQsONCMi4O/LYGGUc6ngVmjPZmN9CNWABqz2WAkoZzLvAW4PfBOVYj7V9wIn//efV5YKOqA3VoCvCf0SEkxXEEQLmaDHyT+G/S/cDVvLGN8AE1yNPJ0dfJm94Av8QRAAmwAChv40gbB9VhlcAjpDX2j9cgSyfHk7Rrg6AbsADUnlMAkkbTD5xB2mjnruAsqwDfBqYF5+jU8qR9DsZFB6lIf3QAjc4CIGms5gDbAF+NDpKpmcA/RYeQBlgAJHXiJdIKgSNJy+/UmdNJFzY2nSMAGbAAVMNfBjXNbNI+/r+JDpKZpYGv0/ypAD/zMmABkNSte4BtgbOig2TmbcBR0SEkC4CkXrxM2rb3YNKmNxqb02j2VIAjABmwAEgqwvdJFwjeHh0kE0sD59PcqQALQAYsAJKKcj+wPWlKwBPA6HYjXVDZRP79Z8ACIKlIr5CmBA4k3RJXI/sCsHZ0CLWTBUBSGS4FNiNtCauFW5K0r0LTpgIcAciABUBSWR4GdgZOAl4PzlJnuwLvjw5RMAtABiwAkso0l3Qnv/2Ap2Kj1NrngHWiQ6hdLACSqnA5aUrg+uggNbUkcAHN+Ux2BCADTflhk1R/j5CufHdKYHg7AB+IDlEQC0AGLADV8JdBSgamBGYCj8VGqaVTgXWjQxTAz7wMWAAkRbiGNCVwZXSQmlmCZk0FqMb8IZMU5XFgb9K3Xr3hLcDR0SF65AhABiwAkiLNBf4SHaKGTiPvqQALQAYsAJIibQx8NjpEDS0BfANYJDpIlywAGbAASIoyEZgNTIoOUlPbA8dEh1BzWQAkRTmBdCGgFu5kYIPoEF1wBCADFgBJEXYCjo8OkYHFgPPIbyrAApABC4Ckqk0GzsfPn7HaDvjn6BBqHn8BJVXtNGCt6BCZ+QywYXSIDjgCkAELgKQq7QO8LzpEhiaR11SABSADFgBJVZlOOompO9sCH4kOMUYWgAxYAKrhL4ME5wArRIfI3EnARtEh1AwWAElVOALYLzpEA0wibRC0aHSQUfilJwMWAEllWx04KzpEg2xB/acCLAAZsABIKtMiwIXAlOggDXMCaRtlqWsWAEllOhZ4a3SIBqr7VIAjABmwAEgqy8akrWxVjs2Bj0eHWAgLQAYsAJLK4I1+qvFvwCbRIYZhAciABUBSGbzRTzUmUu+pANWYBUBS0bzRT7U2Az4RHWIIRwAyYAGQVKTJwAX42VK1fwO2jA4xiAUgA/6SSirSacCa0SFaaAJpm+WJ0UGUDwuApKJ4o59YmwKfjA4xnyMAGbAAVMNfBjXddODr0SHEvwJbRYfAz7wsWAAkFeEcYFp0CDGBtCpgseAcFoAMWAAk9cob/dTLBqSRAGlEFgBJvfBGP/V0PLB14PM7ApABC4Ckbi0CXIQ3+qmj6KkAC0AGLACSunUssGN0CC3Um0n7A0SwAGTAAiCpG5vgjX5y8DFgm+gQqicLgKRODew/741+6i9qKsARgAxYACR16kS80U9O1if9nVXJApABC4CkTuxEfe9Br4X7KF6voSEsAJLGyhv95Gs88DVg8YqezxGADPiLLGms1gfuA16KDqKurAd8qqLnsgBkwAJQDX8Z1AS/At5BGgnYCjgJuA14PTKUOnI81UwF+JmXAQuApE7NI534TyQVgRWBQ4Fzgf+Ni6UxqHoqQDVmAZDUqyeAi4GjgVVJpeB44Crg1cBcGt56wGdKfg5HADJgAZBUpNdJowOnAjOB5YB9SaMDDwXm0oKOI63oKIsFIAMWAEllegG4jDQ6sAaw9vx/vhx4OS5W640HzgeWig6iOBYASVX6I2k04J2k0YGZpNGC2yJDtdRawKdLemxHADIwITqApNZ6iXSdwFXz/30NYA9gd1IxWCYmVqscA1wK/Lzgx7UAZMARAEl18SBpdOBQYCouNaxCWVMBFoAMWAAk1ZFLDauzJt7ZsZUsAJJyMHip4SrARrjUsEgfBHYp8PEcAciABUBSjn7HgksNZwJn4VLDbg1MBUwu6PEsABmwAFTDXwapPC+QRgKOZcGlhhcDz8fFys4awGcLeiw/8zJgAZDUNANLDQ8FVsClhp34AGklhlrAZYCSmmzoUsMVSSe4fXCp4XDGkcrTxsBzPTyOIwAZcARAUpv8GZjNgksNjwduwKWGA1YHPtfjY1gAMmABkNRWA0sNTyXdInc6LjUccDTw9ugQKpcFQJKSJ3Gp4YBxwHl0P0XiCEAGLACSNLy2LzVche6nAiwAGbAASNLo2rrU8Chgzy7+nAUgAxYASercSEsNm3TyGwd8FVg2OoiKZwGQpN4MLDU8nrSqYGXgSNLowLOBuYqyCvD5Dv9Mk0pQY1kAJKlYTVxq+B46mwqwAGTAAiBJ5RlpqeGjgbm68TWcCmgUC0A1bMOSYMGlhjPIa6nhysAXx/jf+pknzbcY6ReiyGPVSl+BpLItCewOnAk8SPGfGUUd+4/htZxe4PMdPobnUxccAZCkehhpqWEv+/IX7cukfRFG4ghABiwAklRPg5caTqc+Sw1XIn3DlzQGTgFIKtKKwBHAd4FniJkKOGCEfF8o8HmcAiiJIwCSlJ86LDX8EgufCnAKIAMWAEnKW9RSw5VI90aQNAKnACRF2RD4OPBT4BWK/yw6aJjn/HyBj+8UgLJmAZBUB4OXGj5AMZ9Fj5PuhzDY5wp6bAtAiZwCkKT2GLzUcE2KWWo4DThjyP/nNQDSfI4ASKq7xUijA6cAt5IuJuzkM+ngQY91aod/1hEANdYkLACS8jJ4qeHTjP6Z9ARvTAWcMob/3gIQzCkASdJwBi81nMboSw2nAmfP/2enAKT5HAGQ1CRTgUOAc4BHWPCz6RDgZIr7rHMEQFmzAEhqssFLDR8FzsMCIAEWAEntMZU0dWABqDmvAZAkFelJ4OHoEBqdBUCSpBayAEiSiuYqgAxYACRJRbMAZMACIEkqmgUgAxYASZJayAIgSSqaIwAZmBAdoCXmkrbQLNKzBT+eJKlFxkUHkCQ1zuKkuwsW4QXg1YIeS5IkSZIkSZIkSZIkSZIkSZIkSZIkSZIkSZIkSZIkSZIkSZIkSZIkSZIkSZIkSZIkSZIkSZIkSZIkSZIkSZIkSZIkSZIkSZIkSZIkSZIkSZIkSZIkSZIkSZIkSZIkSZIkSZIkSZIkSZIkSZIkSZIkSZIkSZIkSZIkSZIkSZIkSZIkSZIkSZIkSZIkSZIkSZIkSZKkzv0/5hxqzKl1xLwAAAAASUVORK5CYII=;rotation=90;" parent="Qdo3hB_uDaMukJDxGay6-1" vertex="1">
          <mxGeometry x="471.30886409621854" y="71.2962962962963" width="61.27015233250841" height="35.64814814814815" as="geometry" />
        </mxCell>
        <mxCell id="Qdo3hB_uDaMukJDxGay6-38" style="edgeStyle=orthogonalEdgeStyle;rounded=1;orthogonalLoop=1;jettySize=auto;html=1;entryX=0;entryY=0.5;entryDx=0;entryDy=0;endArrow=none;startFill=0;strokeWidth=5;fillColor=#60a917;strokeColor=light-dark(#2D7600, #63fb04);curved=0;" parent="Qdo3hB_uDaMukJDxGay6-1" source="Qdo3hB_uDaMukJDxGay6-39" target="Qdo3hB_uDaMukJDxGay6-2" edge="1">
          <mxGeometry relative="1" as="geometry" />
        </mxCell>
        <mxCell id="Qdo3hB_uDaMukJDxGay6-39" value="" style="verticalLabelPosition=bottom;align=center;html=1;verticalAlign=top;pointerEvents=1;shape=mxgraph.pid2valves.valve;valveType=gate;actuator=solenoid;" parent="Qdo3hB_uDaMukJDxGay6-1" vertex="1">
          <mxGeometry x="329.916204867353" y="151.75925925925927" width="35.348164807216385" height="30.555555555555557" as="geometry" />
        </mxCell>
        <mxCell id="Qdo3hB_uDaMukJDxGay6-40" style="edgeStyle=orthogonalEdgeStyle;rounded=1;orthogonalLoop=1;jettySize=auto;html=1;endArrow=none;startFill=0;strokeWidth=5;curved=0;fillColor=#60a917;strokeColor=light-dark(#2D7600, #5ef401);" parent="Qdo3hB_uDaMukJDxGay6-1" source="Qdo3hB_uDaMukJDxGay6-44" target="Qdo3hB_uDaMukJDxGay6-37" edge="1">
          <mxGeometry relative="1" as="geometry" />
        </mxCell>
        <mxCell id="Qdo3hB_uDaMukJDxGay6-41" style="edgeStyle=orthogonalEdgeStyle;rounded=1;orthogonalLoop=1;jettySize=auto;html=1;endArrow=none;startFill=0;strokeWidth=5;fillColor=#60a917;strokeColor=light-dark(#2D7600, #63fb04);curved=0;" parent="Qdo3hB_uDaMukJDxGay6-1" source="Qdo3hB_uDaMukJDxGay6-44" target="Qdo3hB_uDaMukJDxGay6-35" edge="1">
          <mxGeometry relative="1" as="geometry" />
        </mxCell>
        <mxCell id="Qdo3hB_uDaMukJDxGay6-42" style="edgeStyle=orthogonalEdgeStyle;rounded=1;orthogonalLoop=1;jettySize=auto;html=1;strokeWidth=5;entryX=0;entryY=0.5;entryDx=0;entryDy=0;endArrow=none;startFill=0;curved=0;fillColor=#60a917;strokeColor=light-dark(#2D7600, #63fb04);" parent="Qdo3hB_uDaMukJDxGay6-1" target="Qdo3hB_uDaMukJDxGay6-46" edge="1">
          <mxGeometry relative="1" as="geometry">
            <mxPoint x="223.8717104457038" y="968.5512567657272" as="targetPoint" />
            <Array as="points">
              <mxPoint x="223.8717104457038" y="1320" />
              <mxPoint x="553.7879153130567" y="1320" />
            </Array>
            <mxPoint x="226.07330181959463" y="670" as="sourcePoint" />
          </mxGeometry>
        </mxCell>
        <mxCell id="Qdo3hB_uDaMukJDxGay6-44" value="" style="verticalLabelPosition=bottom;align=center;html=1;verticalAlign=top;pointerEvents=1;shape=mxgraph.pid2valves.valve;valveType=gate;actuator=solenoid;" parent="Qdo3hB_uDaMukJDxGay6-1" vertex="1">
          <mxGeometry x="329.916204867353" width="35.348164807216385" height="30.555555555555557" as="geometry" />
        </mxCell>
        <mxCell id="Qdo3hB_uDaMukJDxGay6-46" value="" style="shape=image;verticalLabelPosition=bottom;verticalAlign=top;imageAspect=0;image=data:image/png,iVBORw0KGgoAAAANSUhEUgAAAgAAAAFVCAYAAACZ01cjAAAABmJLR0QA/wD/AP+gvaeTAAAaBklEQVR4nO3deZQdZZ3G8W9CSNhCWBLCEnYQZN8XQTYJyiI7jGcg0KMox+UA47ig4xxg9CAoyjbqgCIYGDdUGMERERBBZBEEFMOmsgiDsjvskNDzx5uWTtvp7ntvVf3qrfp+zqkjeMi9z73pvvXc9633LZAkSZIkSZIkSZIkSZIkSZIkSZIkSZIkSZIkSZIkSZIkSZIkSZIkSZIkSZIkSZIkSZIkSZIkSZIkSZIkSZIkSZIkSZIkSZIkSZIkSZIkSZIkSZIkSZIkSZIkSZIkSZIkSZIkSZIkSZIkSZIkSZIkSZIkSZIkSRWYEB1AktQc46IDaAGrAjsDmwIbAusDywBLA4sArwN/nX/MAe4CbgWuBp4OyCtJkrq0AXAa8ADQ3+UxF7gR+BCpMEiSpJraE7iO7k/6CzteBM4BZlT3UiRJ0mh2BG6h+BP/cEXgFGDxal6WJEkaznLAeaR5/LJP/oOPu4GtKnh9kiRpiG2Bh6j2xD/4eBU4uvRXKUmS/uYo4BXiTv6Djy8C48t9uZIk6RTiT/pDj29gCZAkqTQfJf5kv7Dj9BJftyRJrTWL6i/26/Q4rrRXL0lSC21CWoIXfYIf7XiVtCRRkiT1aDJwP/En97EeDwFLlfJOSJJqbZHoAA1zMrBPdIgOTJn/v9eEppAkKWPrk4bVo7/Vd3q8AqxVwvshSVIr/Ij4k3m3xwXFvx2SJDXfZsSfxHs55gLrFv6uSJJqa0J0gIb4SHSAHi0CvBf4WHQQSdlbBji0oMe6iLSqSqqlZanPVr+9HH8BFi34vZHUPutT3OfStIqzt4pbwvbuQGBidIgCrADsHh1CUvb6owNobCwAvTskOkCB9ooOICl7FoBMWAB6MxF4a3SIAu0ZHUCSVA0LQG+2BpaIDlGgtYHp0SEkZc0RgExYAHqzZXSAEmwSHUBS1iwAmbAA9KaJa+ctAJJ6YQHIhAWgN+tEByjBjOgAkqTyWQB608Q1ql4DIKkXjgBkwgLQmyWjA5Rg+egAkrJmAciEBaA3TVoBMMCfCUlqAT/se/NydIAS2N4l9cLPkExYAHrzfHSAEqxO2hZYkrphAciEBaA3j0cHKMGbgDuAXaODSMqSBSATFoDe3B0doCQrAVcDZ9KMGx1Jqo4FIBMWgN7MiQ5QonHAMcAVwMrBWSRJBbMA9Obn0QEqsCup6DTproeSyuMIgFrjUdIPfNOPecDJwIRi3jZJDTWD4j53mrjZWm04AtC7b0cHqMh44BPATTRzC2RJxXAEQK2xBfHfzqs+ngT2KeLNk9Q4K+MIgFrk58SflCOO2TRzN0RJ3VsJC4Ba5ADiT8ZRx83AGj2/g5KawgKg1rmO+JNx1PF/wGG9v4WSGmBFLABqmW2A14g/GUceZwOTen0jJWVtOhYAtdDHiD8JRx93Axv3+kZKytYKWADUQuOBK4k/CUcfLwLH9vheSsrTNCwAaqkZwCPEn4TrcJwDLN7b2ykpMxYAtdo6wF+IPwHX4bgH2LS3t1NSRqZiAVDL7QQ8T/wJuA7Hc8ARvb2dkjJhAZCAjYCHiD8B1+X4AbBMT++opLpbHguABMBqpP3zo0++c4FPAvcF55hDKkaSmmk5LADS3ywKXEDsyf/d87NMBv4rMEs/aZXAUV2/m5LqbFksANIC+og52f6a4dflHwQ8G5Rp4LiU9G1BUnMsgwVAWkAf1Z5cHwU+zMjL8DYCfldxrqHHfcDmY30TJdWeBUAaoo/yT6avk+5MeCRj35J3SeD8CrKNdLwEfHCMeSXV2xQsANIC+ijv5HkF8CF6uyvfLNJyvcgi8D1cJSDlzgIgDdFHsSfLs4G9Sd/gi7I+cGfBOTs9/ghsXeBrklStpbEASAvoo9gT5aol5ZwAnAjMKzhvJ8fc+RnGl/QaJZVnMhYAaQF95FEABrwTeLLgzJ0eVwMrlfw6JRVrKSwAWfAblhbmMmBb4LbADLuRNlHaITCDJDWSBUAj+QOwHXASaYVBhNWA64EzSRsqSaq3/ugAUt30kdcUwFBvAx4rKHu3x03AmmW/UEk9WQKnALLgCIDG6mrSbX2vDMywLXA7cEhgBkkjcwQgExYAdeJxYC/SlMC8oAxTgO8C5zD2zY4kVccCIA3RR95TAEPtQtpuOHJK4DZg3ZJfp6TOLIZTAFlwBEDduhbYDPhxYIYtSCXg8MAMkhbkCEAmLADqxROk3QiPA14LyjAZuBCYTVp/LCmWBUAaoo9mTQEMtQ1pG9/IKYF7SKMSkuJMxCmALDgCoKLcQtrD//LADOuRlgoeC4wLzCG1mSMAmbAAqEhPAfuSpgReDcowCTgDuARYLiiD1GYWgExYAFS0ftKufTuQdhKMsh9wB7BjYAapjSwAmbAAqCy3kq7S/05ghlWBn5HuLLhIYA5JUov10eyLAEdyBPAisRcIXgOsXPYLlcR4vAgwC44AqAqzSVMC9wdm2JU0JbBXYAapDZwCyIQFQFW5HdgS+GZghmmkVQpnkpYqSZJUuj7aOwUw1BHA88ROCdwCrF32C5VayimADDgCoAizSXsG/DYww9bAr4F3BWaQpDAWAEW5m3R733MDMywNfItUSJYIzCE1jdcBSIP04RTAwhwBPEfslMAcYOOyX6jUEvNwCqD2HAFQHcwGtgLuDMzwZuBm0jbCktR4FgDVxb3AdsBZgRkWJ20j/D1gmcAcUu6cApAG6cMpgLE6EHiG2CmBB4HtS36dUlO9hlMAtecIgOroB6Tb+t4UmGF14DrSNsL+nkiSutaHIwCdmkTatOd1YkcDrgRWLPm1Sk3yKo4A1J7fbFRnr5AuyjsAeDowx0zSNsJ7BGaQctIfHUCjswAoB/9NmhK4ITDDdOAK0ojEooE5pBxYADJgAVAu/gTsApxEmhKIMA44BrgKmBGUQZKUmT68BqAouwN/Jva6gCeBd5b9QqVMvYTXANSeIwDK0VWkjYOuD8ywPGlq4kzSxYqS3uAUQAYsAMrVI8CupCmBeUEZBqYEfgmsG5RBqiMLQAYsAMrZPNI6/ZnAY4E5tgBuAw4PzCBJHbEAqAl+Rlol8JPADJOBC0n3NVgqMIdUB44AZMACoKZ4HNgTOI60DWmUWcCtpEIitZUFIAMWADVJP+mivN2BRwNzrAfciHcWlFRjFgA10XWkb+D/E5hhMdKdBS8BlgvMIUVwBCADFgA11ZPAPqQpgVcDc+wP3A7sEJhBqpoFIAMWADXZwJTAjsAfA3OsBlyLdxZUe1gAMuCHkdrgV6SlehcHZpgAnAD8FFgpMIckARYAtcdfgUOBo0l3GYyyG3AnacWC1FSOAGTAAqC2ORd4C/D7wAzTgB/hnQXVXBaADFgA1Ea/Jk0JfCsww8A2wjcAawXmkNRSFgC11XPAYcCHiV0lsDVwE7BXYAapaI4AZMACoDbrB04HNgfuCswxMCUwG1giMIdUFAtABiwAEswBtgcuCs4xi7RiYePgHFKvLAAZsABIyfOkE/CRwAuBOTYAbsZthCWVzAIgLWg2sBXwm8AMi5O2Ef4esExgDqlbjgBkwAIg/b17gG2Bs4JzHATcQZqekHJiAciABUAa3sukYfiDgWcDc6xOurnRifj7KqlAfqBII/s+aTTg9sAMA9sI/wRYMTCHNFaOAGTAAiCN7j7SMHz0lMDupG2E3x6cQxqNBSADFgBpbF4hTQkcADwTmGMF4Me4jbDqzQKQAQuA1JlLgc2AGwMzDGwj/AtgzcAckjJmAZA69zCwE3AS8Hpgjm1I1yYcGphBGo4jABmwAEjdmUu6Mn9/4KnAHFOA7+A2wqoXC0AGLABSby4jTQn8IjjHLOAWYKPgHBJYALJgAZB69wiwK/FTAhuSSoDbCEtSjfSRWnFRx6qVptdY7QY8RrF/190cF+M2worzMMX8HE+rOnibOAIgFesaYFPgyuAcB5MuENwuOIfaySmADFgApOI9DrwDOB6YF5hjDdxGWJLC9eEUQBvtAjxK/JTAlbiNsKrzIE4B1J7fCqRyXUtaJfDj4BwzSXcW3CM4h9rBKYAMWACk8j0B7A0cB7wWmGM6biOsalgAMmABkKrRTzrx7gg8EJhjPGkb4etwG2Gp1SwAUrVuAbYGLg/OsR1plcAhwTnUTI4AZMACIFXvKWA/4FOkLYWjTAG+DZyCUwKDebvl3lkApEH6cBWA/t5WwO+JXyVwG/Cmkl9rDmaR3o89o4NkrqifaVcBqBH6sABoeEuTvolHl4DnSCfAtlqP9B70k7Z3XjY2TtbuxwIg/U0fFgCN7AjgReKLwGxgqZJfa91MBG5lwffhvNBEebsPC0Dtjevxz2+CQ2VjtSXFXnC1GvCnAh9P9bAd8C3SLn6R7gLeBfwuOEdVPkvauXGwftK+CVdVHyd791LMlNKdxF4nk7MXgZ3KfIJ3E/9tpa2HIwDNNRm4iPifsZdJdxbs9YtC3e1LuovjcO/BozgV0I17if/5bfvx3Gh/Sa4CkOrnOeBw4EjghcAck4AzgEuB5QNzlGll4GssvOSsDHyxujiN0R8dQKOzAEj1NZu0Z8Bvg3PsS9pGuNThxACLAN9k9HnmPmD/0tM0iwUgAxYAqd7uBrYFzgrOMYN0q+MTSSfOJjge2HmM/+2XgeVKzNI0FoAW8BqAuMNrANpnFm8sU4s8rgVWKfellm4H0n0ZOnnds0OS5mkO8T+nbT+8BkBqkAtJGwfdEZxj5/kZ9gnO0a3lSfsuTOjwz80CDiw+TiP1RwfQ6CwAUl7uBbYnfkpgKvBD0g2OJgVn6dS5pCmNbnwJpwLGwgKQAQuAlJ+B5XkHAs8G5hhHurPgL4F1A3N04v309i1+ReLLl1QIC4CUr0uAzYCbgnNsQbqXwOHBOUazKcUs6TsMOKiAx2kyRwAyYAGQ8vYQaXneqcR+6E4mXaNQ122ElyAt+VusoMf7CrBCQY/VRBaADFgApPy9RlrStj/wdHCWWaQ99TcLzjHUGcAGBT7eNNL1DxqeBSADFgCpOX5IOvHeEJxjPdK0RF22Ef5H4L0lPO67gINLeFypEhYAqVn+BOwCnETa3z7KwDbClxB71fyapE18yvIVYHqJj58rRwAyYAGQmmcuace+twN/jo3CfqQ9A94a8NwTge8AU0p8jqnA2SU+fq4sABmwAEjNdRVp46DrgnOsSsw2wv9OupdC2Q4BDq3geaRCWQCkZnsU2I00JTAvMMcE4ATgp6Q77JVtJvDRCp5nwJdwKmAwRwAyYAGQmm8e6dv3TOCx2CjsCtwJ7F3ic6wEXES1n29TgXMqfL66swBkwAIgtcfPSJvhXBGcYypwGWkZ3cSCH3s8cAExa/T3I60MkAUgCxYAqV2eAPYCjiPtHxBlYBvhG4B1CnzcfwH2KPDxOvUfpO2Cpdrr9G5YQz0AXFxEkIZblLRJi1QH/aRv33NIu/dFzl1vBdwMvAe4tMfH2hz4dM+JerM86b39h+Ac0YocATgbuL7Ax2uLudEBlEyh+Hs9r1rpK1BTTQUuJ/7e5f2kbYSX7PJ1TAH+UIPXMHAc1uXraIpbKO69rPs9JqQRWQBUZ+NIu/a9QvyJ827SdQqd+m4Nsg8+ngFW6eJ1NIUFQJrPAqAcbE09vkW/RCokY/WeGmQe7risg9fQNDdjAZAAC4DyMYW0e170ybOfsW0j/GbghRpkXdgxa5T8TXUTFgAJsAAoP+8DXib+BPoQsONCMi4O/LYGGUc6ngVmjPZmN9CNWABqz2WAkoZzLvAW4PfBOVYj7V9wIn//efV5YKOqA3VoCvCf0SEkxXEEQLmaDHyT+G/S/cDVvLGN8AE1yNPJ0dfJm94Av8QRAAmwAChv40gbB9VhlcAjpDX2j9cgSyfHk7Rrg6AbsADUnlMAkkbTD5xB2mjnruAsqwDfBqYF5+jU8qR9DsZFB6lIf3QAjc4CIGms5gDbAF+NDpKpmcA/RYeQBlgAJHXiJdIKgSNJy+/UmdNJFzY2nSMAGbAAVMNfBjXNbNI+/r+JDpKZpYGv0/ypAD/zMmABkNSte4BtgbOig2TmbcBR0SEkC4CkXrxM2rb3YNKmNxqb02j2VIAjABmwAEgqwvdJFwjeHh0kE0sD59PcqQALQAYsAJKKcj+wPWlKwBPA6HYjXVDZRP79Z8ACIKlIr5CmBA4k3RJXI/sCsHZ0CLWTBUBSGS4FNiNtCauFW5K0r0LTpgIcAciABUBSWR4GdgZOAl4PzlJnuwLvjw5RMAtABiwAkso0l3Qnv/2Ap2Kj1NrngHWiQ6hdLACSqnA5aUrg+uggNbUkcAHN+Ux2BCADTflhk1R/j5CufHdKYHg7AB+IDlEQC0AGLADV8JdBSgamBGYCj8VGqaVTgXWjQxTAz7wMWAAkRbiGNCVwZXSQmlmCZk0FqMb8IZMU5XFgb9K3Xr3hLcDR0SF65AhABiwAkiLNBf4SHaKGTiPvqQALQAYsAJIibQx8NjpEDS0BfANYJDpIlywAGbAASIoyEZgNTIoOUlPbA8dEh1BzWQAkRTmBdCGgFu5kYIPoEF1wBCADFgBJEXYCjo8OkYHFgPPIbyrAApABC4Ckqk0GzsfPn7HaDvjn6BBqHn8BJVXtNGCt6BCZ+QywYXSIDjgCkAELgKQq7QO8LzpEhiaR11SABSADFgBJVZlOOompO9sCH4kOMUYWgAxYAKrhL4ME5wArRIfI3EnARtEh1AwWAElVOALYLzpEA0wibRC0aHSQUfilJwMWAEllWx04KzpEg2xB/acCLAAZsABIKtMiwIXAlOggDXMCaRtlqWsWAEllOhZ4a3SIBqr7VIAjABmwAEgqy8akrWxVjs2Bj0eHWAgLQAYsAJLK4I1+qvFvwCbRIYZhAciABUBSGbzRTzUmUu+pANWYBUBS0bzRT7U2Az4RHWIIRwAyYAGQVKTJwAX42VK1fwO2jA4xiAUgA/6SSirSacCa0SFaaAJpm+WJ0UGUDwuApKJ4o59YmwKfjA4xnyMAGbAAVMNfBjXddODr0SHEvwJbRYfAz7wsWAAkFeEcYFp0CDGBtCpgseAcFoAMWAAk9cob/dTLBqSRAGlEFgBJvfBGP/V0PLB14PM7ApABC4Ckbi0CXIQ3+qmj6KkAC0AGLACSunUssGN0CC3Um0n7A0SwAGTAAiCpG5vgjX5y8DFgm+gQqicLgKRODew/741+6i9qKsARgAxYACR16kS80U9O1if9nVXJApABC4CkTuxEfe9Br4X7KF6voSEsAJLGyhv95Gs88DVg8YqezxGADPiLLGms1gfuA16KDqKurAd8qqLnsgBkwAJQDX8Z1AS/At5BGgnYCjgJuA14PTKUOnI81UwF+JmXAQuApE7NI534TyQVgRWBQ4Fzgf+Ni6UxqHoqQDVmAZDUqyeAi4GjgVVJpeB44Crg1cBcGt56wGdKfg5HADJgAZBUpNdJowOnAjOB5YB9SaMDDwXm0oKOI63oKIsFIAMWAEllegG4jDQ6sAaw9vx/vhx4OS5W640HzgeWig6iOBYASVX6I2k04J2k0YGZpNGC2yJDtdRawKdLemxHADIwITqApNZ6iXSdwFXz/30NYA9gd1IxWCYmVqscA1wK/Lzgx7UAZMARAEl18SBpdOBQYCouNaxCWVMBFoAMWAAk1ZFLDauzJt7ZsZUsAJJyMHip4SrARrjUsEgfBHYp8PEcAciABUBSjn7HgksNZwJn4VLDbg1MBUwu6PEsABmwAFTDXwapPC+QRgKOZcGlhhcDz8fFys4awGcLeiw/8zJgAZDUNANLDQ8FVsClhp34AGklhlrAZYCSmmzoUsMVSSe4fXCp4XDGkcrTxsBzPTyOIwAZcARAUpv8GZjNgksNjwduwKWGA1YHPtfjY1gAMmABkNRWA0sNTyXdInc6LjUccDTw9ugQKpcFQJKSJ3Gp4YBxwHl0P0XiCEAGLACSNLy2LzVche6nAiwAGbAASNLo2rrU8Chgzy7+nAUgAxYASercSEsNm3TyGwd8FVg2OoiKZwGQpN4MLDU8nrSqYGXgSNLowLOBuYqyCvD5Dv9Mk0pQY1kAJKlYTVxq+B46mwqwAGTAAiBJ5RlpqeGjgbm68TWcCmgUC0A1bMOSYMGlhjPIa6nhysAXx/jf+pknzbcY6ReiyGPVSl+BpLItCewOnAk8SPGfGUUd+4/htZxe4PMdPobnUxccAZCkehhpqWEv+/IX7cukfRFG4ghABiwAklRPg5caTqc+Sw1XIn3DlzQGTgFIKtKKwBHAd4FniJkKOGCEfF8o8HmcAiiJIwCSlJ86LDX8EgufCnAKIAMWAEnKW9RSw5VI90aQNAKnACRF2RD4OPBT4BWK/yw6aJjn/HyBj+8UgLJmAZBUB4OXGj5AMZ9Fj5PuhzDY5wp6bAtAiZwCkKT2GLzUcE2KWWo4DThjyP/nNQDSfI4ASKq7xUijA6cAt5IuJuzkM+ngQY91aod/1hEANdYkLACS8jJ4qeHTjP6Z9ARvTAWcMob/3gIQzCkASdJwBi81nMboSw2nAmfP/2enAKT5HAGQ1CRTgUOAc4BHWPCz6RDgZIr7rHMEQFmzAEhqssFLDR8FzsMCIAEWAEntMZU0dWABqDmvAZAkFelJ4OHoEBqdBUCSpBayAEiSiuYqgAxYACRJRbMAZMACIEkqmgUgAxYASZJayAIgSSqaIwAZmBAdoCXmkrbQLNKzBT+eJKlFxkUHkCQ1zuKkuwsW4QXg1YIeS5IkSZIkSZIkSZIkSZIkSZIkSZIkSZIkSZIkSZIkSZIkSZIkSZIkSZIkSZIkSZIkSZIkSZIkSZIkSZIkSZIkSZIkSZIkSZIkSZIkSZIkSZIkSZIkSZIkSZIkSZIkSZIkSZIkSZIkSZIkSZIkSZIkSZIkSZIkSZIkSZIkSZIkSZIkSZIkSZIkSZIkSZIkSZIkSZKkzv0/5hxqzKl1xLwAAAAASUVORK5CYII=;rotation=0;" parent="Qdo3hB_uDaMukJDxGay6-1" vertex="1">
          <mxGeometry x="394.72791531305677" y="1299.133703703704" width="61.27015233250841" height="35.64814814814815" as="geometry" />
        </mxCell>
        <mxCell id="Qdo3hB_uDaMukJDxGay6-47" value="" style="shape=image;verticalLabelPosition=bottom;verticalAlign=top;imageAspect=0;image=data:image/png,iVBORw0KGgoAAAANSUhEUgAAAMgAAADICAYAAACtWK6eAAAABHNCSVQICAgIfAhkiAAAAAFzUkdCAK7OHOkAAAAEZ0FNQQAAsY8L/GEFAAAACXBIWXMAAAsTAAALEwEAmpwYAAAMa0lEQVR4Xu3dedAcRRnH8W8uEhJIkIQjEYmgpCKnKKHQQgOSAuRQSDygOIoSREQES5AiohBERIFSEAEFRFBRBBQMICAiyH0UIoFwCkLkzIEYCSSQZPzDHnx56pnemd2Z3Z3d36fqKatme3rW0L93d2d6ekBEREREREREREREREREREREREREREREREREmjHUbhAR2BC4CVgBzAcOtw1E+tUQ4BEgMfVp21CkH01xwpEAV9iG0hmD7QZpqzF2Q7C63SCdoYCIRCggIhEKSL0MAfYAzgBmAmvbBiK9ZJrzAz0B/mTarQEcBTxt2r0ArG/aivSMRgGZBJwFvOq0Sesc06dIz8gKyGPANcBK5zVbN9hOpTz6DdKdJgG7AIPsC4677QaRXpH1CZK37gZG205FesGHw9coO+jz1F3AXuGslkjPGAbsA9zjDPpG9SZwCbCN7VSk7sYB3wCecwZ+o1oEnAysZzsVqbtNgfOB152B36jmAgcDq9pORepsELA7cKMz6PPWrbZTkV6wNfCoM+CLlr2SLlJ7q4U7Au1gj9ViZ1uegIzUNaz20D9yeaYCa9mNGW4BZhS8czA9A3YXsAR4OUxYFKmFHZxPgoG1DLgI2HLAPlkXCgd+gqwVzoA977RLgP0GtBXpWsOAh50B/BIwC1jH7tAgIJsDP81xBuxq26lIt5oA/AqYB9wGHAAMt40GyArIMmdbVv3WdirSK7ICUqR2tp1KefQjvbPWsBsK+AfwWeA6+4JI3e0AzA6LxdlPhEZ1c7jtVn/cpKeMAA4E5jiDvlEtBX4GbGE7Fam78cC3gQXOwG9ULwLHa3EG6UVbAb8E3nAGfqN6AdgfWMV2KlJ3M4DbnUFfpBpNNRGppZ84g72ZUkCk52ziDPRYPRruFbHbGwVkO+BbwJcia/uKdJ3pzkD36nrg4+G+kawLhTYgI4CDnDNgz4Sr9yJdb8PIdY3Xwtevjc0+jQIyATipwRmwM02fIl3rWDN4/wkcA6xpGwZZAZkb5nTlOQNmP21EutoWwKHAbjmeO5gVkCJ1iu1UpFe0GpC5wFjbqUgv2Bi41Bn0eeoR4JDw412kZwwCdg0LTttB36hWAteG6e151uwVqY1RwGFh1XY78BvVkvCIg8m2U5G6mwicBvzLGfiNah5wNPAO26lI3X0k3Aq73Bn4eerOHGfARGpnM+BeZ8AXLV3bkJ4zsonFqZc62xSQLqLbNssztcC8qDnh7sIZ9gXpLgpIeVbYDcbKcB/6x8LV9gvC8j4ifWE48JTzdWkxcDrwHrtD5Eq6vmJJT9oQ+EMIxUPAVxo8Q1ABEYlQQLqcfoOIRCggIhEKiEiEAiISoYCIRCgg0qoJYfmil4Fnw9OwdL+KlKLOp3lHhEUqXnXe/9dsY5Fm1DUgMzJmDaT1kN2hrvQVS4rYHLgJuBzYwL44wDi7oa4UEMljHPBj4K9h6dO+oYBIzLAwn+wJ4AvAENug1ykgkmXncN/KD1p8lmKtKSBiTQKuCUsM9f1KKgqIpMYA3w9noHaxLzoWA9+1G0XK1A2neQcDBwPznffh1QrgvPDcxHWd15PwbEWRlnU6IFOB+53jZ9UtwJYD9ldApFKdCshE4DLnuFn1DPAZ24kCIlVrd0BGhUdSv+4c06slwHHAqrajQAGRSrUrIIOAfcNkQnusrLoYWM92ZCggUql2BGQKcIdzjKy6B/iQ7SSDAiKVqjIg44GLwnpctn+vXgAOKDhVXQGRSlURkOHATOA/Tr9eLQVOBla3HeWggEilyg7IdOBJp7+suiKs5dUsBUQqVVZANgNudPrJqjlhCdRWKSBSqVYDMjY8fSrvc0gWhifwljUrVwGRSjUbkKHAEeE+cLuvV28CZ1TwtCoFRCrVTEB2Ah529smq64D32U5KooBIpYoEZCPgaqdtVj0O7GY7KZkCIpXKE5Ax4UGgbzjtvPo3cBSwyoA+qqKASKViARkMfB54yXndq4HT0NtFAZFKZQXk8bBAgt2eVXYaersoIFKprIDkraxp6O3S8wEpMu9GyjcNuMFuzOE14HvAqWHqeqesG+ZwWfMzHjnXLVZ0+N9NcmrmEyTPNPR2yfoEqUM90m9rfNXR9s5/uKwqMg29XeockCSsK5z30d3SAb93/qPZamYaervUPSBJWBAvk5b96ZxpwCfsRsdq4d6OdlzX6EfL7QbpvCFh/Sn71yxWTwJ72o46rO6fIAsbLbTdjR/b/eAw4Ey7Mac/h/VyH7QvdEDWWawknGnrVsuB+4CvAg/YF6Wz1gQWOX/NitRy4Oww3b2Tsj5BeuY6iLTfj5wB1Wy9DBwepr93ggIipdqkwM1NRWousKM9WBsoIFKqG5zBlIQruweG/7WvFamrwrT4dlFApDSfdAZSWueHNuc5rxWtZWEKymhz/CooIFKKVYC/OwMpCfdvpFPU1wZecdok4XEDFxf4lHkJOKjia10KiJTiaGcQpXWUaXuk0yatY4EPArc5r2XVfcC25hhlUUCkZeuEv/52ECXhvg97hXwY8JjTNjFzh/YC5jltsuo3wPrmWK1SQKRlFzgDKK3dbeNgV6dtWr8Y0G5VYFa4KGfbefUacAIwckAfrVBApCVbRdbGvc42Nq519klCf9uYtu8CLnHaZtU8YG/TRzMUEGnJ7c7gScI6VY2W4pkc2tl9E+DujGlC24bfHLZ9Vt0WftM0SwGRpu3tDJy0fmgbZzjd2Tet/W3jYHC4pvKis49XK8LXwHVsRzkoINKUkZEf0AsLrHC4BrDA6SMBngtT4bOMBk4J10Xsvl4tDmfb7EmDGAVEmnKCM2jSOtQ2buAQp4+0vmMbO94LzHb2zaonwkXNPBQQKWz9yFmlOU0sHD0Y+JvTVxKe7bGB3SHDjmHOlu0jq/4Y5o7FKCBSWOxsUrOPHNjO6Sut39nGEUOBLxdc9PrMyFdCBUQK2dYZLGldYRsXdLnTZ1pFgzcWOKvAzOJF4SYv++mngEhugyOnWJe2+CQnwleprMc3N/PVDWDTsMyp7S+rHgR2GLC/AiK5HeQMlLROto2bdJLTd1pftI0L2KPgo9uuDAvDKSCSy+jIItPPNzgdW8SocHrXHiMJp4OzfivkMRw4psDDP5cB5zrbEwVErFOdQZLWAbZxi/ZzjpHWGbZxE8YDF0amyOQpBUTeslHkYtw9GVNCWjEIuNM5VpJzCkteU4A7nGPkKQVE3nKVM0DSqmqp0K0jf+Gvt41btA/wrHOcWCkgAuF5gXZwpHWxbVyynzvHTCtrGn2zRgEnRs6i2VJAhKGRh2m+CrzT7lCyCZEf1N6NWGWYCFzqHM+Wt5ic9JnDnYGR1jdt44p83Tl2WvZW3jJ9FLjfOWZaWq2wz42NTNd4Ghhhd6jIcOAp5z0kZjGIKqTPUJzvHPsQ21j6y9nOoEir3Y9Em+68h7TS5YSqNCZcCH00fKocbBtIf9ksMofpL7Zxm9zovJck3Az1AdtYpEqxwfh+27hNYqG91TYWqcqezgBM61zbuM3Ocd5TWnvZxiJlGx6Z0PdKxT+I8xgXOXEwLywRJFKZmc7AS+tI27hDjnDeW1rH28YiZRkfuSj3WFgNsRvELl4uCetniZTuQmfApbWrbdxhOzrvMa1f28YirZoSmRh4rW3cJWITKKtayFr6UKOp5ZPtDl0iNgX/voofiSB9ZF9ngKV1um3cZU5z3nNan7ONRYoaFbkPYkFY9bCbxW4DfhFY3e4gUsSJzsBKq5UFEtoptpDEKbaxSF4TIzcHPdDkEjudEFuKaFlYllSksMucAZXW9rZxl4stZjfbNpa3K3tBgV4wFbjZbgyWAFfbjTWwS+Q3x05hHV6RhmILRfdqza3RV0bpsNhV6F6u3ew/hPyPLhi93bvthj7Rr/+/G1JA3i5dKK3f3G43iGSZGe4OtF9DerFWAsfZfwD5P53F8m0Qnv461L5Qsk8BM+zG8CyRIg/GacabwL1hVRSRrjTL+auehO3SBfQbRCRCARGJUEBEIhQQkQgFRCRCARGJUEBEIhQQkQgFRCRCARGJUEBEIhQQkQgFRCRCARGJUEBEIhQQkQgFRCRCARGJUEBEIhQQkQgFRCRCARGJUEBEIhQQkQgFRCRCARGJUEBEIhQQkQgFRCRCARGJUEBEIhQQkQgFRCRCARGJUEBEIhQQkQgFRCRCAemsxG4IsrZLmykgnbXAbggW2Q0i/WgcMN88I30hsLZtKNKvJgNXAk8Bs4GNbQMRERERERHpD/8FMu8Lc9sKz5EAAAAASUVORK5CYII=;rotation=-180;" parent="Qdo3hB_uDaMukJDxGay6-1" vertex="1">
          <mxGeometry x="566.7489090757028" y="325.925925925926" width="70.69632961443277" height="61.111111111111114" as="geometry" />
        </mxCell>
        <mxCell id="Qdo3hB_uDaMukJDxGay6-48" style="edgeStyle=orthogonalEdgeStyle;rounded=1;orthogonalLoop=1;jettySize=auto;html=1;endArrow=none;startFill=0;strokeWidth=5;fillColor=#60a917;strokeColor=light-dark(#2D7600, #63fb04);curved=0;" parent="Qdo3hB_uDaMukJDxGay6-1" source="Qdo3hB_uDaMukJDxGay6-49" target="Qdo3hB_uDaMukJDxGay6-50" edge="1">
          <mxGeometry relative="1" as="geometry">
            <Array as="points" />
          </mxGeometry>
        </mxCell>
        <mxCell id="Qdo3hB_uDaMukJDxGay6-49" value="" style="verticalLabelPosition=bottom;align=center;html=1;verticalAlign=top;pointerEvents=1;shape=mxgraph.pid2valves.valve;valveType=gate;actuator=solenoid;" parent="Qdo3hB_uDaMukJDxGay6-1" vertex="1">
          <mxGeometry x="596.0846113356264" y="254.62962962962965" width="35.348164807216385" height="30.555555555555557" as="geometry" />
        </mxCell>
        <mxCell id="Qdo3hB_uDaMukJDxGay6-50" value="" style="shape=image;verticalLabelPosition=bottom;verticalAlign=top;imageAspect=0;image=data:image/png,iVBORw0KGgoAAAANSUhEUgAAAMgAAADICAYAAACtWK6eAAAABHNCSVQICAgIfAhkiAAAAAlwSFlzAAALEwAACxMBAJqcGAAAChVJREFUeJzt3XnsHGUdx/E3pZSrLUdLQUQEEUUNRIWIBIFGkUgkcmggIhGjwQuNGomiYgyJBGI0gLdGPJAjGjV4IAZSDzwRrwByiAcip0BtLS1HW+ofX1aWX38z+8zOzjMz3fcredKk+e3MM7Pz2Wd35jlAkiRJkiRJkiRJkiRJkiRJkiRJkiRJkiRJkiRJkiRJkiRJkiRJkiRJkiRJkiRJkiRJkiRJkiRJkiRJkiRJkiRJkiRJkiRJkiRJkiRJm5TN2q5AB80FTgEOBbZouS5t2wDcCpwP3NtyXdQR3yQuDMsT5XZgUZ2Tqk3DfrR/MXa1nF7jvPbWnLYr0DFPa7sCHTaV58aAPNm1wMNtV6Kjft52BdQNJwEP0f5Xmi6VLzOlN3Sm8qAT7AwcCMxrYd/nA7vO8v/vAu7KXJfHgFuAP2fer1ToZmb/FN+nzUpNK3+DSCUMiFTCgEglDIhUwoBIJQyIVMKASCUMiFTCgEglDIhUwoBIJQyIVGJu2xXIYAGwNbCK6Mau5swFdiR6AS9//F91zELgrcAVxJs03CP2DmLM+Ql0d0KGvvXmPQj4NHAjsI4n6vsI8HvgLGDv1mqn/9scOA1YQdogoNuBE1upabm+BGRf4Keknev1wIXATm1UVLAYuJrxRstdQnwF64o+BOQUooWoeq7vAQ5uob5TbRHRvNcZUnoTMYKwC7ockB2JD5Q653oNcFjuik+rOcAyJjPueh1wDrBl1iPYWFcDcjRwN5M51w8Au+et/nR6G6PfjNXAnaR/JbgBOCDnQczQtYDsAFxUUKfZyv2k/Q78Yc6DmEZbEt9pi96AZcAhPPGsZx7wKuD6ktcMylrgo7QzaUOXAnIUMVHEqPO1grhBsvPQa58JnMeT72zNLIfkOIhpdQLFJ/58imds2Qq4uOS1w+U64AWNHcHsuhCQ7YCvFtRjZrmZ8tu4rwQeLXjtxY3UXkDxRX4NaT0EjgfuK9jGzNbkTPI9N2k7IEcSz4tGnZf1wLmk3QH8cME2VmBvjsb8hdlP+rEVtrEE+HbBdmaWPxJz9zatrYAsBC4o2PfM8leqfT1aQNy9artlnCpFsx/uMMa2TiTurIy6MB4lPg2b7KLTRkCOIB6cjjr+x4BPAduMsY+i51RH1Ky7ChS9iePaBfhuyXaHy++A59XYV5mcAVkAfLFgfzPL34GlNfZ1WcF2j66xTZWYdEAGTmLjPlyzlUeADxJdXCYpV0BeBtxWsK+ZrcZngPk191cUkGNqblcFmgoIwFOAH5TsY7j8FnjOhPYLzQdkPvBZ4sIfdWy3AS+d0H4NSGZNBmTgDaQ99HoYeB+TaU2aDMhS4qtSSvC/QHwFmxQDklmOgAA8leg6n3JR/Rp4ds39NRGQbYku6Smtxu3Ay2vsq4gBySxXQAbeBKws2e+gPAS8l/Hv7086IIcQt2VTAv4l4nZvEwxIZrkDArEM2ZUl+x4uv2C8gUKTCsg2RFePlFbjDuAVY9S1CgOSWRsBGXgz8N+SOgzKamLhmyoLFU0iIAdT/CB1ZvkKsH2FbY/LgGTWZkAAnk56V/ufAc9I3G6dgGwFfILoBjKqTncR/aRyMSCZtR0QiJbh7cCDJfUZlAeBdzC6NRk3IC8uee3M8nXG63FQhwHJrAsBGdiT9PHZPwb2KNlW1YBsCXyM8m7lg3IP7T25NiCZdSkgEC3DO4nfHaMu1FXEzCuzqRKQF5E+3PgSYnhyWwxIZl0LyMBexJriKRftlWw89DQlIPOAs0lrNe4FjpvsIY7FgGTW1YBAPAN5D8VdvIfLSmKWkIFRAdmftFGRG4g5wBY3c4iVGZDMuhyQgWcBvyTtYr4C2I3igOxHDANem7Ct+4gBYV1iQDLrQ0AgWpPTKB6/MlxWUPx8JWW8xgZiANiSLEdWjQHJrC8BGdgH+A1pF/k45QHgtdmOpjoDklnfAgLR2/f9RO/fSYbjMmLAV5cZkMz6GJCB5wLXUj8Yy4kBXn1gQDLrc0AgxrV/iPHmuN0AfJ8Y2NUXBiSzvgdkYF9imYDUYPwHOLmVmtbTy4A4J1H/rCdmV5FK9b0F2Zx6X7G+Rb/W2+hlC9JnfQ7IpH6k/xt4Tea6j8uAZNbHgGwOnE7abd6VpHdf/wbd6VJSxIBk1reAVHlQeBXRibFqp8Qq067mZkAy60tAqnQ1WQW8ZZZtVO3WvmNjRzM+A5JZHwKyN+mdFZdRPpBqMDAqZTjt3cRaKF1iQDLrckDmAO8mrbv7g8Sw3dSJHQ4i/bfJheQfWlvEgGTW1YDsRfqKuz8hhutWVWVyhjvJOzlDEQOSWdcCUmXI7erH/7bKdECzqTq9z3Y191eHAcmsSwHZk2gNUi7Uq4lWZlK2Jn2CuH/R/ARxRQxIZl0IyGbESrurSuozKGuI3yVNde85lG5MMVrEgGTWdkB2J55XpFyQ405DWtW2xApQKa3JP4HDM9RpwIBk1mZATiFt6tG6E1mPaynpyxx8nvqL46QwIJm1EZDdgB+V7Hu4TGIphDrmA58jrTX5B5NbKKeIAcksd0DeSP7FdCbhcOLr1Kh6D5Za27ahehiQzHIFZFfg8pL9DZdrmOxybJNSZbHOvwGHNVAHA5JZjoC8nhjBN+qiegT4AN1pNYpUWe75k4y33HMRA5JZkwHZBfheyT6Gy7U0tyR0ExYCF5B2bLcCL5nQfg1IZk0F5HXEHFMprcYZxOQLfXQksbLUqONcD5xLPJCsw4BkNumALAG+U7Ld4fIHYrKFvtse+Bppx3wL0VFyXEUBaWs5hk1e0VjucfobnUDMZzvqInkU+Aj9bTWKHEWsOJXSmnyc6CxZVdGM90fUrLsKFHWrqDIOYjExA3rKJ+ifgOdPqO5dtANwEWnn4ibgwArbXkBx1/9JrP+uWVzK7Cf8V6Q9uT6OGKY66mJYC5wJbDHZ6nfWMcRKVKPOyzrgHGIg1yhnFGxjBU491ZgTKX7zzqO4K/lWxBp9KZ+U1wEvbOwIumsRxR9AM8v1lC9QeiTx1XS2117cTPUFcaGXtQBXEbco5wz9/bGkLT6zDjiLmDRhmr2amFpo1PlaTvRUHl7ibQ9iUFfZhBOTuoWsAqcy+s1bQ4zRTll4ZgNwA3BAzoPouJ1I/532GHGu70/428tzHsS0mkP6QKWUVuNs0r5TT6PjSbvTl1KWE+vMK4PFxF2VOm/YjcTUOiq3hFjBqs65XkN0x1dGOxGDksZ5wy6l/lPiaXMqxT+8y8o9xDh6tWAusXrTStLerLuIzogaz/6kzxS5nnhi36fJtjdZ2xMzhixj47HiDxCdEE9mvKfB2thSYoz7zBGMa4mHq2cTq/32Ut1pZ/pgEdFtexXxYErN2Zo43+uJH/Tr2q2OJEmSJEmSJEmSJEmSJEmSJEmSJEmSJEmSJEmSJEmSJEmSJEmSJEmSJEmSJEmSJEmSJEmSJEmSJElSBv8DhZGUYnvjcPsAAAAASUVORK5CYII=;rotation=0;" parent="Qdo3hB_uDaMukJDxGay6-1" vertex="1">
          <mxGeometry x="695.1805745419224" y="234.25925925925927" width="82.47905121683824" height="71.2962962962963" as="geometry" />
        </mxCell>
        <mxCell id="Qdo3hB_uDaMukJDxGay6-52" style="edgeStyle=orthogonalEdgeStyle;rounded=1;orthogonalLoop=1;jettySize=auto;html=1;entryX=0;entryY=0.5;entryDx=0;entryDy=0;endArrow=none;startFill=0;curved=0;strokeWidth=5;fillColor=#e3c800;strokeColor=light-dark(#B09500, #f0cd05);exitX=1;exitY=0.5;exitDx=0;exitDy=0;" parent="Qdo3hB_uDaMukJDxGay6-1" source="_f_hJpnyNUHGm4c5hjVc-16" target="Qdo3hB_uDaMukJDxGay6-65" edge="1">
          <mxGeometry relative="1" as="geometry">
            <mxPoint x="501.9439402624727" y="539.8148148148149" as="sourcePoint" />
            <Array as="points">
              <mxPoint x="497.36126400310826" y="550" />
              <mxPoint x="497.36126400310826" y="550" />
            </Array>
          </mxGeometry>
        </mxCell>
        <mxCell id="Qdo3hB_uDaMukJDxGay6-54" style="edgeStyle=orthogonalEdgeStyle;rounded=1;orthogonalLoop=1;jettySize=auto;html=1;exitX=1;exitY=0.5;exitDx=0;exitDy=0;entryX=0.5;entryY=0;entryDx=0;entryDy=0;entryPerimeter=0;endArrow=none;startFill=0;strokeWidth=5;fillColor=#60a917;strokeColor=light-dark(#2D7600, #63fb04);curved=0;" parent="Qdo3hB_uDaMukJDxGay6-1" source="Qdo3hB_uDaMukJDxGay6-37" edge="1">
          <mxGeometry relative="1" as="geometry">
            <mxPoint x="498.40912378175113" y="387.03703703703684" as="targetPoint" />
            <Array as="points">
              <mxPoint x="501.6674221330053" y="150" />
              <mxPoint x="473.6773942886745" y="150" />
              <mxPoint x="473.6773942886745" y="190" />
              <mxPoint x="495.2081849381597" y="190" />
              <mxPoint x="495.2081849381597" y="387" />
            </Array>
          </mxGeometry>
        </mxCell>
        <mxCell id="Qdo3hB_uDaMukJDxGay6-55" value="" style="verticalLabelPosition=bottom;aspect=fixed;html=1;verticalAlign=top;fillColor=strokeColor;align=center;outlineConnect=0;shape=mxgraph.fluid_power.x10630;points=[[0.36,0,0],[0.36,1,0]]" parent="Qdo3hB_uDaMukJDxGay6-1" vertex="1">
          <mxGeometry x="487.828239782791" y="774.0740740740741" width="33.98" height="75.14" as="geometry" />
        </mxCell>
        <mxCell id="Qdo3hB_uDaMukJDxGay6-57" value="" style="shape=image;verticalLabelPosition=bottom;verticalAlign=top;imageAspect=0;image=data:image/png,iVBORw0KGgoAAAANSUhEUgAAAgAAAAFVCAYAAACZ01cjAAAABmJLR0QA/wD/AP+gvaeTAAAaBklEQVR4nO3deZQdZZ3G8W9CSNhCWBLCEnYQZN8XQTYJyiI7jGcg0KMox+UA47ig4xxg9CAoyjbqgCIYGDdUGMERERBBZBEEFMOmsgiDsjvskNDzx5uWTtvp7ntvVf3qrfp+zqkjeMi9z73pvvXc9633LZAkSZIkSZIkSZIkSZIkSZIkSZIkSZIkSZIkSZIkSZIkSZIkSZIkSZIkSZIkSZIkSZIkSZIkSZIkSZIkSZIkSZIkSZIkSZIkSZIkSZIkSZIkSZIkSZIkSZIkSZIkSZIkSZIkSZIkSZIkSZIkSZIkSZIkSZIkSRWYEB1AktQc46IDaAGrAjsDmwIbAusDywBLA4sArwN/nX/MAe4CbgWuBp4OyCtJkrq0AXAa8ADQ3+UxF7gR+BCpMEiSpJraE7iO7k/6CzteBM4BZlT3UiRJ0mh2BG6h+BP/cEXgFGDxal6WJEkaznLAeaR5/LJP/oOPu4GtKnh9kiRpiG2Bh6j2xD/4eBU4uvRXKUmS/uYo4BXiTv6Djy8C48t9uZIk6RTiT/pDj29gCZAkqTQfJf5kv7Dj9BJftyRJrTWL6i/26/Q4rrRXL0lSC21CWoIXfYIf7XiVtCRRkiT1aDJwP/En97EeDwFLlfJOSJJqbZHoAA1zMrBPdIgOTJn/v9eEppAkKWPrk4bVo7/Vd3q8AqxVwvshSVIr/Ij4k3m3xwXFvx2SJDXfZsSfxHs55gLrFv6uSJJqa0J0gIb4SHSAHi0CvBf4WHQQSdlbBji0oMe6iLSqSqqlZanPVr+9HH8BFi34vZHUPutT3OfStIqzt4pbwvbuQGBidIgCrADsHh1CUvb6owNobCwAvTskOkCB9ooOICl7FoBMWAB6MxF4a3SIAu0ZHUCSVA0LQG+2BpaIDlGgtYHp0SEkZc0RgExYAHqzZXSAEmwSHUBS1iwAmbAA9KaJa+ctAJJ6YQHIhAWgN+tEByjBjOgAkqTyWQB608Q1ql4DIKkXjgBkwgLQmyWjA5Rg+egAkrJmAciEBaA3TVoBMMCfCUlqAT/se/NydIAS2N4l9cLPkExYAHrzfHSAEqxO2hZYkrphAciEBaA3j0cHKMGbgDuAXaODSMqSBSATFoDe3B0doCQrAVcDZ9KMGx1Jqo4FIBMWgN7MiQ5QonHAMcAVwMrBWSRJBbMA9Obn0QEqsCup6DTproeSyuMIgFrjUdIPfNOPecDJwIRi3jZJDTWD4j53mrjZWm04AtC7b0cHqMh44BPATTRzC2RJxXAEQK2xBfHfzqs+ngT2KeLNk9Q4K+MIgFrk58SflCOO2TRzN0RJ3VsJC4Ba5ADiT8ZRx83AGj2/g5KawgKg1rmO+JNx1PF/wGG9v4WSGmBFLABqmW2A14g/GUceZwOTen0jJWVtOhYAtdDHiD8JRx93Axv3+kZKytYKWADUQuOBK4k/CUcfLwLH9vheSsrTNCwAaqkZwCPEn4TrcJwDLN7b2ykpMxYAtdo6wF+IPwHX4bgH2LS3t1NSRqZiAVDL7QQ8T/wJuA7Hc8ARvb2dkjJhAZCAjYCHiD8B1+X4AbBMT++opLpbHguABMBqpP3zo0++c4FPAvcF55hDKkaSmmk5LADS3ywKXEDsyf/d87NMBv4rMEs/aZXAUV2/m5LqbFksANIC+og52f6a4dflHwQ8G5Rp4LiU9G1BUnMsgwVAWkAf1Z5cHwU+zMjL8DYCfldxrqHHfcDmY30TJdWeBUAaoo/yT6avk+5MeCRj35J3SeD8CrKNdLwEfHCMeSXV2xQsANIC+ijv5HkF8CF6uyvfLNJyvcgi8D1cJSDlzgIgDdFHsSfLs4G9Sd/gi7I+cGfBOTs9/ghsXeBrklStpbEASAvoo9gT5aol5ZwAnAjMKzhvJ8fc+RnGl/QaJZVnMhYAaQF95FEABrwTeLLgzJ0eVwMrlfw6JRVrKSwAWfAblhbmMmBb4LbADLuRNlHaITCDJDWSBUAj+QOwHXASaYVBhNWA64EzSRsqSaq3/ugAUt30kdcUwFBvAx4rKHu3x03AmmW/UEk9WQKnALLgCIDG6mrSbX2vDMywLXA7cEhgBkkjcwQgExYAdeJxYC/SlMC8oAxTgO8C5zD2zY4kVccCIA3RR95TAEPtQtpuOHJK4DZg3ZJfp6TOLIZTAFlwBEDduhbYDPhxYIYtSCXg8MAMkhbkCEAmLADqxROk3QiPA14LyjAZuBCYTVp/LCmWBUAaoo9mTQEMtQ1pG9/IKYF7SKMSkuJMxCmALDgCoKLcQtrD//LADOuRlgoeC4wLzCG1mSMAmbAAqEhPAfuSpgReDcowCTgDuARYLiiD1GYWgExYAFS0ftKufTuQdhKMsh9wB7BjYAapjSwAmbAAqCy3kq7S/05ghlWBn5HuLLhIYA5JUov10eyLAEdyBPAisRcIXgOsXPYLlcR4vAgwC44AqAqzSVMC9wdm2JU0JbBXYAapDZwCyIQFQFW5HdgS+GZghmmkVQpnkpYqSZJUuj7aOwUw1BHA88ROCdwCrF32C5VayimADDgCoAizSXsG/DYww9bAr4F3BWaQpDAWAEW5m3R733MDMywNfItUSJYIzCE1jdcBSIP04RTAwhwBPEfslMAcYOOyX6jUEvNwCqD2HAFQHcwGtgLuDMzwZuBm0jbCktR4FgDVxb3AdsBZgRkWJ20j/D1gmcAcUu6cApAG6cMpgLE6EHiG2CmBB4HtS36dUlO9hlMAtecIgOroB6Tb+t4UmGF14DrSNsL+nkiSutaHIwCdmkTatOd1YkcDrgRWLPm1Sk3yKo4A1J7fbFRnr5AuyjsAeDowx0zSNsJ7BGaQctIfHUCjswAoB/9NmhK4ITDDdOAK0ojEooE5pBxYADJgAVAu/gTsApxEmhKIMA44BrgKmBGUQZKUmT68BqAouwN/Jva6gCeBd5b9QqVMvYTXANSeIwDK0VWkjYOuD8ywPGlq4kzSxYqS3uAUQAYsAMrVI8CupCmBeUEZBqYEfgmsG5RBqiMLQAYsAMrZPNI6/ZnAY4E5tgBuAw4PzCBJHbEAqAl+Rlol8JPADJOBC0n3NVgqMIdUB44AZMACoKZ4HNgTOI60DWmUWcCtpEIitZUFIAMWADVJP+mivN2BRwNzrAfciHcWlFRjFgA10XWkb+D/E5hhMdKdBS8BlgvMIUVwBCADFgA11ZPAPqQpgVcDc+wP3A7sEJhBqpoFIAMWADXZwJTAjsAfA3OsBlyLdxZUe1gAMuCHkdrgV6SlehcHZpgAnAD8FFgpMIckARYAtcdfgUOBo0l3GYyyG3AnacWC1FSOAGTAAqC2ORd4C/D7wAzTgB/hnQXVXBaADFgA1Ea/Jk0JfCsww8A2wjcAawXmkNRSFgC11XPAYcCHiV0lsDVwE7BXYAapaI4AZMACoDbrB04HNgfuCswxMCUwG1giMIdUFAtABiwAEswBtgcuCs4xi7RiYePgHFKvLAAZsABIyfOkE/CRwAuBOTYAbsZthCWVzAIgLWg2sBXwm8AMi5O2Ef4esExgDqlbjgBkwAIg/b17gG2Bs4JzHATcQZqekHJiAciABUAa3sukYfiDgWcDc6xOurnRifj7KqlAfqBII/s+aTTg9sAMA9sI/wRYMTCHNFaOAGTAAiCN7j7SMHz0lMDupG2E3x6cQxqNBSADFgBpbF4hTQkcADwTmGMF4Me4jbDqzQKQAQuA1JlLgc2AGwMzDGwj/AtgzcAckjJmAZA69zCwE3AS8Hpgjm1I1yYcGphBGo4jABmwAEjdmUu6Mn9/4KnAHFOA7+A2wqoXC0AGLABSby4jTQn8IjjHLOAWYKPgHBJYALJgAZB69wiwK/FTAhuSSoDbCEtSjfSRWnFRx6qVptdY7QY8RrF/190cF+M2worzMMX8HE+rOnibOAIgFesaYFPgyuAcB5MuENwuOIfaySmADFgApOI9DrwDOB6YF5hjDdxGWJLC9eEUQBvtAjxK/JTAlbiNsKrzIE4B1J7fCqRyXUtaJfDj4BwzSXcW3CM4h9rBKYAMWACk8j0B7A0cB7wWmGM6biOsalgAMmABkKrRTzrx7gg8EJhjPGkb4etwG2Gp1SwAUrVuAbYGLg/OsR1plcAhwTnUTI4AZMACIFXvKWA/4FOkLYWjTAG+DZyCUwKDebvl3lkApEH6cBWA/t5WwO+JXyVwG/Cmkl9rDmaR3o89o4NkrqifaVcBqBH6sABoeEuTvolHl4DnSCfAtlqP9B70k7Z3XjY2TtbuxwIg/U0fFgCN7AjgReKLwGxgqZJfa91MBG5lwffhvNBEebsPC0Dtjevxz2+CQ2VjtSXFXnC1GvCnAh9P9bAd8C3SLn6R7gLeBfwuOEdVPkvauXGwftK+CVdVHyd791LMlNKdxF4nk7MXgZ3KfIJ3E/9tpa2HIwDNNRm4iPifsZdJdxbs9YtC3e1LuovjcO/BozgV0I17if/5bfvx3Gh/Sa4CkOrnOeBw4EjghcAck4AzgEuB5QNzlGll4GssvOSsDHyxujiN0R8dQKOzAEj1NZu0Z8Bvg3PsS9pGuNThxACLAN9k9HnmPmD/0tM0iwUgAxYAqd7uBrYFzgrOMYN0q+MTSSfOJjge2HmM/+2XgeVKzNI0FoAW8BqAuMNrANpnFm8sU4s8rgVWKfellm4H0n0ZOnnds0OS5mkO8T+nbT+8BkBqkAtJGwfdEZxj5/kZ9gnO0a3lSfsuTOjwz80CDiw+TiP1RwfQ6CwAUl7uBbYnfkpgKvBD0g2OJgVn6dS5pCmNbnwJpwLGwgKQAQuAlJ+B5XkHAs8G5hhHurPgL4F1A3N04v309i1+ReLLl1QIC4CUr0uAzYCbgnNsQbqXwOHBOUazKcUs6TsMOKiAx2kyRwAyYAGQ8vYQaXneqcR+6E4mXaNQ122ElyAt+VusoMf7CrBCQY/VRBaADFgApPy9RlrStj/wdHCWWaQ99TcLzjHUGcAGBT7eNNL1DxqeBSADFgCpOX5IOvHeEJxjPdK0RF22Ef5H4L0lPO67gINLeFypEhYAqVn+BOwCnETa3z7KwDbClxB71fyapE18yvIVYHqJj58rRwAyYAGQmmcuace+twN/jo3CfqQ9A94a8NwTge8AU0p8jqnA2SU+fq4sABmwAEjNdRVp46DrgnOsSsw2wv9OupdC2Q4BDq3geaRCWQCkZnsU2I00JTAvMMcE4ATgp6Q77JVtJvDRCp5nwJdwKmAwRwAyYAGQmm8e6dv3TOCx2CjsCtwJ7F3ic6wEXES1n29TgXMqfL66swBkwAIgtcfPSJvhXBGcYypwGWkZ3cSCH3s8cAExa/T3I60MkAUgCxYAqV2eAPYCjiPtHxBlYBvhG4B1CnzcfwH2KPDxOvUfpO2Cpdrr9G5YQz0AXFxEkIZblLRJi1QH/aRv33NIu/dFzl1vBdwMvAe4tMfH2hz4dM+JerM86b39h+Ac0YocATgbuL7Ax2uLudEBlEyh+Hs9r1rpK1BTTQUuJ/7e5f2kbYSX7PJ1TAH+UIPXMHAc1uXraIpbKO69rPs9JqQRWQBUZ+NIu/a9QvyJ827SdQqd+m4Nsg8+ngFW6eJ1NIUFQJrPAqAcbE09vkW/RCokY/WeGmQe7risg9fQNDdjAZAAC4DyMYW0e170ybOfsW0j/GbghRpkXdgxa5T8TXUTFgAJsAAoP+8DXib+BPoQsONCMi4O/LYGGUc6ngVmjPZmN9CNWABqz2WAkoZzLvAW4PfBOVYj7V9wIn//efV5YKOqA3VoCvCf0SEkxXEEQLmaDHyT+G/S/cDVvLGN8AE1yNPJ0dfJm94Av8QRAAmwAChv40gbB9VhlcAjpDX2j9cgSyfHk7Rrg6AbsADUnlMAkkbTD5xB2mjnruAsqwDfBqYF5+jU8qR9DsZFB6lIf3QAjc4CIGms5gDbAF+NDpKpmcA/RYeQBlgAJHXiJdIKgSNJy+/UmdNJFzY2nSMAGbAAVMNfBjXNbNI+/r+JDpKZpYGv0/ypAD/zMmABkNSte4BtgbOig2TmbcBR0SEkC4CkXrxM2rb3YNKmNxqb02j2VIAjABmwAEgqwvdJFwjeHh0kE0sD59PcqQALQAYsAJKKcj+wPWlKwBPA6HYjXVDZRP79Z8ACIKlIr5CmBA4k3RJXI/sCsHZ0CLWTBUBSGS4FNiNtCauFW5K0r0LTpgIcAciABUBSWR4GdgZOAl4PzlJnuwLvjw5RMAtABiwAkso0l3Qnv/2Ap2Kj1NrngHWiQ6hdLACSqnA5aUrg+uggNbUkcAHN+Ux2BCADTflhk1R/j5CufHdKYHg7AB+IDlEQC0AGLADV8JdBSgamBGYCj8VGqaVTgXWjQxTAz7wMWAAkRbiGNCVwZXSQmlmCZk0FqMb8IZMU5XFgb9K3Xr3hLcDR0SF65AhABiwAkiLNBf4SHaKGTiPvqQALQAYsAJIibQx8NjpEDS0BfANYJDpIlywAGbAASIoyEZgNTIoOUlPbA8dEh1BzWQAkRTmBdCGgFu5kYIPoEF1wBCADFgBJEXYCjo8OkYHFgPPIbyrAApABC4Ckqk0GzsfPn7HaDvjn6BBqHn8BJVXtNGCt6BCZ+QywYXSIDjgCkAELgKQq7QO8LzpEhiaR11SABSADFgBJVZlOOompO9sCH4kOMUYWgAxYAKrhL4ME5wArRIfI3EnARtEh1AwWAElVOALYLzpEA0wibRC0aHSQUfilJwMWAEllWx04KzpEg2xB/acCLAAZsABIKtMiwIXAlOggDXMCaRtlqWsWAEllOhZ4a3SIBqr7VIAjABmwAEgqy8akrWxVjs2Bj0eHWAgLQAYsAJLK4I1+qvFvwCbRIYZhAciABUBSGbzRTzUmUu+pANWYBUBS0bzRT7U2Az4RHWIIRwAyYAGQVKTJwAX42VK1fwO2jA4xiAUgA/6SSirSacCa0SFaaAJpm+WJ0UGUDwuApKJ4o59YmwKfjA4xnyMAGbAAVMNfBjXddODr0SHEvwJbRYfAz7wsWAAkFeEcYFp0CDGBtCpgseAcFoAMWAAk9cob/dTLBqSRAGlEFgBJvfBGP/V0PLB14PM7ApABC4Ckbi0CXIQ3+qmj6KkAC0AGLACSunUssGN0CC3Um0n7A0SwAGTAAiCpG5vgjX5y8DFgm+gQqicLgKRODew/741+6i9qKsARgAxYACR16kS80U9O1if9nVXJApABC4CkTuxEfe9Br4X7KF6voSEsAJLGyhv95Gs88DVg8YqezxGADPiLLGms1gfuA16KDqKurAd8qqLnsgBkwAJQDX8Z1AS/At5BGgnYCjgJuA14PTKUOnI81UwF+JmXAQuApE7NI534TyQVgRWBQ4Fzgf+Ni6UxqHoqQDVmAZDUqyeAi4GjgVVJpeB44Crg1cBcGt56wGdKfg5HADJgAZBUpNdJowOnAjOB5YB9SaMDDwXm0oKOI63oKIsFIAMWAEllegG4jDQ6sAaw9vx/vhx4OS5W640HzgeWig6iOBYASVX6I2k04J2k0YGZpNGC2yJDtdRawKdLemxHADIwITqApNZ6iXSdwFXz/30NYA9gd1IxWCYmVqscA1wK/Lzgx7UAZMARAEl18SBpdOBQYCouNaxCWVMBFoAMWAAk1ZFLDauzJt7ZsZUsAJJyMHip4SrARrjUsEgfBHYp8PEcAciABUBSjn7HgksNZwJn4VLDbg1MBUwu6PEsABmwAFTDXwapPC+QRgKOZcGlhhcDz8fFys4awGcLeiw/8zJgAZDUNANLDQ8FVsClhp34AGklhlrAZYCSmmzoUsMVSSe4fXCp4XDGkcrTxsBzPTyOIwAZcARAUpv8GZjNgksNjwduwKWGA1YHPtfjY1gAMmABkNRWA0sNTyXdInc6LjUccDTw9ugQKpcFQJKSJ3Gp4YBxwHl0P0XiCEAGLACSNLy2LzVche6nAiwAGbAASNLo2rrU8Chgzy7+nAUgAxYASercSEsNm3TyGwd8FVg2OoiKZwGQpN4MLDU8nrSqYGXgSNLowLOBuYqyCvD5Dv9Mk0pQY1kAJKlYTVxq+B46mwqwAGTAAiBJ5RlpqeGjgbm68TWcCmgUC0A1bMOSYMGlhjPIa6nhysAXx/jf+pknzbcY6ReiyGPVSl+BpLItCewOnAk8SPGfGUUd+4/htZxe4PMdPobnUxccAZCkehhpqWEv+/IX7cukfRFG4ghABiwAklRPg5caTqc+Sw1XIn3DlzQGTgFIKtKKwBHAd4FniJkKOGCEfF8o8HmcAiiJIwCSlJ86LDX8EgufCnAKIAMWAEnKW9RSw5VI90aQNAKnACRF2RD4OPBT4BWK/yw6aJjn/HyBj+8UgLJmAZBUB4OXGj5AMZ9Fj5PuhzDY5wp6bAtAiZwCkKT2GLzUcE2KWWo4DThjyP/nNQDSfI4ASKq7xUijA6cAt5IuJuzkM+ngQY91aod/1hEANdYkLACS8jJ4qeHTjP6Z9ARvTAWcMob/3gIQzCkASdJwBi81nMboSw2nAmfP/2enAKT5HAGQ1CRTgUOAc4BHWPCz6RDgZIr7rHMEQFmzAEhqssFLDR8FzsMCIAEWAEntMZU0dWABqDmvAZAkFelJ4OHoEBqdBUCSpBayAEiSiuYqgAxYACRJRbMAZMACIEkqmgUgAxYASZJayAIgSSqaIwAZmBAdoCXmkrbQLNKzBT+eJKlFxkUHkCQ1zuKkuwsW4QXg1YIeS5IkSZIkSZIkSZIkSZIkSZIkSZIkSZIkSZIkSZIkSZIkSZIkSZIkSZIkSZIkSZIkSZIkSZIkSZIkSZIkSZIkSZIkSZIkSZIkSZIkSZIkSZIkSZIkSZIkSZIkSZIkSZIkSZIkSZIkSZIkSZIkSZIkSZIkSZIkSZIkSZIkSZIkSZIkSZIkSZIkSZIkSZIkSZIkSZKkzv0/5hxqzKl1xLwAAAAASUVORK5CYII=;rotation=90;" parent="Qdo3hB_uDaMukJDxGay6-1" vertex="1">
          <mxGeometry x="466.59577545525644" y="1201.851851851852" width="61.27015233250841" height="35.64814814814815" as="geometry" />
        </mxCell>
        <mxCell id="Qdo3hB_uDaMukJDxGay6-58" value="" style="verticalLabelPosition=bottom;sketch=0;html=1;fillColor=#A153A0;strokeColor=#ffffff;verticalAlign=top;align=center;points=[[0,0.5,0],[0.125,0.25,0],[0.25,0,0],[0.5,0,0],[0.75,0,0],[0.875,0.25,0],[1,0.5,0],[0.875,0.75,0],[0.75,1,0],[0.5,1,0],[0.125,0.75,0]];pointerEvents=1;shape=mxgraph.cisco_safe.compositeIcon;bgIcon=mxgraph.cisco_safe.design.blank_device;resIcon=mxgraph.cisco_safe.design.flow_sensor;rotation=90;" parent="Qdo3hB_uDaMukJDxGay6-1" vertex="1">
          <mxGeometry x="476.02195273718075" y="906.4814814814815" width="47.13088640962185" height="36.66666666666667" as="geometry" />
        </mxCell>
        <mxCell id="Qdo3hB_uDaMukJDxGay6-59" style="edgeStyle=orthogonalEdgeStyle;rounded=1;orthogonalLoop=1;jettySize=auto;html=1;entryX=0.36;entryY=1;entryDx=0;entryDy=0;entryPerimeter=0;endArrow=none;startFill=0;fillColor=#e3c800;strokeColor=light-dark(#B09500, #f0cd05);curved=0;strokeWidth=5;" parent="Qdo3hB_uDaMukJDxGay6-1" source="Qdo3hB_uDaMukJDxGay6-58" target="Qdo3hB_uDaMukJDxGay6-55" edge="1">
          <mxGeometry relative="1" as="geometry">
            <Array as="points">
              <mxPoint x="499.6109613851965" y="855.5555555555557" />
              <mxPoint x="501.9675057056776" y="855.5555555555557" />
            </Array>
          </mxGeometry>
        </mxCell>
        <mxCell id="Qdo3hB_uDaMukJDxGay6-60" value="" style="verticalLabelPosition=bottom;align=center;html=1;verticalAlign=top;pointerEvents=1;shape=mxgraph.pid2valves.valve;valveType=gate;actuator=solenoid;rotation=90;" parent="Qdo3hB_uDaMukJDxGay6-1" vertex="1">
          <mxGeometry x="481.9133135383835" y="1069.4396296296297" width="35.348164807216385" height="30.555555555555557" as="geometry" />
        </mxCell>
        <mxCell id="Qdo3hB_uDaMukJDxGay6-61" style="edgeStyle=orthogonalEdgeStyle;rounded=1;orthogonalLoop=1;jettySize=auto;html=1;exitX=0;exitY=0.5;exitDx=0;exitDy=0;entryX=1.064;entryY=0.586;entryDx=0;entryDy=0;entryPerimeter=0;endArrow=none;startFill=0;curved=0;strokeWidth=5;fillColor=#e3c800;strokeColor=light-dark(#B09500, #f0cd05);" parent="Qdo3hB_uDaMukJDxGay6-1" source="Qdo3hB_uDaMukJDxGay6-57" target="Qdo3hB_uDaMukJDxGay6-60" edge="1">
          <mxGeometry relative="1" as="geometry" />
        </mxCell>
        <mxCell id="Qdo3hB_uDaMukJDxGay6-62" style="edgeStyle=orthogonalEdgeStyle;rounded=1;orthogonalLoop=1;jettySize=auto;html=1;exitX=1;exitY=0.5;exitDx=0;exitDy=0;exitPerimeter=0;endArrow=none;startFill=0;entryX=-0.081;entryY=0.527;entryDx=0;entryDy=0;entryPerimeter=0;curved=0;strokeWidth=5;fillColor=#e3c800;strokeColor=light-dark(#B09500, #f0cd05);" parent="Qdo3hB_uDaMukJDxGay6-1" source="Qdo3hB_uDaMukJDxGay6-58" target="Qdo3hB_uDaMukJDxGay6-60" edge="1">
          <mxGeometry relative="1" as="geometry">
            <mxPoint x="499.58739594199164" y="1069.4444444444446" as="targetPoint" />
          </mxGeometry>
        </mxCell>
        <mxCell id="Qdo3hB_uDaMukJDxGay6-63" value="" style="shape=image;verticalLabelPosition=bottom;verticalAlign=top;imageAspect=0;image=data:image/png,iVBORw0KGgoAAAANSUhEUgAAAMgAAADICAYAAACtWK6eAAAABHNCSVQICAgIfAhkiAAAAAlwSFlzAAALEwAACxMBAJqcGAAAChVJREFUeJzt3XnsHGUdx/E3pZSrLUdLQUQEEUUNRIWIBIFGkUgkcmggIhGjwQuNGomiYgyJBGI0gLdGPJAjGjV4IAZSDzwRrwByiAcip0BtLS1HW+ofX1aWX38z+8zOzjMz3fcredKk+e3MM7Pz2Wd35jlAkiRJkiRJkiRJkiRJkiRJkiRJkiRJkiRJkiRJkiRJkiRJkiRJkiRJkiRJkiRJkiRJkiRJkiRJkiRJkiRJkiRJkiRJkiRJkiRJkiRJm5TN2q5AB80FTgEOBbZouS5t2wDcCpwP3NtyXdQR3yQuDMsT5XZgUZ2Tqk3DfrR/MXa1nF7jvPbWnLYr0DFPa7sCHTaV58aAPNm1wMNtV6Kjft52BdQNJwEP0f5Xmi6VLzOlN3Sm8qAT7AwcCMxrYd/nA7vO8v/vAu7KXJfHgFuAP2fer1ToZmb/FN+nzUpNK3+DSCUMiFTCgEglDIhUwoBIJQyIVMKASCUMiFTCgEglDIhUwoBIJQyIVGJu2xXIYAGwNbCK6Mau5swFdiR6AS9//F91zELgrcAVxJs03CP2DmLM+Ql0d0KGvvXmPQj4NHAjsI4n6vsI8HvgLGDv1mqn/9scOA1YQdogoNuBE1upabm+BGRf4Keknev1wIXATm1UVLAYuJrxRstdQnwF64o+BOQUooWoeq7vAQ5uob5TbRHRvNcZUnoTMYKwC7ockB2JD5Q653oNcFjuik+rOcAyJjPueh1wDrBl1iPYWFcDcjRwN5M51w8Au+et/nR6G6PfjNXAnaR/JbgBOCDnQczQtYDsAFxUUKfZyv2k/Q78Yc6DmEZbEt9pi96AZcAhPPGsZx7wKuD6ktcMylrgo7QzaUOXAnIUMVHEqPO1grhBsvPQa58JnMeT72zNLIfkOIhpdQLFJ/58imds2Qq4uOS1w+U64AWNHcHsuhCQ7YCvFtRjZrmZ8tu4rwQeLXjtxY3UXkDxRX4NaT0EjgfuK9jGzNbkTPI9N2k7IEcSz4tGnZf1wLmk3QH8cME2VmBvjsb8hdlP+rEVtrEE+HbBdmaWPxJz9zatrYAsBC4o2PfM8leqfT1aQNy9artlnCpFsx/uMMa2TiTurIy6MB4lPg2b7KLTRkCOIB6cjjr+x4BPAduMsY+i51RH1Ky7ChS9iePaBfhuyXaHy++A59XYV5mcAVkAfLFgfzPL34GlNfZ1WcF2j66xTZWYdEAGTmLjPlyzlUeADxJdXCYpV0BeBtxWsK+ZrcZngPk191cUkGNqblcFmgoIwFOAH5TsY7j8FnjOhPYLzQdkPvBZ4sIfdWy3AS+d0H4NSGZNBmTgDaQ99HoYeB+TaU2aDMhS4qtSSvC/QHwFmxQDklmOgAA8leg6n3JR/Rp4ds39NRGQbYku6Smtxu3Ay2vsq4gBySxXQAbeBKws2e+gPAS8l/Hv7086IIcQt2VTAv4l4nZvEwxIZrkDArEM2ZUl+x4uv2C8gUKTCsg2RFePlFbjDuAVY9S1CgOSWRsBGXgz8N+SOgzKamLhmyoLFU0iIAdT/CB1ZvkKsH2FbY/LgGTWZkAAnk56V/ufAc9I3G6dgGwFfILoBjKqTncR/aRyMSCZtR0QiJbh7cCDJfUZlAeBdzC6NRk3IC8uee3M8nXG63FQhwHJrAsBGdiT9PHZPwb2KNlW1YBsCXyM8m7lg3IP7T25NiCZdSkgEC3DO4nfHaMu1FXEzCuzqRKQF5E+3PgSYnhyWwxIZl0LyMBexJriKRftlWw89DQlIPOAs0lrNe4FjpvsIY7FgGTW1YBAPAN5D8VdvIfLSmKWkIFRAdmftFGRG4g5wBY3c4iVGZDMuhyQgWcBvyTtYr4C2I3igOxHDANem7Ct+4gBYV1iQDLrQ0AgWpPTKB6/MlxWUPx8JWW8xgZiANiSLEdWjQHJrC8BGdgH+A1pF/k45QHgtdmOpjoDklnfAgLR2/f9RO/fSYbjMmLAV5cZkMz6GJCB5wLXUj8Yy4kBXn1gQDLrc0AgxrV/iPHmuN0AfJ8Y2NUXBiSzvgdkYF9imYDUYPwHOLmVmtbTy4A4J1H/rCdmV5FK9b0F2Zx6X7G+Rb/W2+hlC9JnfQ7IpH6k/xt4Tea6j8uAZNbHgGwOnE7abd6VpHdf/wbd6VJSxIBk1reAVHlQeBXRibFqp8Qq067mZkAy60tAqnQ1WQW8ZZZtVO3WvmNjRzM+A5JZHwKyN+mdFZdRPpBqMDAqZTjt3cRaKF1iQDLrckDmAO8mrbv7g8Sw3dSJHQ4i/bfJheQfWlvEgGTW1YDsRfqKuz8hhutWVWVyhjvJOzlDEQOSWdcCUmXI7erH/7bKdECzqTq9z3Y191eHAcmsSwHZk2gNUi7Uq4lWZlK2Jn2CuH/R/ARxRQxIZl0IyGbESrurSuozKGuI3yVNde85lG5MMVrEgGTWdkB2J55XpFyQ405DWtW2xApQKa3JP4HDM9RpwIBk1mZATiFt6tG6E1mPaynpyxx8nvqL46QwIJm1EZDdgB+V7Hu4TGIphDrmA58jrTX5B5NbKKeIAcksd0DeSP7FdCbhcOLr1Kh6D5Za27ahehiQzHIFZFfg8pL9DZdrmOxybJNSZbHOvwGHNVAHA5JZjoC8nhjBN+qiegT4AN1pNYpUWe75k4y33HMRA5JZkwHZBfheyT6Gy7U0tyR0ExYCF5B2bLcCL5nQfg1IZk0F5HXEHFMprcYZxOQLfXQksbLUqONcD5xLPJCsw4BkNumALAG+U7Ld4fIHYrKFvtse+Bppx3wL0VFyXEUBaWs5hk1e0VjucfobnUDMZzvqInkU+Aj9bTWKHEWsOJXSmnyc6CxZVdGM90fUrLsKFHWrqDIOYjExA3rKJ+ifgOdPqO5dtANwEWnn4ibgwArbXkBx1/9JrP+uWVzK7Cf8V6Q9uT6OGKY66mJYC5wJbDHZ6nfWMcRKVKPOyzrgHGIg1yhnFGxjBU491ZgTKX7zzqO4K/lWxBp9KZ+U1wEvbOwIumsRxR9AM8v1lC9QeiTx1XS2117cTPUFcaGXtQBXEbco5wz9/bGkLT6zDjiLmDRhmr2amFpo1PlaTvRUHl7ibQ9iUFfZhBOTuoWsAqcy+s1bQ4zRTll4ZgNwA3BAzoPouJ1I/532GHGu70/428tzHsS0mkP6QKWUVuNs0r5TT6PjSbvTl1KWE+vMK4PFxF2VOm/YjcTUOiq3hFjBqs65XkN0x1dGOxGDksZ5wy6l/lPiaXMqxT+8y8o9xDh6tWAusXrTStLerLuIzogaz/6kzxS5nnhi36fJtjdZ2xMzhixj47HiDxCdEE9mvKfB2thSYoz7zBGMa4mHq2cTq/32Ut1pZ/pgEdFtexXxYErN2Zo43+uJH/Tr2q2OJEmSJEmSJEmSJEmSJEmSJEmSJEmSJEmSJEmSJEmSJEmSJEmSJEmSJEmSJEmSJEmSJEmSJEmSJElSBv8DhZGUYnvjcPsAAAAASUVORK5CYII=;rotation=0;" parent="Qdo3hB_uDaMukJDxGay6-1" vertex="1">
          <mxGeometry x="595.0274409214759" y="631.4814814814815" width="82.47905121683824" height="71.2962962962963" as="geometry" />
        </mxCell>
        <mxCell id="Qdo3hB_uDaMukJDxGay6-64" style="edgeStyle=orthogonalEdgeStyle;rounded=1;orthogonalLoop=1;jettySize=auto;html=1;exitX=1;exitY=0.5;exitDx=0;exitDy=0;entryX=0;entryY=0.5;entryDx=0;entryDy=0;endArrow=none;startFill=0;curved=0;strokeWidth=5;fillColor=#e3c800;strokeColor=light-dark(#B09500, #f0cd05);" parent="Qdo3hB_uDaMukJDxGay6-1" source="Qdo3hB_uDaMukJDxGay6-65" target="Qdo3hB_uDaMukJDxGay6-63" edge="1">
          <mxGeometry relative="1" as="geometry" />
        </mxCell>
        <mxCell id="Qdo3hB_uDaMukJDxGay6-65" value="" style="shape=image;verticalLabelPosition=bottom;verticalAlign=top;imageAspect=0;image=data:image/png,iVBORw0KGgoAAAANSUhEUgAAAMgAAADICAYAAACtWK6eAAAABHNCSVQICAgIfAhkiAAAAAlwSFlzAAALEwAACxMBAJqcGAAAChVJREFUeJzt3XnsHGUdx/E3pZSrLUdLQUQEEUUNRIWIBIFGkUgkcmggIhGjwQuNGomiYgyJBGI0gLdGPJAjGjV4IAZSDzwRrwByiAcip0BtLS1HW+ofX1aWX38z+8zOzjMz3fcredKk+e3MM7Pz2Wd35jlAkiRJkiRJkiRJkiRJkiRJkiRJkiRJkiRJkiRJkiRJkiRJkiRJkiRJkiRJkiRJkiRJkiRJkiRJkiRJkiRJkiRJkiRJkiRJkiRJkiRJm5TN2q5AB80FTgEOBbZouS5t2wDcCpwP3NtyXdQR3yQuDMsT5XZgUZ2Tqk3DfrR/MXa1nF7jvPbWnLYr0DFPa7sCHTaV58aAPNm1wMNtV6Kjft52BdQNJwEP0f5Xmi6VLzOlN3Sm8qAT7AwcCMxrYd/nA7vO8v/vAu7KXJfHgFuAP2fer1ToZmb/FN+nzUpNK3+DSCUMiFTCgEglDIhUwoBIJQyIVMKASCUMiFTCgEglDIhUwoBIJQyIVGJu2xXIYAGwNbCK6Mau5swFdiR6AS9//F91zELgrcAVxJs03CP2DmLM+Ql0d0KGvvXmPQj4NHAjsI4n6vsI8HvgLGDv1mqn/9scOA1YQdogoNuBE1upabm+BGRf4Keknev1wIXATm1UVLAYuJrxRstdQnwF64o+BOQUooWoeq7vAQ5uob5TbRHRvNcZUnoTMYKwC7ockB2JD5Q653oNcFjuik+rOcAyJjPueh1wDrBl1iPYWFcDcjRwN5M51w8Au+et/nR6G6PfjNXAnaR/JbgBOCDnQczQtYDsAFxUUKfZyv2k/Q78Yc6DmEZbEt9pi96AZcAhPPGsZx7wKuD6ktcMylrgo7QzaUOXAnIUMVHEqPO1grhBsvPQa58JnMeT72zNLIfkOIhpdQLFJ/58imds2Qq4uOS1w+U64AWNHcHsuhCQ7YCvFtRjZrmZ8tu4rwQeLXjtxY3UXkDxRX4NaT0EjgfuK9jGzNbkTPI9N2k7IEcSz4tGnZf1wLmk3QH8cME2VmBvjsb8hdlP+rEVtrEE+HbBdmaWPxJz9zatrYAsBC4o2PfM8leqfT1aQNy9artlnCpFsx/uMMa2TiTurIy6MB4lPg2b7KLTRkCOIB6cjjr+x4BPAduMsY+i51RH1Ky7ChS9iePaBfhuyXaHy++A59XYV5mcAVkAfLFgfzPL34GlNfZ1WcF2j66xTZWYdEAGTmLjPlyzlUeADxJdXCYpV0BeBtxWsK+ZrcZngPk191cUkGNqblcFmgoIwFOAH5TsY7j8FnjOhPYLzQdkPvBZ4sIfdWy3AS+d0H4NSGZNBmTgDaQ99HoYeB+TaU2aDMhS4qtSSvC/QHwFmxQDklmOgAA8leg6n3JR/Rp4ds39NRGQbYku6Smtxu3Ay2vsq4gBySxXQAbeBKws2e+gPAS8l/Hv7086IIcQt2VTAv4l4nZvEwxIZrkDArEM2ZUl+x4uv2C8gUKTCsg2RFePlFbjDuAVY9S1CgOSWRsBGXgz8N+SOgzKamLhmyoLFU0iIAdT/CB1ZvkKsH2FbY/LgGTWZkAAnk56V/ufAc9I3G6dgGwFfILoBjKqTncR/aRyMSCZtR0QiJbh7cCDJfUZlAeBdzC6NRk3IC8uee3M8nXG63FQhwHJrAsBGdiT9PHZPwb2KNlW1YBsCXyM8m7lg3IP7T25NiCZdSkgEC3DO4nfHaMu1FXEzCuzqRKQF5E+3PgSYnhyWwxIZl0LyMBexJriKRftlWw89DQlIPOAs0lrNe4FjpvsIY7FgGTW1YBAPAN5D8VdvIfLSmKWkIFRAdmftFGRG4g5wBY3c4iVGZDMuhyQgWcBvyTtYr4C2I3igOxHDANem7Ct+4gBYV1iQDLrQ0AgWpPTKB6/MlxWUPx8JWW8xgZiANiSLEdWjQHJrC8BGdgH+A1pF/k45QHgtdmOpjoDklnfAgLR2/f9RO/fSYbjMmLAV5cZkMz6GJCB5wLXUj8Yy4kBXn1gQDLrc0AgxrV/iPHmuN0AfJ8Y2NUXBiSzvgdkYF9imYDUYPwHOLmVmtbTy4A4J1H/rCdmV5FK9b0F2Zx6X7G+Rb/W2+hlC9JnfQ7IpH6k/xt4Tea6j8uAZNbHgGwOnE7abd6VpHdf/wbd6VJSxIBk1reAVHlQeBXRibFqp8Qq067mZkAy60tAqnQ1WQW8ZZZtVO3WvmNjRzM+A5JZHwKyN+mdFZdRPpBqMDAqZTjt3cRaKF1iQDLrckDmAO8mrbv7g8Sw3dSJHQ4i/bfJheQfWlvEgGTW1YDsRfqKuz8hhutWVWVyhjvJOzlDEQOSWdcCUmXI7erH/7bKdECzqTq9z3Y191eHAcmsSwHZk2gNUi7Uq4lWZlK2Jn2CuH/R/ARxRQxIZl0IyGbESrurSuozKGuI3yVNde85lG5MMVrEgGTWdkB2J55XpFyQ405DWtW2xApQKa3JP4HDM9RpwIBk1mZATiFt6tG6E1mPaynpyxx8nvqL46QwIJm1EZDdgB+V7Hu4TGIphDrmA58jrTX5B5NbKKeIAcksd0DeSP7FdCbhcOLr1Kh6D5Za27ahehiQzHIFZFfg8pL9DZdrmOxybJNSZbHOvwGHNVAHA5JZjoC8nhjBN+qiegT4AN1pNYpUWe75k4y33HMRA5JZkwHZBfheyT6Gy7U0tyR0ExYCF5B2bLcCL5nQfg1IZk0F5HXEHFMprcYZxOQLfXQksbLUqONcD5xLPJCsw4BkNumALAG+U7Ld4fIHYrKFvtse+Bppx3wL0VFyXEUBaWs5hk1e0VjucfobnUDMZzvqInkU+Aj9bTWKHEWsOJXSmnyc6CxZVdGM90fUrLsKFHWrqDIOYjExA3rKJ+ifgOdPqO5dtANwEWnn4ibgwArbXkBx1/9JrP+uWVzK7Cf8V6Q9uT6OGKY66mJYC5wJbDHZ6nfWMcRKVKPOyzrgHGIg1yhnFGxjBU491ZgTKX7zzqO4K/lWxBp9KZ+U1wEvbOwIumsRxR9AM8v1lC9QeiTx1XS2117cTPUFcaGXtQBXEbco5wz9/bGkLT6zDjiLmDRhmr2amFpo1PlaTvRUHl7ibQ9iUFfZhBOTuoWsAqcy+s1bQ4zRTll4ZgNwA3BAzoPouJ1I/532GHGu70/428tzHsS0mkP6QKWUVuNs0r5TT6PjSbvTl1KWE+vMK4PFxF2VOm/YjcTUOiq3hFjBqs65XkN0x1dGOxGDksZ5wy6l/lPiaXMqxT+8y8o9xDh6tWAusXrTStLerLuIzogaz/6kzxS5nnhi36fJtjdZ2xMzhixj47HiDxCdEE9mvKfB2thSYoz7zBGMa4mHq2cTq/32Ut1pZ/pgEdFtexXxYErN2Zo43+uJH/Tr2q2OJEmSJEmSJEmSJEmSJEmSJEmSJEmSJEmSJEmSJEmSJEmSJEmSJEmSJEmSJEmSJEmSJEmSJEmSJElSBv8DhZGUYnvjcPsAAAAASUVORK5CYII=;rotation=90;" parent="Qdo3hB_uDaMukJDxGay6-1" vertex="1">
          <mxGeometry x="455.99660248266" y="570.3703703703704" width="82.47905121683824" height="71.2962962962963" as="geometry" />
        </mxCell>
        <mxCell id="Qdo3hB_uDaMukJDxGay6-66" style="edgeStyle=orthogonalEdgeStyle;rounded=1;orthogonalLoop=1;jettySize=auto;html=1;exitX=1;exitY=0.5;exitDx=0;exitDy=0;entryX=0.36;entryY=0;entryDx=0;entryDy=0;entryPerimeter=0;endArrow=none;startFill=0;curved=0;strokeWidth=5;fillColor=#e3c800;strokeColor=light-dark(#B09500, #f0cd05);" parent="Qdo3hB_uDaMukJDxGay6-1" source="Qdo3hB_uDaMukJDxGay6-65" target="Qdo3hB_uDaMukJDxGay6-55" edge="1">
          <mxGeometry relative="1" as="geometry">
            <Array as="points">
              <mxPoint x="497.36126400310826" y="760" />
              <mxPoint x="500.590882600531" y="760" />
            </Array>
          </mxGeometry>
        </mxCell>
        <mxCell id="_f_hJpnyNUHGm4c5hjVc-5" value="" style="shape=mxgraph.pid.vessels.gas_bottle;html=1;pointerEvents=1;align=center;verticalLabelPosition=bottom;verticalAlign=top;dashed=0;fillColor=#60a917;fontColor=#ffffff;strokeColor=#2D7600;" parent="Qdo3hB_uDaMukJDxGay6-1" vertex="1">
          <mxGeometry x="11.04041014145392" y="570.3703703703704" width="60.386448212328006" height="315.74074074074076" as="geometry" />
        </mxCell>
        <mxCell id="_f_hJpnyNUHGm4c5hjVc-6" value="" style="shape=mxgraph.pid.vessels.gas_bottle;html=1;pointerEvents=1;align=center;verticalLabelPosition=bottom;verticalAlign=top;dashed=0;fillColor=#a20025;fontColor=#ffffff;strokeColor=#6F0000;" parent="Qdo3hB_uDaMukJDxGay6-1" vertex="1">
          <mxGeometry x="1094.3202688234076" y="570.3703703703704" width="60.386448212328006" height="315.74074074074076" as="geometry" />
        </mxCell>
        <mxCell id="_f_hJpnyNUHGm4c5hjVc-16" value="" style="shape=image;verticalLabelPosition=bottom;labelBackgroundColor=default;verticalAlign=top;aspect=fixed;imageAspect=0;image=data:image/jpeg,/9j/4AAQSkZJRgABAQEAYABgAAD/4QMARXhpZgAATU0AKgAAAAgABgEOAAIAAAAQAAABYgE7AAIAAAAXAAABcodpAAQAAAABAAABipybAAEAAAAgAAACqpydAAEAAAAuAAACyuocAAcAAAEMAAAAVgAAAAAc6gAAAAEAAAAAAAAAAAAAAAAAAAAAAAAAAAAAAAAAAAAAAAAAAAAAAAAAAAAAAAAAAAAAAAAAAAAAAAAAAAAAAAAAAAAAAAAAAAAAAAAAAAAAAAAAAAAAAAAAAAAAAAAAAAAAAAAAAAAAAAAAAAAAAAAAAAAAAAAAAAAAAAAAAAAAAAAAAAAAAAAAAAAAAAAAAAAAAAAAAAAAAAAAAAAAAAAAAAAAAAAAAAAAAAAAAAAAAAAAAAAAAAAAAAAAAAAAAAAAAAAAAAAAAAAAAAAAAAAAAAAAAAAAAAAAAAAAAAAAAAAAAAAAAAAAAAAAAAAAAAAAAAAAAAAAAAAAAAAAAAAAAAAAAAAAAAAAMzA0TC1IREY0LTc1LVJXAEJHT0JFTFxCR29iZWwgKEJHT0JFTCkAAAAB6hwABwAAAQwAAAGcAAAAABzqAAAAAQAAAAAAAAAAAAAAAAAAAAAAAAAAAAAAAAAAAAAAAAAAAAAAAAAAAAAAAAAAAAAAAAAAAAAAAAAAAAAAAAAAAAAAAAAAAAAAAAAAAAAAAAAAAAAAAAAAAAAAAAAAAAAAAAAAAAAAAAAAAAAAAAAAAAAAAAAAAAAAAAAAAAAAAAAAAAAAAAAAAAAAAAAAAAAAAAAAAAAAAAAAAAAAAAAAAAAAAAAAAAAAAAAAAAAAAAAAAAAAAAAAAAAAAAAAAAAAAAAAAAAAAAAAAAAAAAAAAAAAAAAAAAAAAAAAAAAAAAAAAAAAAAAAAAAAAAAAAAAAAAAAAAAAAAAAAAAAAAAAAAAAAAAAAAAAADMAMAA0AEwALQBIAEQARgA0AC0ANwA1AC0AUgBXAAAAQgBHAE8AQgBFAEwAXABCAEcAbwBiAGUAbAAgACgAQgBHAE8AQgBFAEwAKQAAAP/hBK9odHRwOi8vbnMuYWRvYmUuY29tL3hhcC8xLjAvADw/eHBhY2tldCBiZWdpbj0n77u/JyBpZD0nVzVNME1wQ2VoaUh6cmVTek5UY3prYzlkJz8+DQo8eDp4bXBtZXRhIHhtbG5zOng9ImFkb2JlOm5zOm1ldGEvIj48cmRmOlJERiB4bWxuczpyZGY9Imh0dHA6Ly93d3cudzMub3JnLzE5OTkvMDIvMjItcmRmLXN5bnRheC1ucyMiPjxyZGY6RGVzY3JpcHRpb24gcmRmOmFib3V0PSJ1dWlkOmZhZjViZGQ1LWJhM2QtMTFkYS1hZDMxLWQzM2Q3NTE4MmYxYiIgeG1sbnM6ZGM9Imh0dHA6Ly9wdXJsLm9yZy9kYy9lbGVtZW50cy8xLjEvIi8+PHJkZjpEZXNjcmlwdGlvbiByZGY6YWJvdXQ9InV1aWQ6ZmFmNWJkZDUtYmEzZC0xMWRhLWFkMzEtZDMzZDc1MTgyZjFiIiB4bWxuczpkYz0iaHR0cDovL3B1cmwub3JnL2RjL2VsZW1lbnRzLzEuMS8iPjxkYzpjcmVhdG9yPjxyZGY6U2VxIHhtbG5zOnJkZj0iaHR0cDovL3d3dy53My5vcmcvMTk5OS8wMi8yMi1yZGYtc3ludGF4LW5zIyI+PHJkZjpsaT5CR09CRUxcQkdvYmVsIChCR09CRUwpPC9yZGY6bGk+PC9yZGY6U2VxPg0KCQkJPC9kYzpjcmVhdG9yPjxkYzp0aXRsZT48cmRmOkFsdCB4bWxuczpyZGY9Imh0dHA6Ly93d3cudzMub3JnLzE5OTkvMDIvMjItcmRmLXN5bnRheC1ucyMiPjxyZGY6bGkgeG1sOmxhbmc9IngtZGVmYXVsdCI+MzA0TC1IREY0LTc1LVJXPC9yZGY6bGk+PC9yZGY6QWx0Pg0KCQkJPC9kYzp0aXRsZT48ZGM6ZGVzY3JpcHRpb24+PHJkZjpBbHQgeG1sbnM6cmRmPSJodHRwOi8vd3d3LnczLm9yZy8xOTk5LzAyLzIyLXJkZi1zeW50YXgtbnMjIj48cmRmOmxpIHhtbDpsYW5nPSJ4LWRlZmF1bHQiPjMwNEwtSERGNC03NS1SVzwvcmRmOmxpPjwvcmRmOkFsdD4NCgkJCTwvZGM6ZGVzY3JpcHRpb24+PC9yZGY6RGVzY3JpcHRpb24+PC9yZGY6UkRGPjwveDp4bXBtZXRhPg0KICAgICAgICAgICAgICAgICAgICAgICAgICAgICAgICAgICAgICAgICAgICAgICAgICAgICAgICAgICAgICAgICAgICAgICAgICAgICAgICAgICAgICAgICAgICAgICAgICAgIAogICAgICAgICAgICAgICAgICAgICAgICAgICAgICAgICAgICAgICAgICAgICAgICAgICAgICAgICAgICAgICAgICAgICAgICAgICAgICAgICAgICAgICAgICAgICAgICAgICAgCiAgICAgICAgICAgICAgICAgICAgICAgICAgICAgICAgICAgICAgICAgICAgICAgICAgICAgIDw/eHBhY2tldCBlbmQ9J3cnPz7/2wBDAAMCAgMCAgMDAwMEAwMEBQgFBQQEBQoHBwYIDAoMDAsKCwsNDhIQDQ4RDgsLEBYQERMUFRUVDA8XGBYUGBIUFRT/2wBDAQMEBAUEBQkFBQkUDQsNFBQUFBQUFBQUFBQUFBQUFBQUFBQUFBQUFBQUFBQUFBQUFBQUFBQUFBQUFBQUFBQUFBT/wAARCACeAhQDASIAAhEBAxEB/8QAHwAAAQUBAQEBAQEAAAAAAAAAAAECAwQFBgcICQoL/8QAtRAAAgEDAwIEAwUFBAQAAAF9AQIDAAQRBRIhMUEGE1FhByJxFDKBkaEII0KxwRVS0fAkM2JyggkKFhcYGRolJicoKSo0NTY3ODk6Q0RFRkdISUpTVFVWV1hZWmNkZWZnaGlqc3R1dnd4eXqDhIWGh4iJipKTlJWWl5iZmqKjpKWmp6ipqrKztLW2t7i5usLDxMXGx8jJytLT1NXW19jZ2uHi4+Tl5ufo6erx8vP09fb3+Pn6/8QAHwEAAwEBAQEBAQEBAQAAAAAAAAECAwQFBgcICQoL/8QAtREAAgECBAQDBAcFBAQAAQJ3AAECAxEEBSExBhJBUQdhcRMiMoEIFEKRobHBCSMzUvAVYnLRChYkNOEl8RcYGRomJygpKjU2Nzg5OkNERUZHSElKU1RVVldYWVpjZGVmZ2hpanN0dXZ3eHl6goOEhYaHiImKkpOUlZaXmJmaoqOkpaanqKmqsrO0tba3uLm6wsPExcbHyMnK0tPU1dbX2Nna4uPk5ebn6Onq8vP09fb3+Pn6/9oADAMBAAIRAxEAPwD9U6KKKACiiigAooooAKKSvmXxt+1Jc/EPxTq/gb4Mahpc02jI0nin4h6kok0TwxCoJc53KtzchVYrGGCKQS7YVwAD174tfHTwN8DtHGoeMvEFvpQkSSSC0AaW6uQi7n8qBAXcKBkkDCjkkDmvn7xZ+0X8VfH2k6PL4P0WHwDB4m3L4asdUgF54k1hRtP2j7KSILC2UMGeedpdqkfuy7xo3C6X4X0dtUs/EX9max4xuPEUuNA07XZidc8ezxlWF9qDsv8AoejwHY6W4RIsBHeMs0UTV77x8muePvEvhDRNS1j4jeP7gpbeN9b8GW7faXwx26Lp8zMsOnWcZZhJPJKrKWbG+eRpIwDN1z4X+GPEmjyv4+8Rap8R9P0iX7B4k8c6tNNeNqmou4U6N4fsQfKV2kzE8sUe5ctGhMpd4fQoYtX0XVoYre30fwh4m03T99vZv5f/AAj3wu0dkI8+fBEU+pSR5wM4xkArArvNueGf2a/id4r8Q6Xrmu+JNI+Fei6TZrYeH/CfhCxivZtBtShSQQ3c6eUlw6EI0yQEqoKowBYt3Xhv9h34O6HM91qPhmTxlqM1w17c3vi69m1Vrm5YKHnkjmZojIwVcsEH3QOgFAHzLqHxm+FWkeHrOD/hIdJ1Dwh/aC3GjeF9Q1iOTUPGOquQ/wDbWvSLuaK0BUSqsi8hFdkyIIFjm+PPw/utS1qLUfiTLf3OowJJ4w8X6Tp92L7WUAZo9F0VUjP2e1XlWkDhhv4ZpZHmj+/PDfgfw54NR00Dw/peho/3l02yjtwfrsUVuUAfnPZftFeDI5dEv7PX9I0PxKLc2OhwppVzJovw70sqEYxR+SFutRdPl4AXIK5WFG8+o3x8+FcOkC2tbybUPC+n6gJ9K8L6pbXv2rxJqrSjdrWvzmAlYVkAlCMGO1VkZSRDDH+kdJQB+c03x4+Ht1ea1DqnxAvbw6lAk/jDxXYaXexal4hADGPRtIjEebazTlWYMGG/AYySSTpJZ/tG+DI7jRtQtfEek6H4qNs1ho/l6TcyaJ8O9K2hGW2j8gJdai6YUkALwV+WFCJv0WpKAPzd/wCF+fC2PSo4bS8kvPDenah52jeFdWtr7ztc1Rpfm1zxBOYCwjEg85UIY4CyFWfyoorM3x2+HM1zrdtqnj7UNRt9QhS58YeJ7HSr2PVfFLAN5ekaXGsebaxTJQkMDhiobfJLOP0aooA/OqH9o3we19pWoQeKNJ0TxY9q1jpk0GlXMmi/D3ScLGYrNPICXOoSJhS2Avyn7sMYSWhH8fPhfDpVvHZ3RutA0zUPN0Hwnq1tfCTVNTMp3a74gnMBYqJB5yoQ5xtkIaQxJF+kdLQB+cs/x2+Gsk2u2mqeOtS1Oxv4luvGHiOy0q8j1fxfKAfL0nTo1jza2Cbihww4YqGy809Sr+0b4QuNU0y+TxZpeh+K5bRrKxvLTSrmXRvAGk/KhttPT7OEuL+RAoL7Qp2ngQxLFJ+ilFAH5uw/Hz4Y2ulWf2G5WfRtKvy/hvwfqttff6XqBlJbXvEE5hLMQ4Myp87DKyENKyLDYuvjv8Mm/t2y1Hxxqmq6ZfRrdeL/ABBaaVeJrPjScKdml2Max5tdPTcU4ZeCyBvmmnb9G6KAPzqH7RfhKfV9PvB4x0vRfFc9o9lbalZaVdS6R4D0gFUNppiG3C3F9IoUGQqFOzJAiiSF6MPx9+Glnpdi+nXET6XpN6W8L+DdUtr7Y98ZCW17X5zCWd9+Zlj+dgWV/mmdfJ/SOkoA/Oa8+PHwwMOv6ff+M9U1jRbtRd+Ltbt9JvE1rx1dKvyafaRrGPs2nIGMeAwBUsgIUzTSSj9ojwlca1ZXjeNdN0bxXdWb2i6zY6XdSaV4H0kFVNjpSG32z3sihcylQp2biPLjjhb9FaKAPzdt/wBoD4aWel6dJp0sI0/SLwnwn4M1O2vjDFeb2L69r03lFpJd+ZVjy7AsGy0zgwzX/wAefhcLTxBp954w1XXNDuR9r8WatDpV2mt+PbtV+Wxt0EQ+zaagby9oZQV3RqQnmyS/o5SUAfnUP2g/CNxrdtdSeO9P0jxTeWbWsviDT9Mu5NN8G6SCq/2doyG3xLdyALumZADs3kbY4oDWtf2hPhtY6bpk2nTW0Vno92R4P8F6laXxtbK53Mz67rs3lFpbjcWkWPLOGcHLTSF4f0fpKAPzhv8A48fC/wCx+ILC88W6rr2gzH7X4p1BNLu01v4gXqoNtpGoiAttNQHy9oIVlDRjEYkea3/w0F4RuNchuZ/Htjpfii+s2trzxPpumXb2HhLSgVH9maJGbf8AeXLgLunKDO3zCMJDAP0UpKAPzis/2hvhvY2GkXGmy2ltBo9yy+DPBmoWd8bHSpssz65rcoiLS3RJZ1jyzhnGGM0jSxM1D47fC1rLxDYXninVdf8AD8j/AGvxJcjTLpNa+IV+EXbbgCILb6agIjCAhWVTGNsSuZv0hpKAPzs/4aC8ITa6lxcfEGz07xPqNm1vqXizTNMvGs/DGlgj/iVaFGbf553AXdOyDO0SMp2wwLVtf2hvhzZ2eiz6ZNZ2MWkTmPwX4N1Cyvm0/RH+Zn1vWpBETNdkl2WPczB3wGMskk0f6O0UAfm7efHT4WtY6/YXnibU/EPhwy/a9fL6ddJrPxD1EIuEk/chYNNQEIEBCsqGPCwowm0f+GgvB02u+fc/ES3svE2qWhh1nxlpel3jW/h7TAQRpGgxm3yZWwu6coCSBIylhDCn6I0tAH5ww/tFfDy3tdDn0yew01NJmMXgrwffWN62m+HThmfWdYcRkzXpy5WPczB32h/MklnWK8+OXws/s/XrG68Q6l4h8NLP9r1mGXT7pdY+IepBVwbg+SFg01MqoTIVljKbVhQrN+kVFAH53H9oTwZNrUk938RYrPxLq1p5Wv8AjXS9LvTHounA5GjaBGYN29to3Tlc5xIQX8qKKnb/ALRPw+t7XQLjS7nT9KOmSGDwX4TvNPvW0vwsuxi+raqwiJnviGfEYYkPJsD73mnr9HqKAPzcufjh8KhputWFzr+o+IPDMdz9r1OzuLG5XV/iFqm1cSXj+SFh05flUR8KyxldqwxhJtJv2hvBs2sTzXfxHW28S6xa7PEfjjTdKvgNK08Hcui+H4zBuDHA3T43ZxIQ0hiSH9EKKAPzgtf2h/AENv4eudLvdN0eXT2Nv4N8MXWnXr6V4Qi2MW1PUisX7/UGUtiME7XcxhwWmnLJ/jj8KV03V7CfWb/xB4Wguvtd3pl1Z3K6r8QNVIX/AEnUJDCEh09TtxGflZY8FFhjWKX9IqKAPzvP7Q3gyfV7qa7+I/leJdYtAvifxzpul3ytYWOSy6J4fjMO5eR80+NwJEh3Ssiw0LP9oXwFHD4du9M1DS9EubHNt4P8O3Om3j6R4LtzGxbUL4LF/pGospYBAfldzGHG6adv0fooA/N6X47fCWHTtR0+41q61rwpBei5k0jUYLiPUvH2rsV/0zVJmhCQ2CEKQjYUrGMoIo0hk2o/jt4I1TVNfurr4v6FHrc9mreMfHNjeiCa3tPvx6F4dhc+YByN0yAsCwYlp3Xyf0HrF8ReB/DnjBVXXvD+l62qjCrqNlHcAA9QN6mgD4+Ok3erNp1hFoei2V9Y6dv0Tw3eiO58P/D/AEko6nUtSYMYp76RBJtTcf41Vggnnbi9I+Ffh3w8uma78PpfFvhGLVg9t4WtfDOomx1nx5fE75NTuoWU20Fgm7eC0AXYwchUMEUn0t4o/Yd+D3iG2v47Hwy/hB74AXDeE7ybS0lwcr5kMLCGTBwQHjYcdK4Txr+zj8XPDc+v6n4W8cQ+O59Yjis76415F0/xEumxnJsLLUoAIYQ/zHd5CkM7PvDEMoBS0H9pL4lfDCDUf+EsXSfi/wCGdDmg03VfFPhi3/sy6GpO5SSytraRjHqEqPtUiBozuYJtMgZB9HfDX4xeEvi1a3T+HNWW4vLFhHf6VcxtbX+nyH/lncW0gWSFuDw6jOMjI5r470fxgYfF2h+H7jRYfhr47sUns/C3hrxPaC20TwZpsSlJtRilLeTqd28ZO0wucBmT92izyOzVPB+l6o2ga9oEPiDS9WmM8PgnULCUQeMPGF8+DPql7cSJ+604DDGOZPLKbSUVfs8LAH33RXzJ8Lf2p7nRNWbwr8VL3TJWi1D+xbP4haLC8Wg6nfqo32js5IgulbcpXcY3ZHCsrgxL9NUALRRRQAUUUUAFFFFAH5j/ALen/JxGo/8AXha/+gUUft6f8nEaj/14Wv8A6BRQB+nFFFFABRSUUALSUV8k/tSeO9d+MviS9+CngHVodC0mzgF58RfGk8my10TTdpc2nmbl/fTICWXcu2POSAzMgBz/AMYPjJrX7UOvax8Pvh1rUWg/DjT43bxN4387y4pbZN3nFZsgJaja67gwa4ZHCMkCSStz9xceCfh/8LdHRNKj0j4RWJN54d8K6i4s5fF9xGVY6xqzFf3Ono2x1Rk+b92ShJt7cs1zXPBPw5+FmnXVzpkll8JrL/S/D3hS6BivfGl1HsA1TUht3JYo3lGOEp837nKc28Fekfs9/s7+IPHHikfGP42K974rvJEutH8M3SbYNHjXJgeSLJHnLkskZJEJYn5pi8lAGb8Mvg54++Mmoan4m8T6vqvhPR9cVF1DUo4zY6/rkC5KW0KnLaTpqljshU/aZPmeVo3ds/UXgH4d+GfhZ4XtPDnhHQ7Hw9odqP3VlYQiNAT1Y45Zj1LNlieSSa6GloAKKKKACiiigAooooAKKKKACiiigAooooAKKKKACiiigAooooAKKKKACiiigAooooAKKKKACiiigAooooAKKKKACiiigAooooAKKKKACiiigAooooAKKKKACiiigDm/iD8N/C3xX8MXHh3xhoNj4j0W45ez1CESJuGcOueVYZOGUgjsRXyx8R/gn40+DN1qeqaTqfiHxv4E1ZI7TXNRtpGu/Gul6bGCfsllcOw862L/AHtuLhBJI6mWQqyfZdJQB8I6NJpvxM0GwGmW/ha8sZtCLafp0ojufCngDw66srXN2DiO4vpY0ceWxGNrrlIkmkk6L4O/HJvgLJoGi+JdS1C6+DGvzG18G+JPFNwP7ZtI1CKr3se1W+wSu4EFy4DRh4lmCrJGw6b9oD9n2fwvNe+OfAPhxvE2mSXw1nxR8Lobj7NY+JJ4wSl0iBSoulcRyMhUrceUodS4Vq80h17R/G3hXWvEt9r0uu+GPEMMVr4t8cJp0iT+IBISsfhnQ7Rx5iRZdonAG8Mzrlp2lkiAPvKivlX9m34mah8M/F0PwZ8alLJ5IFvfDCNf/bZNNgkDyR6HeT85u4IU3IdzeZEDgny9z/VNAC0UUlAC0UlFAH5kft6f8nEaj/14Wv8A6BRR+3p/ycRqP/Xha/8AoFFAHrV58SPjHp1xq0918atDPh7QAbXXNetfBKy2/wDapZVTTNNQXG+9n8wlGwBhiiDMhdEfb+Mf2hJtQs9HuPifoWneI/IOqazZ3fhaD7N4Y0olilxqVwLnYtw0anECHBYMQ3lI0lS2lpqVrrWm2dnpuk+HPE2iad5+kaFc7H0X4ZaQyMP7QviG2S6hJGH2ru/vqrCMTTSVIIdLutB0e2ttI1HX/Cmr3rXfh/wvfPt1b4kamNrPq+quy/u9PQhJAHUKVEbFNgt4GAI1+JXx0vNHt7/Tviba3ra9O1v4L0xvBMUWoeIwq5e8aJrgfZLFcq3nSc+WdxALxI8158SvjFYzatdTfGvRX8NaH/oWra9a+CFlil1YsqJpmmRi433kwkLI2BwxRBmTzFR2o6kxPijVNV8UyymSVdO8a/ELSY3EtzKH2x+GvDsa5cASN5bPHlw7Ny1wzNDZtbTU7XXLG2tbHR/DXinQ9N83TtJm8t9D+F2jtGwN5dkERzajJEHwu7GNyqywrLLKAZ+oat8fPEaf8IxqHxhtfDWvNaHUte+waBZwR+FNLJLLNqF40siLctErbYosfOGYOIo2kLdN07RLXwt4b0XRfDl9qPgm8u2ufC3gu8kK6n4/1EFXk1rWJHG5LJW2y5lHzfI7qcwQGWOPTLrRdEsrPQ9Q1vwvql6174c8J6hIV1X4hakCrvrWsOy5jsUOyQCRQu0RsyY+z29ZOtN4h8eePbDwF4d1c614k8cXc1l45+JFoDGsGmWeDe6fpC/N5NvE0qW3m8gTXByXm8xowDt/2d/h1cfG7x3P8UvFd5b+JNJ06/P9l6gq5h1q/gZk+2QpkiOwtWMsVnFklm826ctJIjD6/qjoOhaf4X0PTtG0mzi0/StPt47S0tLddscEMahERR2VVAAHoKv0AFFFFABRRRQAUUUUAFFFFABRRRQAUUUUAFFFFABRRRQAUUUUAFFFFABRRRQAUUUUAFFFFABRRRQAUUUUAFFFFABRRRQAUUUUAFFFFABRRRQAUUUUAFFFFABRRRQAUUUUAFFFFACV8gftBfD+f4FfEBPih4bfTdM8Pa1dNb6rfanE09v4R1C6KxPr8EBPl5dcRTZ2/M6SM20z7vsCs/xBoGneK9B1LRdXs4tQ0nUraSzu7OdcxzQyKVdGHcFSQfrQB8S614b0rXNA0nw8mgavfaFqN5Ld+F/C8t5Jaa/4t1QEGTxFqV4AJbSCMlXV/lYAoxXJgtw3T/G3xZ8M6RdNB8dP7Y8KaGF0q48R3vhGC+n1XWMiNdO0tI5I2vHDhkaRgTvAUMzLKY8rTNMn+HeseO/AXinUtUs00RrW21bxZ9pkuvEPirRp3ddG0rTcAOhYLJbytHgmSKQqd8ryx9kiappuuoiR6L4b8Y6JpWY4j5b6B8KNEaP77dIptRkiU+2AcbbdSZwCuPF/x/h1S30i++K/h3TtZtLX+1fFCzeGYDYeEtPKs6Ne3Qudr3LIMiJMLw7bhEod6KfEb4931jZvpvxHtbnU/EErL4P0W48FRwX2rW6qu/ULuM3H+hWaswbe/wA+wp8vmyJEX29vZ3GneHtO03w/fapot/dvqHhXwVqkjLqPjC+DK8niDXZGG5LVH2SBZF/55sULmCBC4ubW4sfEOpal4ivdT0i+uk07xZ430uJlv/Fd8GZI/D2gxqSyWyuXjLRnOfMUMZDPPGAOuPid8YIY9V1MfGbS7rwppso0061ZeBkmbWNXLBBp2kwC53XTBw6NJnbuG0Z2StHYbxl8e7XUodL1H4t+G9N1WwtP7U8WtL4ZgbT/AAnYlC6faroXO17pk2sIk+X77kiMI0llm1TTNccl9F8N+MND0v5m/dvoHwn0Roug6RTajJCPpgfw26gT5trawTWvhzTtP8OXeoabeXL6j4R8C6rI633iW8Dh5PEWvyMC6QK5WQLICQSjFWlaGGMA+Pv2jfirrp+KV3P4ymGtz3NrbT6dqVzpzaTPc2TRKY5JLRGfyizeYQrkPsKFlUnaCud/bAmk1X466xcRazB47vGgt11DXp4wltcXaxKsos1LALbIRsUKWGUbLu25iUAe/wCq/tO+C/C8sPhTxD4B8cPp9uL/AFW68LXFqLu48U67Zki6udVvl+Se1imhkQCJWj/0UtIqxJFFVTTP23PAHiO40+fWdc8T6TrfjDRZtV8XeLotInS5gsYWfboukhM+RAWWUfaFJAwzF/OcvF518Vbx2+N3icK5DaX4N+IU6c/dMl5qy5/8fryt4zY2GijJH2f4GXLLz086e5J/Pzz+dAH0jb/ty/DW1Giajp0kei6nZ6TNJ4X059Mc6T4JsVDISkJA+2anKisAwxEPMWMSKhleSg/7d3wSt9Pk0ySx8QX/AIQsbEeIodDvlWW78X68zjLa3OMgbXVXWMBoiEDH5Uhhr5G8QXTwwIN7AwfC61jHPQSPGSPp+9P515v4kuHYSfMcw+HNPiGT0DCAkf8Aj1AH6O3X7Z3w1vG1Ka98bahd6vrOhx6t4v8AEthbPBf3KkjyvDOlAkfZdpkO5g24AStuMrNKn1F+wxbwfEPRta+MI8PQeGdO1xItC8KaLEiAaZoNizpDGuANpkne4kcDg/JjIUGvwn84/aIlLELJfwuR9FHP/j1fvt/wTxYv+xf8K2YksdNkJJ/6+JaAPouiiigAooooAKKKKACiiigAooooAKKKKACiiigAooooAKKKKACiiigAooooAKKKKACiiigAooooAKKKKACiiigAooooAKKKKACiiigAooooAKKKKACiiigAooooAKKKKACiiigAooooAKKKKAPmH9sjR7zwbq/gT4u6Jd6foeoaFdv4f1XXr+zS4XTNL1ArC97hurW8oidcnaFkl3fKWB+VLj9r74K29nPYWOovqvhPR/EK22m6DqTvv8U6o37x/EOs3DKWktEkXIUKzBkDsnESR/Z/7ddx9k/ZS8eXB5EMVpKc9MLeQN/Sv5/L+6aTxHashwI7qVlX0BmY/wBaAP0ouP22fhXNfahBq3ivWb7+2tW/szxj4o02ELqmswoG8uDTY0cm00kHcuQwm2ycKZZJJlPDP7e3w61hfD+rW88nhfxhdX0vhnQLMaO1zpngDSVAQ3FrDGpW5uZYtg3AcEhCqxIVm/PT4fhpNa8HxqfkfX5LlSP9gQnP6V6N8D4yNa+DMjOwLatrF8TnoyxxfN9f3Q/KgD7H0/8AbC+Fd/HoOm6No+va54e/tadtD8N3FlPK2t6pGVkfW9buNpa4HmMsiwxCVlKGR13CJY4rL9sLwz4wvtD0ey0bxxrmpfEhpItV8Qvapp1z4puo5fJt9GspjJtstPLvtZ0YtGjkH97JLKPnn4B3RspP2dmDlfIsvF1+OcbWEE/P/kEflUnwsuGXxZ+wzZE/c1Nrnb/v+Iphn8ox+VAGv+2doGq+C/jU+l+LU0zVtaj0qxL2+lwm107S4/JAjsbKNelvCoCKzAM3zMQN2AV1X/BTr/k7LWf+wdY/+ihRQBT+IEwl+PPxtUn/AI8/APi8j/geqXa/+z1554imENnJ/wBMfgZYr/38mg/+OV1/xCusfHb9pRgf9R4K1+P/AL61oL/7U/WvPvG03l2XiF84EHwb8Pw/9/G0w/8As1AHE+Mpilrq8n/PD4e6Jbkf75sT/WuI8Ww+XP4gH/PLTNMiH/fqD/Cu48fQmNPH6fwweFvDkI/GOwP9DXJePl8rUfF6/wB2DTk/KOP/AAoA5Z13ajGo4/0pW/JVr9+v+CeK7f2LfhUP+oY5/wDI8tfgKp/4nP8Auyf/ABsV+/n/AATz/wCTL/hT/wBgtv8A0dJQB9E0UUUAFFFFABRRRQAUUUUAFFFFABRRRQAUUUUAFFFFABRRRQAUUUUAFFFFABRRRQAUUUUAFFFFABRRRQAUUUUAFFFFABRRRQAUUUUAFFFFABRRRQAUUUUAFFFFABRRRQAUUUUAFFFFABRRRQB87/8ABQqQxfsY/FNxwV01CPr58WK/AJjnXrU9+Afrls/qK/fn/goj/wAmWfFX/sGp/wClEVfgO4/4niD+62f/AEM/4UAdR8N1/wCJx4I/6+7yT8kX/wCJr0H4QSeTdfCFu8dt4guPyhl/+IrgPh8RHqXgxv7qag/5Rv8A4V2Xw3uDbt8NH7Q+H/Ecp/79Xv8AhQB2nwom8mz+D0gODZ+CPGN5/wCQ9TX/ANlre+Gttn4zfsX2/wDz76fYXZH+/wCIbw5/lXNeAVNvpvhADrbfCTxPcj23nVBn9a774aWe39oL9lRSP9T4U0KX/vvXJT/7PQB0n/BTv/k7PWf+wdY/+ihRR/wU7/5Oz1n/ALB1j/6KFFAHC/EK6/4vL+1rNni38O6nb/i/iC1/xNcv8TozDpvxMUcGz+HfhG0+mRpTEfpWt8QpGXxz+2vd/wDPF3tB9G8RWq/+y1H8aLQWsfx6HTyfD/g+1H18ix4/8hn8qAOJ+KkH2eT4sL0MWm+HYPyht/8A4iuE+I/GreNcdprFPyj/APrV6F8bZFj1P4zKOnn6Hbj6iLp/45XnPxEl3a74zz9yTVbeD/vlZP8A4mgDmUXOvTA+rEfX5cfqK/fz/gnp/wAmX/Cn/sFt/wCjpK/AOzUv4klU9rlE/OVR/Kv3+/4J9wm3/Y3+GEJ6xWEsZ/C4lH9KAPoaiiigAooooAKKKKACiiigAooooAKKKKACiiigAooooAKKKKACiiigAooooAKKKKACiiigAooooAKKKKACiiigAooooAKKKKACiiigAooooAKKKKACiiigAooooAKKKKACiiigAooooAKKKKAPnL/goocfsV/FT/sHR/8ApRFX4Dq27VCx7TMv5B6/ff8A4KLf8mVfFT/sHRf+lMVfgQo/0yc9jdyqPwVv8aAOj8Fy+XeeGOcbLHUpP/IU3/xNdh4JLR2nhxc/Nb+BdfuR/wACF+BXDeGT/wAg1x96HQ9Sk/NLgD+deheFbfy4bdv+eXwz1Jz7b3uh/wCz0Ad74TtxDa2PH+q+B2qv/wB9y3n/AMcr0X4cQ+Z+0R+ztj/l18EeFCf+B6vCf/alcDpv+i2N23TyfgU34ebOB/7V/WvTPhPB5v7QHwsfqLLwZ4CT6eZf6c3/ALPQAf8ABTv/AJOz1n/sHWP/AKKFFH/BTv8A5Oz1n/sHWP8A6KFFAHkvxE8Sabca9+1faWb3OoXvjLWrd9A+w2cs8eoW7a15wmR1Ur5bKItjE4cyKFzmpPjPrEniqb46vomh+ILu21jWPD+iWU39kyqvn26MjW8hI+SUtGAsfLNzgcV+hiTWmn6Vr002uyvorSxaV4p8Z6FbGO41u4QmOHw14ehT5kgRi0RaMkqS6qxmaWWLUSPVLPXliWPR/DnjDSNM8xYXMcmg/CrRjHnzJORFPqUkS5GTjAOCsCs04B+V3xgs9ZutU+K93ceFfEdhYy+KdPt7ia/0x4Vs9iT7Y5yxxHIwZCEJ5HOemea1j4e+LfFGpXQtPCusGTX/ABgbCwhuLcQyy3HOLfYxDCQCePORtGcFq/WeD7NcaZ4c0/T9Bv8AVtDvbpr7wn4L1WRhqPjG+Vld9f1uR1LR2qPslAkXr5bFC5ggRt1eW9xY+ItS1LxHd6lpV5dJp3izxvpULLfeKb0MyR+HtBjU7kgVi0ReM5yXAcymaaMA/JnR/gz42XVItUHhDVrq3u/E6eHbUQQh/P1KORXktFION4AOD907WwflOP3K/YZJtf2a/DukTxtaarot1qGmalp8hBlsrqO9mDwSYJG5cjkEgghgSCDXl6vquk65JhtG8M+MNH0vL4Mb6B8KdFaPPPSKbUZYhn0wP4bdf37v2avEmnfCr40N4dittR0nwl8VIZdZ8OLr900mp3uoWcareXtzGy742vYvLnXecn7O5ZUZ9gAPsqiiigAooooAKKKKACiiigAooooAKKKKACiiigAooooAKKKKACiiigAooooAKKKKACiiigAooooAKKKKACiiigAooooAKKKKACiiigAooooAKKKKACiiigAooooAKKKKACiiigAooooAKKKSgD5l/wCCk2sWGk/sY/ENL65W3N9FbWdup5aWVrmIhFHc4DH6AntX4m2/wT8dXElosHhPV5HvNLuPF0Qjt97f2OMr9swD9zcrdeemAdy5/Yv49+NE+Jn7RmieD9J0e18ZXHgfF7beHriTFvc69PGPIuLr5CEtrG2Zpnk6+ZdwIgaTC1gySafcaLrd5f65qGseFb+9Wy8SeLdPiK6n491IEomh6LGrZjskKtGTG2CFkVX/AOPi4AB+Qek6LrFhp/26Xw9q8drJ4XneGZrQqssUjyRidCcb4txYblz9xzjCkj0KPTte0SLXkufCXiCF9N+G0dreK1hn7KJ2jdJpsN+7iZZQwZsHkfKO36l3Woata+ILu6uLrRfDni7RdN2X2pIsUmh/CzRmjU/ZoMqI5tQljVM5G3AUlVhWOOWhYWRk/wCEa03S/C9xcC5le/8AB3gLVpHFxqMofMniTxFIwLqgdvMWOTLBmXKtOyJCAfnBrV5qmiw+LLS98MeJrG9i+E2maQLe60WdGQmayLzPkfJB8soErYDHA6nFeofCP4h+GbH4wQazeXd1puh2un+AdJtdTvrCaC23Ws+nyXLPIy7Y0VLS6cOxCssLMCRzX2fPdabdeHtanvNZ1HxB4R1W+W08ReJ7OL/iZ/EXU/mRNG0mNW+SwQ74yUYLtEih9v2i4NnVbrUZNU1j+1LzRdF1/TdLNvrmomOKfQPhvorID9gt0ZfKuL+WPbuLLjBVmUQiKGQA+Of+Cm0izftX6u8bK6NpliVZTkEGEYINFcR+0hotp4O+JTabb2moaZ4bTT7RvD2neKvMu7+003yV8mN8tviXIdlhky8asqtjG1SgD9BIodV0/X444o9H8N+MNF0rMULeW+gfCjRGjPzv0im1GSIHvjAIysCs0+ZBb2dxpnh7TtO8PX+qaFfXb3/hbwXqkjLqPjK/DK8mv67I67o7VHKSBZF7xsyFzBAnq8n7CvgCbT7mwk1/x5Lp91ef2jc2kni29aK5u9yv9olUviSTeqtufPKr6CrLfsU+DpNQv79/FnxEe/1G3S0vbtvGV+ZrmBd22F38zJQeY/yggfOT1oA8gupoJ7LxHqOpeIb3UtKvbpNP8W+N9Kidb/xTeBmSPw9oMakslurloy0ZzkyKGMpnmj1Nuq6br2SNG8N+MtF0rr+7fQPhRojR9ukU2oyQj6YH8Nuv7/0a1/Yf8D2X9iG38S+P4DoURt9I8vxdej+zYzH5ZS3G/EYMYCHbztGKib9hTwBJp81g+vePHsJr3+0prV/Ft60U15vEn2iRS/7yTeqtufPKj0FAHlNtaQTWfhzTtO8N3mo6ZeXT6h4S8D6rI633ia8Dh5PEWvyMC6QK5WQLIM5MbFTKYYY8Pxlo6+KPDes6ra+J0kv4dWtppfic+n/abvXPE1vIfsOm6Ja5P+iQTbo22kgqZkDMzXEy+1+IP2HfD+pW+uS6Z8Q/iNo2t6xaLZXmq/8ACTTXclzCocRxSrPvDxjzH+UbTh2wQTmvKbW+8S+GfHWp+HfEk2j+HPiB4Z0txYeJPs0Vp4b8L+F0RUk1TTbRmINzJ/qnVyRGyhSRCqrMAfU3wL+Kx+LngGHU7ywOieJbGZ9L8QaI7Bn0zUogBPASCcrkhkYHDxvGw4avQq+DNC1i/wDg/wCONF8c+CPD2qPb61bLBP4IaOa68R+KtIhLPNr10rH93dI8u6MSgPIj+UzLJJHHF9seCfG2hfEbwppnibwzqlvrWg6nCJ7S+tW3RyoePqCCCCpAKkEEAgigDbooooAKKKKACiiigAooooAKKKKACiiigAooooAKKKKACiiigAooooAKKKKACiiigAooooAKKKKACiiigAooooAKKKKACiiigAooooAKKKKACiiigAooooAKKKKACiiigAooooAK88+OXxUb4T+BzfafYf234o1K5j0nw/oqsFOoajNkQxEkjagw0kjZ+SOORv4a6jxp400P4d+FdT8SeJNSh0jRNNiM11eTk7UXIAAABLMSQqqoLMzBQCSBXw5eeIZPj1q158V/HNtquh+CFkfQtB0q2JbVL6KVtp0vT40b/j6u2QC6nQ5SNPs8bqqXMwALPhnw/oHhvwRrSnU73UPDOramw8Y+M9MjI1f4j65I7b9L0oIQwtfM3xloyo2qyIwAnnXpLm41W1166uJ7nR/DfivQ9L8u81CLy30L4V6MYwfs1uCBHNqMkQXJxjAUkLAscc1S81DxPdfErTfCXh2HSIvjXNpoitrW2jW40P4VaEyquVRQFmvHQIoAC+Y20fJboA/omi/sG+E7Pw3Z6Tq3jj4ha+sF0uos1x4kmgSS9EvnfaTFDsUyebmTcwZs4yTgYAPOdP03zF8L6Xpfha4njlmfUfBvgDVpHE9/OHDSeJfEUjAuqiRhIqSZcOykhp2RIWzSabc6DrV1d6zqWu+FdVvls/EXiqwjK6t8RNTBZU0fSUVsx2CEPGSjBdokVX2/aLg+uy/sSeC7ifV5pfFPxCln1iFLbVJW8ZX++/hRWVI5m8zLIFdwF6YdvU0Q/sS+C7e60y5h8UfECG50q3Nppssfi+9BsICFVooPnxEpCICFAyFA6cUAeX3dxqtrruo3VzqGk+HPFOi6b5Wp6zCEfRPhho5jUiyswVEc2oSRhMttxgIzKsSwwyV9N0uRn8LaXpfhWV3aRtQ8F/D7VncSSyB90niXxFIcuMSN5io+XDsOGuGVYfUF/YT+H66fDp66948Gnw3w1SO0/wCEtvTELwS+d9pK7/ml8wl97ZO7nsKmm/Yh8E3MmsSTeJ/iFNLrUSW+qyP4xv8AfqESqyrHM3mZdAruoUnGGPHJoA/ML9rqeK8+N+qXNjrY8ZvNb27XfiXVI0jj1S4EYWSa0VjtFqCPLjEeUHlkBn5div1P0X9if4OabalNS8H2/iy6JUf2h4odtSuQiosccSySklI0RFVY1wqgcDJJJQB7nRRRQAUUUUAFeU/tB/A23+M2g6XcWZsrTxl4cu11PQNRvoPOgjuFKsYJ1HL28uxVkQeisPmRCPVqKAPgfQfFCavZ+J4PGA1fw7rS3Nva/EO381X8SeItTcH7NomlxxNuj05gT5UqFfMiY4KsbmZdDQfEXin9n7xh4k13w9pdhPaKja548+HOiNDDo/huAxoIBaXRKp/aZjUPJCAEuMsx8nMTyfRXxw+Ap+I15YeLvCeqp4N+Kuh28sOjeKktY5ysbqwe2uI3BEsDbm4IyjHehBzu+ZtBvLpfEFl8P9Q8Evp3i7R7lbnRPhreXUk9rqt+x8yXxHqOpMv+m26SbmBALq65ZDMYljAPsz4Z/FLwx8XvC8PiDwpqkeqaeztFIApjmt5l4eGaJgHikU8FHAI9K6qvga6046bqt38R/CnjO+sdcFwbG8+INrZi6l8f6w37tNMs9L3iKezi2FFkzuQRYSUKk89ey+Ff2w4/DN/eeH/jJo8XgnWtL+zxalr+lSvf+HIZplBjimvFXFpKcjMVxtwGQh2DqSAfStFVNK1ax13TbbUNNvLfUbC5QSQXVrKssUqHoyspIYH1Bq1QAtFFFABRRRQAUUUUAFFFFABRRRQAUUUUAFFFFABRRRQAUUUUAFFFFABRRRQAUUUUAFFFFABRRRQAUUUUAFFFFABRRRQAUUUUAFFFFABRRRQAUUUUAFFJVXVtXsdB0251HU72307T7ZDJPdXcqxRRIOrM7EBQPUmgC1XLfEb4neHPhR4fGr+JNQFnBJKtta28aNLc3tw5xHb28KAvNKx4VEBY+mAa8N8Y/tkt4k1nSvCvwU8Mz/ELxHrTSJZ61dK9roEEcbBZrp7gjdPDGSMtCGViQivvIFeS32h6f4g1W68aeKvFWqeMtNgnbR7jxbaQ+Xd+IrpyUOheGrWNsW9sxVkmuI2MkuJF87asssYBW8aapqf7R2sW/jf4nfa9E+Euh6iLfRPBujv595rmqZZI7aMo3+k3WQys8beVDh0jcsk1wlv4hePPEPhPxJpthpOlWerfHDUIv7H8P+G9JKSad4ItXjB+yW/HltdeUFee4K7UQAkCIQxTL4z8XeLNI8aWHhvwj4es/EHx5m09bXTvD+ksn9ifDLR3UKqtJt8tbh0CBpNuXwoRPKWOOT6G/Zs/Zk034E6bNqWo3p8S+PtTjI1TxBOCThn8xoIAxJSLeS7ZJeR/nkLNjaAWP2Xf2dbP9nnwPdW095/bnjHXbk6n4j1+Qs0l/eNknDOS3lpkqgY5xlj8zsT7LRRQAUUUUAFFFFABRRRQAUUUUAFFFFABRRRQAVxHxa+DPhL43eG/7F8WaabuGNjJa3dvM9vd2UpUr5kEyEPG2CQcHDAlWBUkHt6KAPirxr8P/il8GdUiv5/O8caXb2q6PpfjzS7COTUvB+lkATCPRokEc0zBVX7TCCSApeHZEI2xvBWs6P4007Q7bwPYW3iTThdTHwn4GN40qzXCv+/1/wASy8spDtvEUuX3MuVed1WH7uryP4pfsr/Dr4sT6hf3+kz6Jr99A1tceIPDd3JpmoSxsNrJLLCV85SONsodcHpQB8paN4F8O+DUPiPwV4p8T+GtKjvZIJ/E/g+UJN471yQti00vSX32f2WNwwEnl7cRkB9iSzn0PSfjd8bfA8lzZa5q3w/8Yr4f0833i2+vvP0aHQZCqtHay3sYmhmnZW3FUhUrwSAJI9x46+A/xi+G/wBu8UaF470Hxf8A2fpR06yvNe01dOv/AA/pygeamnfZo2thM6LgyPbjJWPOUQJXzt8P/wBrPwd4g1jR9AsvCF7aHStYttN8I+GLuYXGlyaxcTqn9r6tclhNcyiaRnA8s4IMmWldWiAPrHw/+2B4xuNU0PSdc+Avimx1rWrJtStNL0rVLC9uo7VSAZriN5YjboSQAZduWOzG4ECW3/bs0S50qw1OP4XfEuXT9Rvv7N0+6g0i2mjv7nLDZblLk+aD5chDrlCEZt20Zri9e0G20u2+J+naxqN/qeg+G7VdX+JGtJiPV/F8/wBmM0djFghbawWL5fKVwSp8obVMrzWodD8Sah8QvCukm9sdJ+IfirQ57q11Oxj3WPg7w/E0KPaaVEyANdP5sIM0iKCRuI2RRwUAdbeft1aHp8fiGW6+F/xLt4PDoB1ieTRYBHYkxiQK7/adpfYytsUlvmUYywBtQ/tpWc2s2Wjr8Ifip/bF5am+h09tAhWf7OCAZXQ3GYl3EL+825OQOQQPJ9LvLFfAvg/xTo2i2x8Ot4l/4R74feE7+Z2tl1Y3M0Ta1rMnLzz+bDPIoG8qSH3GWTzIrPiSx0/RbP4t2GtXuo6t4d8HwR6r8R9WXamr+MrprUXEdmmCFt7BImVfKVhkfugFTzGmAPQrf9u7QbzS9L1K3+GHxNuNP1a7+w6bcRaHCy30+HOyHFxlxiOQ7gNuELbtvNOuv27NCsYfEE9z8MPiZb23h4hdXuJNFgEVkxRXCO/2jaz7WQ7ELMN6gjJAPK2vh3xJqfxH8P6G2pWmlfETxPoEt8dZsEzaeEvD8ckMbWOjxsuPtDmSENPIqgkbypEcUAwNH1CyfwL4I8V6JotqmgTeIf8AhHvhx4SvpHazt9SM06NrOruCXnuPMhnkUAuVJDbzLKZYgD1aL9tC0m1u10VfhB8VP7ZurX7dHp7aDCs4t87fNdTcful3Hb+825OQMkHGfa/t4aBfabo+oW3ww+JtzY61c/Y9Lni0KFhfzYY7YQLjLjEbtvA2bVLbsc1534lstP0TS/i1ba3d6hrPhfwaqaj8Q9QO1dW8a3xtUnS1JBCQaekTovkqwyP3WFjD+d0Vt4X8S6l8TNH8Py6pa6Z8RvEmgSajda9p6ZtvC+gJLFEdO0aNl4mdpIg08irkgyFTsihUA6S6/bt0Gxt9fubn4Y/EuC08PusWrXUmiwCGzkKqwjZ/tG1pMOnyIWYF1BAYgVej/bOtJtcg0VfhD8U/7ZmtRfLp7aFAsy25baJZFNz+7UtlRv2kkMAPlOPJtG1O1uPBPw/8U6FotlDol7r39gfDTwneu7WNhfF5w2s6swJe4usw3DgAttLffMkrToviS10vQtD+LUWsTahrPhHwU63vj66dlGreN9SNtHMsEjDCQ2CRyRr5KkAgeVtWNWEwB6Ra/t4aDfadol/bfC/4nXNnrlx9l0maLQYm+3ybWbEK/aNzLtR2342BV3bsYJddft2aFY2uu3dz8MPiXBZ6FKINUum0WDybSYhSImcXGGk+dPkQswLqpG4gVztv4V8Sah8VNP8ADFxq8GnfEfxFoD6lqfiPTl/c+G9BSaOL+zdFRl+WVnZA08iqTjzSCUihj5fRtUgvvB3w38T+H9GsbTSNS1g6F8MvCl4XbT9Kuf35fWNUIJe4uyIZ3ABbaWwJN8sk4APWF/bPtH1uPRv+FRfFJdYe0F/9hbQ4FljtixQSyA3OI1LBlG8gkq2B8pxn2v7eGg32n6DfWvwu+KFza6/L5GkPFoERN+21mzEvn7igVGYyEBAo3FsEE+aeIrXSdD8N/FY6w+oa34M8EXQn8bSTOo1XxxqxgilWO4cYSKwRJYlEKnBA8vasSFJuvXwl4muvixB4SutbisviR4g0FtT1zxRp4Ij0HQ1nWIaXoiMP3bNJtDTyBSceaQzCKOIA3rj9uzQbOz1u8n+GPxKistDmFtqd02iwGK1nO3EJcXGGky6DYm5gXVcbjirw/bQs/wC2hox+EfxRTV/sY1B7J9Et1eK2LFBNJm5xGpZWA3kE7WwPlOPJtF1SLU/CXwy8S+HtH0+x03WNTOi/DHwtd7207RZdk7vq2pAHdcXhWKdgASFLbRJulkuKZ4gt9H0Hwr8Up9WF9rngfwPqAbxes7r/AGp451oxQSAXbgBI7FBNCohXhguzYsUflygHpln+3foWo2OgXlp8LPihc2/iB/L0do9AiLX52s5aJPP3FAisxkICBQGLYIJdcft2aDaWOs303wx+Jcdho1wLPUbr+xYDFbXBZVEBYXBDybnRdibm3MFxu4rCbwr4jm+KzeErvXFtPiPrmgf2r4j8WacCo0bRBP5a6VoasP3RMi4adwrceaQz+WsPIaBqSap4Y+FfiPw/pOn6dba/enSfhh4auVZtM8PDyZpH1S/UHdcXpjimYAEhS2wSAySzsAes/wDDaNkutPo7fCT4oJqsdmuoTWj6Jbq0FszMqyyk3O2NSyOBuIJ2MQMAkUbL9u7Q9SstAu7X4V/FGeDxA23R9vh+IPf4UuWijM+8oEBcuQFC4OcEZ8z1230bQfB/xMu9TS+1vwH4H1XZ4nt7mVf7T8ca6UgbffSY2rZJ58AEK5DBdpRYohFJ2EnhfxFN8ULnwpe679n+ImtaAuseKfF2ngodL0Xz2jTSdDU8wgyIwaZ9rcebhpCggAN64/bs0K00/V7+b4Y/EtLDR7kWN/dDRIGiguS6p5G4XB3yb3RNibjuYL14q237algutXGkN8JfigmqW1muoXNs+i26m2tmZlWWVjc7YwSj4DEEhGOMAmvKPD98+raD8KNf8P6ZpumDxLO2m/DLw9cIz6X4ZhFvLK+pXiD5ri+aGOUgDhS3liQb5Z3TWodE0HwR8Rr/AFC3vNb+H/gbWvs+u2F3Mp1Hxx4g/wBH/falLjaLNWngAiUEMFwUEcSwuAemWf7dmiahbaBPbfCv4oyp4gydHUeH4hJfqF3l4ozOH2BPmLkBQpBz8y5W4/bs0K10/VNQl+GHxMWw0u7Gn3t0uiQNHFdF1j+zgrcHfJvdE2puO5tvUEDm5vDPiCf4n6l4X1HXmj8f6p4fTWvF/jDT90cljo5mkSPSNEU8wKXjfdMxD/8ALX5pXUw8z4bupdY0f4S654f07TNJm8VM9j8NNCmjL6V4UtBbSTSahcRjm4v2gSQ/3QzeWHAaWaQA9Ub9tbT49Zu9Jf4TfE+PUrKzXULuB9Ft1FrbsWCyTObnZGCUfAZgSEY4wM1WtP26NGv4dBkt/hT8UpRr4Z9IT+wIlkvkVd7SRxmcNsCEMXYBcMpz8y58z1KPQtF8E/EC/vbS81r4feBtf+x6tpd5ODqHjbxEXgU3OqTY2/ZFkmgxEoYELzGI4kgbpbzw3rtz8SNd8M6pr8i+NLzQItb8a+LtP3RTQaU0kqxaPoqk5t490Uu6ViH58z5pZA8IB0tz+3doNnpupajN8MPiYun6de/2ZdXK6HCyJd+YsX2dcXBMknmMqbY93zHHUHFqT9tjTodYv9Lk+E/xOjv9Ps11C+ifRbcLZ27Ftsk0hudkYOxyAzBiEZsYGa8u8NTXOtaf8I9a0Kx0vSNQ8XRyWnw30aSIvpPg/T1tHnkvZYhg3F+1ureigt5QdVMksrNSXRNH8EeN764srrWPh74J8Rf2ffaPfXAN9408SGaCM3mrT7SDarLLDiNQwIUEpsijgoA9Ntf25dIvk0Jrf4U/FGU68rSaTH/YEQkvo1UM0kaG4DbApVi7ALhl5+YZjuP28NAtdNvtRk+GHxN+wWN//Zc9wmhQuovPNEP2dNtwTLJ5jBNsYb5sjsccveeG9ZuPiH4m8Narr03/AAlkugw65468W6fmK5Gms8wh0fRlzm2hzDKGkLBwDvy0spkixfDsl5qsPwj1XRbPS9H1jxlbSW/w80ww+ZpPgvS1tDNJdGHA+0ag1v7BAW8oOqeY8wB6ZL+21ptvqWpafL8KfibFeaXaLfaij6NbBbGBgxWSeT7TsjyEcgMwbapbGOajtv24tJvP7DEPwo+KUkmvI8ulRf2BEJL2NVDNIiG4DBArKSzAD5l5ywB8u1RtE0rwP4uvW0+41T4d+C/E/wDZUuh31zuvPGPiU3MMJvtYuNp3W6zyRERqHBCBimI4oF37zw3qc3jzxf4c1bXbh/Ea6FBrvj7xZYAw3c2nuZ/I0fRxu/0W3HkzBnLBwCWBaWUyxgHVz/t4aBb6Xd6k/wAL/icdPtb/APsqS4j0KF1a880Q/Z4wtwTLJ5hCYjDfNkfwti3N+21pdvqGq2M3wq+JkV1pNqL3UlfR7YJYQEMyvPJ9p2R5VHYBmDbVLYxzXnGgtf6h/wAKm1PSLbS9H8QeNbGSLwBYCDzNJ8EaQtqJpJ1hwPP1BrdgMkBMnywyxhzNS1FtH0rwT4hvU06bUvAPhPxV/Y0ehahclrrxZ4ma7itzqOs3G074FuHjZUUPkKHKHZFCgB6jB+29pdzJokUXwm+KTza5E8+lw/2BEJLuJFVnkVDcblQB0JZwo+dR1IFVm/by8PrpM+qf8Kw+Jz6dDqB0k3EehROsl4JfJ+zxBbgmZ/M+TEYYZDc/K2ORvfDd/J4z8ceHNX126m1e00S3174ieK7IGG+vrJxO0GkaUA3+i2oEMwZt4cAkgmSV5kr6J/ad9N8KdQ0qHS9G8UeNtPlTwLaJAH0jwNoq2qSySRQYHn37wSINxVUyfLBWNW84A9Bm/bc0q1vdXtJvhX8TIbjRrYXuqB9HtglhCVLh53+07Y8qrNtJ3bRnGMEpD+25ptxcaLbxfCX4pvda1DJc6bb/ANgRCW6hQKXlCG4yqASJ8zhR86jqQK8qvJNI07wTq2ow6ZJqPgXw14s/sOx8P6hclp/E/iVr1LdtT1q4wS8S3LKyoofhRIVJWKKPcvvDdyvij4haDrOt3lze6Zo1vr3xH8UWYMOoarbOk7waTpgDf6LaBYZgfnDgNgEySvOoB1//AA3loB0p9TX4YfE59PGoHSUuE0KJlnvBJ5XkQgXGZn8wFf3YYZVucKSLdx+29pVrda1bzfCz4lxS6HbC81bfo9sE0+EoZA0z/adqZRS+0ndtGcYIJ4HSf7Wv774W3mnR6Zo/jHxxpky+C4ooBJpPgTQ47eJ5Wt4NoE188MsQ3MqoSdmRFGUmxZn0qw8E3OqWultf+CNA8Xf2BpPh3Urpml8Q+JGvRbNqut3GGMiC5IdVAk+6JCCwjjiAPWIP22bK8vtFsbb4Q/FKa/1qGS5061OiW8clxCiqzy4e5XYgDp8z7Rl1HU4rkvEH7fWsw+H21rw98BvG2raf/aY0aKa9urG1F1eeb5Xk24SaVrg7wy7ogw+R+cKxFK88MyjxF8R9B1nWr26k0fSbfXfiT4mtB5Opa3C8U0sGlacA3+iWapDMCA4cA7Qd8sk9Tabp+u6hqXw/vLM6Xo/jLxZpU3/CKrbwCTSvA2hRxRGQWcBUCa+eKWJTI6qhPy8RR+XKAcn4o/am+POs319Yr4btPhxbaVGLzxLPDpf9rz+HbPyWlDSTyTxW7zMApWNUbCne2Fxu4WeBvEnjfTtZ8TeC/iZ8T/EM9tNdeEPC3jQxvBqDBUL6pe2yOtvZ26F1WOHyQQeSXkdVj53Xv2rvh/4X8SN4UsvDGtappXh7Xrmy0bQNRkjFvrGuQyDzdW1i63vJO3nHcibGGR5jZfyxF9A+DP2c/iv8TvB+qy+KfG2j+ET4xhjk8Qax4Xjmu9a1OMg/6Ol1OESzt0DFEiihbapYli8kjsAeY6t8WdE0Pwrf6r4jtvGf/CGaldfYvFnjNNPjt7/xXdJI0UejaZGs+6CwRi6fuCwK71V9zTTnq/h1pvxV+NnjDSdUg8Hax8JtP/s42+m6tqWmQRjw3p3yr9h0q0ZsQzvGFWS8mjLNgLHCsarj6X+Gv7MPw++F+o2mr2WkvrHiS1gW2i8Qa9M17fRRKu1Y4Xf5YEC/KI4VjQAAba9WoA88+DPwQ8PfBHw/Npuhws9xd3El3f6ldOZbu+ndizyzzNl5XJPLuSTgDOAAPRKZJGJGQksCh3DaxHYjn1HPQ+x7U+gAooooAKazbQOCeQOBTqKACiiigAooooA//9k=;clipPath=inset(0% 1% 0% 0%);direction=south;imageBackground=#FFD966;fillStyle=solid;strokeWidth=2;shadow=0;" parent="Qdo3hB_uDaMukJDxGay6-1" vertex="1">
          <mxGeometry x="472.73457341010965" y="387.03703703703707" width="45.59" height="152.11" as="geometry" />
        </mxCell>
        <mxCell id="DtA6F7GkJwA5GQcyedON-1" value="&lt;h1&gt;N2&lt;/h1&gt;" style="text;strokeColor=none;align=center;fillColor=none;html=1;verticalAlign=middle;whiteSpace=wrap;rounded=0;" parent="Qdo3hB_uDaMukJDxGay6-1" vertex="1">
          <mxGeometry x="5.1490493402511825" y="886.1111111111112" width="70.69632961443277" height="30.555555555555557" as="geometry" />
        </mxCell>
        <mxCell id="DtA6F7GkJwA5GQcyedON-2" value="&lt;h1&gt;GOX&lt;/h1&gt;" style="text;strokeColor=none;align=center;fillColor=none;html=1;verticalAlign=middle;whiteSpace=wrap;rounded=0;" parent="Qdo3hB_uDaMukJDxGay6-1" vertex="1">
          <mxGeometry x="1089.1604540878316" y="886.1111111111112" width="70.69632961443277" height="30.555555555555557" as="geometry" />
        </mxCell>
        <mxCell id="DtA6F7GkJwA5GQcyedON-4" value="&lt;h3&gt;&lt;font style=&quot;font-size: 15px;&quot;&gt;MV 4&lt;/font&gt;&lt;/h3&gt;" style="text;strokeColor=none;align=center;fillColor=none;html=1;verticalAlign=middle;whiteSpace=wrap;rounded=0;fontStyle=1;fontColor=#0066CC;spacing=3;" parent="Qdo3hB_uDaMukJDxGay6-1" vertex="1">
          <mxGeometry x="64.80496881323005" y="497.03703703703707" width="70.69632961443277" height="25.218518518518522" as="geometry" />
        </mxCell>
        <mxCell id="DtA6F7GkJwA5GQcyedON-5" value="&lt;h3&gt;&lt;font style=&quot;font-size: 15px;&quot;&gt;PCV&amp;nbsp; 1&lt;/font&gt;&lt;/h3&gt;" style="text;strokeColor=none;align=center;fillColor=none;html=1;verticalAlign=middle;whiteSpace=wrap;rounded=0;fontStyle=1;fontColor=#0066CC;spacing=3;" parent="Qdo3hB_uDaMukJDxGay6-1" vertex="1">
          <mxGeometry x="58.91360801202732" y="374.6722222222223" width="70.69632961443277" height="25.218518518518522" as="geometry" />
        </mxCell>
        <mxCell id="DtA6F7GkJwA5GQcyedON-9" value="&lt;h3&gt;&lt;font style=&quot;font-size: 15px;&quot;&gt;SV 1&lt;/font&gt;&lt;/h3&gt;" style="text;strokeColor=none;align=center;fillColor=none;html=1;verticalAlign=middle;whiteSpace=wrap;rounded=0;fontStyle=1;fontColor=#0066CC;spacing=3;" parent="Qdo3hB_uDaMukJDxGay6-1" vertex="1">
          <mxGeometry x="312.2421224637448" y="30.555555555555557" width="70.69632961443277" height="25.218518518518522" as="geometry" />
        </mxCell>
        <mxCell id="DtA6F7GkJwA5GQcyedON-10" value="&lt;h3&gt;&lt;font style=&quot;font-size: 15px;&quot;&gt;SV 2&lt;/font&gt;&lt;/h3&gt;" style="text;strokeColor=none;align=center;fillColor=none;html=1;verticalAlign=middle;whiteSpace=wrap;rounded=0;fontStyle=1;fontColor=#0066CC;spacing=3;" parent="Qdo3hB_uDaMukJDxGay6-1" vertex="1">
          <mxGeometry x="312.2421224637448" y="187.40740740740742" width="70.69632961443277" height="25.218518518518522" as="geometry" />
        </mxCell>
        <mxCell id="DtA6F7GkJwA5GQcyedON-11" value="&lt;font style=&quot;font-size: 16px;&quot;&gt;CV 1&lt;/font&gt;" style="text;strokeColor=none;align=center;fillColor=none;html=1;verticalAlign=middle;whiteSpace=wrap;rounded=0;fontStyle=1;fontColor=#0066CC;spacing=3;" parent="Qdo3hB_uDaMukJDxGay6-1" vertex="1">
          <mxGeometry x="508.35530489227006" y="76.51111111111112" width="66.30721368160046" height="25.218518518518522" as="geometry" />
        </mxCell>
        <mxCell id="DtA6F7GkJwA5GQcyedON-13" value="&lt;h3&gt;&lt;font style=&quot;font-size: 15px;&quot;&gt;MV 1&lt;/font&gt;&lt;/h3&gt;" style="text;strokeColor=none;align=center;fillColor=none;html=1;verticalAlign=middle;whiteSpace=wrap;rounded=0;fontStyle=1;fontColor=#0066CC;spacing=3;" parent="Qdo3hB_uDaMukJDxGay6-1" vertex="1">
          <mxGeometry x="762.5329573384054" y="259.9666666666667" width="70.69632961443277" height="25.218518518518522" as="geometry" />
        </mxCell>
        <mxCell id="DtA6F7GkJwA5GQcyedON-12" value="&lt;h3&gt;&lt;font style=&quot;font-size: 15px;&quot;&gt;SV 3&lt;/font&gt;&lt;/h3&gt;" style="text;strokeColor=none;align=center;fillColor=none;html=1;verticalAlign=middle;whiteSpace=wrap;rounded=0;fontStyle=1;fontColor=#0066CC;spacing=3;" parent="Qdo3hB_uDaMukJDxGay6-1" vertex="1">
          <mxGeometry x="566.7449990229558" y="229.41111111111113" width="70.69632961443277" height="25.218518518518522" as="geometry" />
        </mxCell>
        <mxCell id="DtA6F7GkJwA5GQcyedON-14" value="&lt;h3&gt;&lt;font style=&quot;font-size: 15px;&quot;&gt;CV 2&lt;/font&gt;&lt;/h3&gt;" style="text;strokeColor=none;align=center;fillColor=none;html=1;verticalAlign=middle;whiteSpace=wrap;rounded=0;fontStyle=1;fontColor=#0066CC;spacing=3;" parent="Qdo3hB_uDaMukJDxGay6-1" vertex="1">
          <mxGeometry x="754.0898387962816" y="126.54074074074076" width="70.69632961443277" height="25.218518518518522" as="geometry" />
        </mxCell>
        <mxCell id="DtA6F7GkJwA5GQcyedON-15" value="&lt;h3&gt;&lt;font style=&quot;font-size: 15px;&quot;&gt;PRV 1&lt;/font&gt;&lt;/h3&gt;" style="text;strokeColor=none;align=center;fillColor=none;html=1;verticalAlign=middle;whiteSpace=wrap;rounded=0;fontStyle=1;fontColor=#0066CC;spacing=3;" parent="Qdo3hB_uDaMukJDxGay6-1" vertex="1">
          <mxGeometry x="606.8104660071666" y="343.87222222222226" width="70.69632961443277" height="25.218518518518522" as="geometry" />
        </mxCell>
        <mxCell id="DtA6F7GkJwA5GQcyedON-16" value="&lt;h3&gt;&lt;font style=&quot;font-size: 15px;&quot;&gt;PRV 2&lt;/font&gt;&lt;/h3&gt;" style="text;strokeColor=none;align=center;fillColor=none;html=1;verticalAlign=middle;whiteSpace=wrap;rounded=0;fontStyle=1;fontColor=#0066CC;spacing=3;" parent="Qdo3hB_uDaMukJDxGay6-1" vertex="1">
          <mxGeometry x="833.2274983252717" y="343.87222222222226" width="70.69632961443277" height="25.218518518518522" as="geometry" />
        </mxCell>
        <mxCell id="DtA6F7GkJwA5GQcyedON-17" value="&lt;h3&gt;&lt;font style=&quot;font-size: 15px;&quot;&gt;MV 2&lt;/font&gt;&lt;/h3&gt;" style="text;strokeColor=none;align=center;fillColor=none;html=1;verticalAlign=middle;whiteSpace=wrap;rounded=0;fontStyle=1;fontColor=#0066CC;spacing=3;" parent="Qdo3hB_uDaMukJDxGay6-1" vertex="1">
          <mxGeometry x="503.9679775870042" y="590.7407407407408" width="70.69632961443277" height="25.218518518518522" as="geometry" />
        </mxCell>
        <mxCell id="DtA6F7GkJwA5GQcyedON-18" value="&lt;h3&gt;&lt;font style=&quot;font-size: 15px;&quot;&gt;MV 3&lt;/font&gt;&lt;/h3&gt;" style="text;strokeColor=none;align=center;fillColor=none;html=1;verticalAlign=middle;whiteSpace=wrap;rounded=0;fontStyle=1;fontColor=#0066CC;spacing=3;" parent="Qdo3hB_uDaMukJDxGay6-1" vertex="1">
          <mxGeometry x="650.4074590028188" y="662.0370370370371" width="70.69632961443277" height="25.218518518518522" as="geometry" />
        </mxCell>
        <mxCell id="DtA6F7GkJwA5GQcyedON-19" value="&lt;h3&gt;&lt;font style=&quot;font-size: 15px;&quot;&gt;FCV 1&lt;/font&gt;&lt;/h3&gt;" style="text;strokeColor=none;align=center;fillColor=none;html=1;verticalAlign=middle;whiteSpace=wrap;rounded=0;fontStyle=1;fontColor=#0066CC;spacing=3;" parent="Qdo3hB_uDaMukJDxGay6-1" vertex="1">
          <mxGeometry x="525.3852076061612" y="799.7305555555557" width="70.69632961443277" height="25.218518518518522" as="geometry" />
        </mxCell>
        <mxCell id="DtA6F7GkJwA5GQcyedON-20" value="&lt;h3&gt;&lt;font style=&quot;font-size: 15px;&quot;&gt;FCV 2&lt;/font&gt;&lt;/h3&gt;" style="text;strokeColor=none;align=center;fillColor=none;html=1;verticalAlign=middle;whiteSpace=wrap;rounded=0;fontStyle=1;fontColor=#0066CC;spacing=3;" parent="Qdo3hB_uDaMukJDxGay6-1" vertex="1">
          <mxGeometry x="895.4899719722944" y="799.7305555555557" width="70.69632961443277" height="25.218518518518522" as="geometry" />
        </mxCell>
        <mxCell id="DtA6F7GkJwA5GQcyedON-22" value="&lt;h3&gt;&lt;font style=&quot;font-size: 15px;&quot;&gt;Flow Sensor 1&lt;/font&gt;&lt;/h3&gt;" style="text;strokeColor=none;align=center;fillColor=none;html=1;verticalAlign=middle;whiteSpace=wrap;rounded=0;fontStyle=1;fontColor=#0066CC;spacing=3;" parent="Qdo3hB_uDaMukJDxGay6-1" vertex="1">
          <mxGeometry x="523.1197111387065" y="906.4814814814815" width="121.56322508293417" height="25.218518518518522" as="geometry" />
        </mxCell>
        <mxCell id="DtA6F7GkJwA5GQcyedON-23" value="&lt;h3&gt;&lt;font style=&quot;font-size: 15px;&quot;&gt;Flow Sensor 2&lt;/font&gt;&lt;/h3&gt;" style="text;strokeColor=none;align=center;fillColor=none;html=1;verticalAlign=middle;whiteSpace=wrap;rounded=0;fontStyle=1;fontColor=#0066CC;spacing=3;" parent="Qdo3hB_uDaMukJDxGay6-1" vertex="1">
          <mxGeometry x="1008.5769249062638" y="977.7777777777778" width="121.56322508293417" height="25.218518518518522" as="geometry" />
        </mxCell>
        <mxCell id="DtA6F7GkJwA5GQcyedON-25" value="&lt;h3&gt;&lt;font style=&quot;font-size: 15px;&quot;&gt;CV 3&lt;/font&gt;&lt;/h3&gt;" style="text;strokeColor=none;align=center;fillColor=none;html=1;verticalAlign=middle;whiteSpace=wrap;rounded=0;fontStyle=1;fontColor=#0066CC;spacing=3;" parent="Qdo3hB_uDaMukJDxGay6-1" vertex="1">
          <mxGeometry x="508.35530489227006" y="1201.851851851852" width="70.69632961443277" height="25.218518518518522" as="geometry" />
        </mxCell>
        <mxCell id="DtA6F7GkJwA5GQcyedON-24" value="&lt;h3&gt;&lt;font style=&quot;font-size: 15px;&quot;&gt;SV 5&lt;/font&gt;&lt;/h3&gt;" style="text;strokeColor=none;align=center;fillColor=none;html=1;verticalAlign=middle;whiteSpace=wrap;rounded=0;fontStyle=1;fontColor=#0066CC;spacing=3;" parent="Qdo3hB_uDaMukJDxGay6-1" vertex="1">
          <mxGeometry x="508.3553048922701" y="1084.9666666666667" width="70.69632961443277" height="25.218518518518522" as="geometry" />
        </mxCell>
        <mxCell id="DtA6F7GkJwA5GQcyedON-26" value="&lt;h3&gt;&lt;font style=&quot;font-size: 15px;&quot;&gt;CV 4&lt;/font&gt;&lt;/h3&gt;" style="text;strokeColor=none;align=center;fillColor=none;html=1;verticalAlign=middle;whiteSpace=wrap;rounded=0;fontStyle=1;fontColor=#0066CC;spacing=3;" parent="Qdo3hB_uDaMukJDxGay6-1" vertex="1">
          <mxGeometry x="410.57012192137927" y="1334.7844444444445" width="70.69632961443277" height="25.218518518518522" as="geometry" />
        </mxCell>
        <mxCell id="DtA6F7GkJwA5GQcyedON-29" value="&lt;br&gt;&lt;div&gt;&lt;br&gt;&lt;/div&gt;" style="verticalLabelPosition=top;aspect=fixed;html=1;verticalAlign=bottom;fillColor=strokeColor;align=right;outlineConnect=0;shape=mxgraph.fluid_power.x11770;points=[[0,0.5,0]];direction=north;labelPosition=left;" parent="Qdo3hB_uDaMukJDxGay6-1" vertex="1">
          <mxGeometry x="721.0985703062188" y="1227.0692592592593" width="27.96" height="46.82" as="geometry" />
        </mxCell>
        <mxCell id="DtA6F7GkJwA5GQcyedON-39" style="edgeStyle=orthogonalEdgeStyle;rounded=1;orthogonalLoop=1;jettySize=auto;html=1;endArrow=none;startFill=0;curved=0;strokeWidth=5;fillColor=#e3c800;strokeColor=light-dark(#B09500, #f0cd05);" parent="Qdo3hB_uDaMukJDxGay6-1" edge="1">
          <mxGeometry relative="1" as="geometry">
            <mxPoint x="735.2765006799196" y="1460" as="sourcePoint" />
            <mxPoint x="735.2765006799196" y="1270" as="targetPoint" />
          </mxGeometry>
        </mxCell>
        <mxCell id="DtA6F7GkJwA5GQcyedON-38" style="edgeStyle=orthogonalEdgeStyle;rounded=1;orthogonalLoop=1;jettySize=auto;html=1;exitX=0;exitY=0.5;exitDx=0;exitDy=0;endArrow=none;startFill=0;curved=0;strokeWidth=5;fillColor=#e3c800;strokeColor=light-dark(#B09500, #f0cd05);exitPerimeter=0;entryX=1;entryY=0.5;entryDx=0;entryDy=0;" parent="Qdo3hB_uDaMukJDxGay6-1" source="DtA6F7GkJwA5GQcyedON-29" target="Qdo3hB_uDaMukJDxGay6-46" edge="1">
          <mxGeometry relative="1" as="geometry">
            <mxPoint x="667.4545101340414" y="1350" as="sourcePoint" />
            <mxPoint x="624.392928835071" y="1320" as="targetPoint" />
            <Array as="points">
              <mxPoint x="735" y="1317" />
            </Array>
          </mxGeometry>
        </mxCell>
        <mxCell id="DtA6F7GkJwA5GQcyedON-40" value="&lt;h3&gt;&lt;font style=&quot;font-size: 15px;&quot;&gt;Pressure Sensor 1&lt;/font&gt;&lt;/h3&gt;" style="text;strokeColor=none;align=center;fillColor=none;html=1;verticalAlign=middle;whiteSpace=wrap;rounded=0;fontStyle=1;fontColor=#0066CC;spacing=3;" parent="Qdo3hB_uDaMukJDxGay6-1" vertex="1">
          <mxGeometry x="728.6557825552031" y="1227.07" width="121.56322508293417" height="25.218518518518522" as="geometry" />
        </mxCell>
        <mxCell id="DtA6F7GkJwA5GQcyedON-41" value="&lt;h3&gt;&lt;font style=&quot;font-size: 15px;&quot;&gt;Pressure Sensor 2&lt;/font&gt;&lt;/h3&gt;" style="text;strokeColor=none;align=center;fillColor=none;html=1;verticalAlign=middle;whiteSpace=wrap;rounded=0;fontStyle=1;fontColor=#0066CC;spacing=3;" parent="Qdo3hB_uDaMukJDxGay6-1" vertex="1">
          <mxGeometry x="1038.3008482807745" y="1294.89" width="121.56322508293417" height="25.218518518518522" as="geometry" />
        </mxCell>
        <mxCell id="DtA6F7GkJwA5GQcyedON-47" value="&lt;h3&gt;&lt;font style=&quot;font-size: 15px;&quot;&gt;CV 5&lt;/font&gt;&lt;/h3&gt;" style="text;strokeColor=none;align=center;fillColor=none;html=1;verticalAlign=middle;whiteSpace=wrap;rounded=0;fontStyle=1;fontColor=#0066CC;spacing=3;" parent="Qdo3hB_uDaMukJDxGay6-1" vertex="1">
          <mxGeometry x="991.363724664897" y="1105.21" width="70.69632961443277" height="25.218518518518522" as="geometry" />
        </mxCell>
        <mxCell id="DtA6F7GkJwA5GQcyedON-53" value="" style="verticalLabelPosition=bottom;align=center;html=1;verticalAlign=top;pointerEvents=1;shape=mxgraph.pid2valves.valve;valveType=gate;actuator=solenoid;rotation=90;" parent="Qdo3hB_uDaMukJDxGay6-1" vertex="1">
          <mxGeometry x="215.30821090439912" y="641.6697172332852" width="35.348164807216385" height="30.555555555555557" as="geometry" />
        </mxCell>
        <mxCell id="DtA6F7GkJwA5GQcyedON-58" value="&lt;h3&gt;&lt;font style=&quot;font-size: 15px;&quot;&gt;SV 4&lt;/font&gt;&lt;/h3&gt;" style="text;strokeColor=none;align=center;fillColor=none;html=1;verticalAlign=middle;whiteSpace=wrap;rounded=0;fontStyle=1;fontColor=#0066CC;spacing=3;" parent="Qdo3hB_uDaMukJDxGay6-1" vertex="1">
          <mxGeometry x="236.83869714433726" y="636.82" width="70.69632961443277" height="25.218518518518522" as="geometry" />
        </mxCell>
        <mxCell id="DtA6F7GkJwA5GQcyedON-66" value="&lt;h3&gt;&lt;font style=&quot;font-size: 15px;&quot;&gt;SV 6&lt;/font&gt;&lt;/h3&gt;" style="text;strokeColor=none;align=center;fillColor=none;html=1;verticalAlign=middle;whiteSpace=wrap;rounded=0;fontStyle=1;fontColor=#0066CC;spacing=3;" parent="Qdo3hB_uDaMukJDxGay6-1" vertex="1">
          <mxGeometry x="1028.09068060163" y="120.00074074074078" width="70.69632961443277" height="25.218518518518522" as="geometry" />
        </mxCell>
        <mxCell id="DtA6F7GkJwA5GQcyedON-67" value="&lt;h3&gt;&lt;font style=&quot;font-size: 15px;&quot;&gt;PCV 2&lt;/font&gt;&lt;/h3&gt;" style="text;strokeColor=none;align=center;fillColor=none;html=1;verticalAlign=middle;whiteSpace=wrap;rounded=0;fontStyle=1;fontColor=#0066CC;spacing=3;" parent="Qdo3hB_uDaMukJDxGay6-1" vertex="1">
          <mxGeometry x="1130.1358628848654" y="374.6707407407408" width="70.69632961443277" height="25.218518518518522" as="geometry" />
        </mxCell>
        <mxCell id="DtA6F7GkJwA5GQcyedON-68" value="&lt;h3&gt;&lt;font style=&quot;font-size: 15px;&quot;&gt;MV 5&lt;/font&gt;&lt;/h3&gt;" style="text;strokeColor=none;align=center;fillColor=none;html=1;verticalAlign=middle;whiteSpace=wrap;rounded=0;fontStyle=1;fontColor=#0066CC;spacing=3;" parent="Qdo3hB_uDaMukJDxGay6-1" vertex="1">
          <mxGeometry x="1140.901258209608" y="496.89074074074085" width="70.69632961443277" height="25.218518518518522" as="geometry" />
        </mxCell>
        <mxCell id="DtA6F7GkJwA5GQcyedON-70" value="" style="rounded=1;whiteSpace=wrap;html=1;direction=south;fillColor=#FFD966;strokeColor=#d6b656;" parent="Qdo3hB_uDaMukJDxGay6-1" vertex="1">
          <mxGeometry x="475.7012886097261" y="440" width="43.06158129897041" height="80" as="geometry" />
        </mxCell>
        <mxCell id="DtA6F7GkJwA5GQcyedON-71" value="" style="rounded=1;whiteSpace=wrap;html=1;direction=south;fillColor=#60a917;strokeColor=#2D7600;fontColor=#ffffff;" parent="Qdo3hB_uDaMukJDxGay6-1" vertex="1">
          <mxGeometry x="474.2048986595869" y="409.89" width="43.06158129897041" height="40.11" as="geometry" />
        </mxCell>
        <mxCell id="DtA6F7GkJwA5GQcyedON-172" value="&lt;h3&gt;&lt;font style=&quot;font-size: 15px;&quot;&gt;Ethanol&lt;/font&gt;&lt;/h3&gt;" style="text;strokeColor=none;align=center;fillColor=none;html=1;verticalAlign=middle;whiteSpace=wrap;rounded=0;fontStyle=1;fontColor=#0066CC;spacing=3;" parent="Qdo3hB_uDaMukJDxGay6-1" vertex="1">
          <mxGeometry x="493.49334320501487" y="467.39148148148155" width="121.56322508293417" height="25.218518518518522" as="geometry" />
        </mxCell>
        <mxCell id="DtA6F7GkJwA5GQcyedON-177" style="edgeStyle=orthogonalEdgeStyle;rounded=1;orthogonalLoop=1;jettySize=auto;html=1;endArrow=none;startFill=0;strokeWidth=5;fillColor=#60a917;strokeColor=light-dark(#2D7600, #63fb04);curved=0;" parent="Qdo3hB_uDaMukJDxGay6-1" edge="1">
          <mxGeometry relative="1" as="geometry">
            <mxPoint x="495.2081849381597" y="270" as="sourcePoint" />
            <mxPoint x="592.4950624878586" y="272.29" as="targetPoint" />
            <Array as="points">
              <mxPoint x="592.0967428608432" y="270" />
            </Array>
          </mxGeometry>
        </mxCell>
        <mxCell id="DtA6F7GkJwA5GQcyedON-178" style="edgeStyle=orthogonalEdgeStyle;rounded=1;orthogonalLoop=1;jettySize=auto;html=1;endArrow=none;startFill=0;strokeWidth=5;fillColor=#60a917;strokeColor=light-dark(#2D7600, #63fb04);curved=0;entryX=1;entryY=0.5;entryDx=0;entryDy=0;" parent="Qdo3hB_uDaMukJDxGay6-1" target="Qdo3hB_uDaMukJDxGay6-47" edge="1">
          <mxGeometry relative="1" as="geometry">
            <mxPoint x="493.49648708152563" y="356.2" as="sourcePoint" />
            <mxPoint x="557.012319497507" y="356.2" as="targetPoint" />
            <Array as="points" />
          </mxGeometry>
        </mxCell>
        <mxCell id="DtA6F7GkJwA5GQcyedON-180" style="edgeStyle=orthogonalEdgeStyle;rounded=1;orthogonalLoop=1;jettySize=auto;html=1;endArrow=none;startFill=0;strokeWidth=5;fillColor=#60a917;strokeColor=light-dark(#2D7600, #63fb04);curved=0;" parent="Qdo3hB_uDaMukJDxGay6-1" edge="1">
          <mxGeometry relative="1" as="geometry">
            <mxPoint x="222.10087094476458" y="16.819999999999993" as="sourcePoint" />
            <mxPoint x="222.10087094476458" y="636.82" as="targetPoint" />
            <Array as="points">
              <mxPoint x="222.10087094476458" y="336.82" />
            </Array>
          </mxGeometry>
        </mxCell>
        <mxCell id="DtA6F7GkJwA5GQcyedON-181" style="edgeStyle=orthogonalEdgeStyle;rounded=1;orthogonalLoop=1;jettySize=auto;html=1;endArrow=none;startFill=0;strokeWidth=5;fillColor=#60a917;strokeColor=light-dark(#2D7600, #63fb04);curved=0;" parent="Qdo3hB_uDaMukJDxGay6-1" edge="1">
          <mxGeometry relative="1" as="geometry">
            <mxPoint x="226.07330181959463" y="170" as="sourcePoint" />
            <mxPoint x="329.91630512206183" y="169.26999999999998" as="targetPoint" />
            <Array as="points" />
          </mxGeometry>
        </mxCell>
        <mxCell id="hanNXz3H3WAPIJJRrDtn-3" value="&lt;font style=&quot;font-size: 16px;&quot;&gt;&lt;i&gt;Ball Valve&amp;nbsp;&lt;br&gt;Stainless Steel&amp;nbsp;&lt;/i&gt;&lt;/font&gt;" style="text;strokeColor=none;align=center;fillColor=none;html=1;verticalAlign=middle;whiteSpace=wrap;rounded=0;spacing=4;fontStyle=1" parent="Qdo3hB_uDaMukJDxGay6-1" vertex="1">
          <mxGeometry x="1190.0498607783463" y="473.86" width="139.95013922165384" height="80" as="geometry" />
        </mxCell>
        <mxCell id="hanNXz3H3WAPIJJRrDtn-4" value="&lt;div&gt;&lt;span style=&quot;font-size: 16px;&quot;&gt;&lt;i&gt;- Material: Stainless Steel 316 / 304&lt;/i&gt;&lt;/span&gt;&lt;/div&gt;&lt;div&gt;&lt;span style=&quot;font-size: 16px;&quot;&gt;&lt;i&gt;- Max pressure: 10 bar&lt;/i&gt;&lt;/span&gt;&lt;/div&gt;&lt;div&gt;&lt;span style=&quot;font-size: 16px;&quot;&gt;&lt;i&gt;- 220V AC&lt;/i&gt;&lt;/span&gt;&lt;/div&gt;&lt;div&gt;&lt;span style=&quot;font-size: 16px;&quot;&gt;&lt;i&gt;- Flow rate: N/A&lt;/i&gt;&lt;/span&gt;&lt;/div&gt;" style="text;strokeColor=none;align=left;fillColor=none;html=1;verticalAlign=middle;whiteSpace=wrap;rounded=0;spacing=4;fontStyle=1" parent="Qdo3hB_uDaMukJDxGay6-1" vertex="1">
          <mxGeometry x="1002.7642783137992" y="19.99999999999997" width="236.83869714433726" height="90" as="geometry" />
        </mxCell>
        <mxCell id="hanNXz3H3WAPIJJRrDtn-6" value="&lt;div&gt;&lt;span style=&quot;font-size: 16px;&quot;&gt;&lt;i&gt;5.8 - 11.8 bar&lt;/i&gt;&lt;/span&gt;&lt;/div&gt;&lt;div&gt;&lt;span style=&quot;font-size: 16px;&quot;&gt;&lt;i&gt;-&lt;font style=&quot;color: rgb(255, 51, 51);&quot;&gt; 1/2&quot; Threaded&lt;/font&gt;&lt;/i&gt;&lt;/span&gt;&lt;/div&gt;" style="text;strokeColor=none;align=left;fillColor=none;html=1;verticalAlign=middle;whiteSpace=wrap;rounded=0;spacing=4;fontStyle=1" parent="Qdo3hB_uDaMukJDxGay6-1" vertex="1">
          <mxGeometry x="614.142928835071" y="342.28" width="139.95013922165384" height="90" as="geometry" />
        </mxCell>
        <mxCell id="hanNXz3H3WAPIJJRrDtn-7" value="&lt;div&gt;&lt;span style=&quot;font-size: 16px;&quot;&gt;&lt;i&gt;5.8 - 11.8 bar&lt;/i&gt;&lt;/span&gt;&lt;/div&gt;&lt;div&gt;&lt;span style=&quot;font-size: 16px;&quot;&gt;&lt;i&gt;-&lt;font style=&quot;color: rgb(255, 51, 51);&quot;&gt; 1/2&quot; Threaded&lt;/font&gt;&lt;/i&gt;&lt;/span&gt;&lt;/div&gt;" style="text;strokeColor=none;align=left;fillColor=none;html=1;verticalAlign=middle;whiteSpace=wrap;rounded=0;spacing=4;fontStyle=1" parent="Qdo3hB_uDaMukJDxGay6-1" vertex="1">
          <mxGeometry x="833.232928835071" y="369.09" width="139.95013922165384" height="90" as="geometry" />
        </mxCell>
        <mxCell id="hanNXz3H3WAPIJJRrDtn-9" value="&lt;div style=&quot;line-height: 20%;&quot;&gt;&lt;span style=&quot;background-color: transparent; color: light-dark(rgb(0, 0, 0), rgb(255, 255, 255));&quot;&gt;Length: 300mm&lt;/span&gt;&lt;p&gt;Diameter: 4 inches&lt;/p&gt;&lt;p&gt;&lt;span style=&quot;background-color: transparent; color: light-dark(rgb(0, 0, 0), rgb(255, 255, 255));&quot;&gt;10 bar&lt;/span&gt;&lt;/p&gt;&lt;p&gt;Thickness: 6 mm&lt;/p&gt;&lt;/div&gt;" style="text;strokeColor=none;align=left;fillColor=none;html=1;verticalAlign=middle;whiteSpace=wrap;rounded=0;spacing=4;fontStyle=1" parent="Qdo3hB_uDaMukJDxGay6-1" vertex="1">
          <mxGeometry x="345.31" y="410" width="114.69" height="72.29" as="geometry" />
        </mxCell>
        <mxCell id="hanNXz3H3WAPIJJRrDtn-10" value="&lt;div&gt;&lt;span style=&quot;font-size: 16px;&quot;&gt;&lt;i&gt;6 bar&lt;/i&gt;&lt;/span&gt;&lt;/div&gt;&lt;div&gt;&lt;span style=&quot;font-size: 16px;&quot;&gt;&lt;i&gt;- Temp Range: 0-60 Celcius&lt;/i&gt;&lt;/span&gt;&lt;/div&gt;&lt;div&gt;&lt;span style=&quot;font-size: 16px;&quot;&gt;&lt;i&gt;- Flow rate range: up to 20 LPM&lt;/i&gt;&lt;/span&gt;&lt;/div&gt;&lt;div style=&quot;&quot;&gt;&lt;span style=&quot;font-size: 16px;&quot;&gt;&lt;i&gt;(0.000333 m3)&lt;/i&gt;&lt;/span&gt;&lt;/div&gt;" style="text;strokeColor=none;align=left;fillColor=none;html=1;verticalAlign=middle;whiteSpace=wrap;rounded=0;spacing=4;fontStyle=1" parent="Qdo3hB_uDaMukJDxGay6-1" vertex="1">
          <mxGeometry x="1120" y="979.44" width="250" height="90" as="geometry" />
        </mxCell>
        <mxCell id="hanNXz3H3WAPIJJRrDtn-12" style="edgeStyle=orthogonalEdgeStyle;rounded=0;orthogonalLoop=1;jettySize=auto;html=1;entryX=0.811;entryY=0.933;entryDx=0;entryDy=0;entryPerimeter=0;" parent="Qdo3hB_uDaMukJDxGay6-1" source="hanNXz3H3WAPIJJRrDtn-11" target="DtA6F7GkJwA5GQcyedON-40" edge="1">
          <mxGeometry relative="1" as="geometry">
            <mxPoint x="973.18" y="1390.0902564102564" as="sourcePoint" />
            <mxPoint x="795.3090076381374" y="1252.9685185185183" as="targetPoint" />
            <Array as="points">
              <mxPoint x="880" y="1389" />
              <mxPoint x="880" y="1251" />
            </Array>
          </mxGeometry>
        </mxCell>
        <mxCell id="hanNXz3H3WAPIJJRrDtn-11" value="&lt;p&gt;Range: 0-200 bar&lt;br&gt;Power Supply: 10-32 VDC&lt;br&gt;Output Signal: 4-20 mA&lt;br&gt;Burst Pressure: Up to 5x Rated Pressure&lt;br&gt;Housing: 304 Stainless Steel&lt;br&gt;Connection type:&lt;font style=&quot;color: rgb(255, 51, 51);&quot;&gt; G 1/4&quot; male&lt;/font&gt;&lt;br&gt;Weight: 60g&lt;/p&gt;" style="text;strokeColor=none;align=left;fillColor=none;html=1;verticalAlign=middle;whiteSpace=wrap;rounded=0;spacing=4;fontStyle=1" parent="Qdo3hB_uDaMukJDxGay6-1" vertex="1">
          <mxGeometry x="1028.09" y="1344.44" width="250" height="90" as="geometry" />
        </mxCell>
        <mxCell id="hanNXz3H3WAPIJJRrDtn-13" value="&lt;div style=&quot;line-height: 20%;&quot;&gt;&lt;p&gt;&lt;i&gt;- Flow Range: 2-55 LPM&lt;/i&gt;&lt;/p&gt;&lt;p&gt;&lt;i&gt;- Nominal pressure: 8 bar&lt;/i&gt;&lt;/p&gt;&lt;p&gt;&lt;i&gt;- Max Pressure: 12 bar&lt;/i&gt;&lt;/p&gt;&lt;p&gt;&lt;i&gt;- Temp range: -25 to 70 Celcius&lt;/i&gt;&lt;/p&gt;&lt;/div&gt;" style="text;strokeColor=none;align=left;fillColor=none;html=1;verticalAlign=middle;whiteSpace=wrap;rounded=0;spacing=4;fontStyle=1" parent="Qdo3hB_uDaMukJDxGay6-1" vertex="1">
          <mxGeometry x="518.3199999999999" y="916.67" width="250" height="90" as="geometry" />
        </mxCell>
        <mxCell id="hanNXz3H3WAPIJJRrDtn-1" value="&lt;div&gt;&lt;span style=&quot;font-size: 16px;&quot;&gt;&lt;i&gt;- Outlet Pressure:&lt;font style=&quot;color: rgb(255, 51, 51);&quot;&gt; 6 bar &lt;/font&gt;max&lt;/i&gt;&lt;/span&gt;&lt;/div&gt;&lt;div&gt;&lt;span style=&quot;font-size: 16px;&quot;&gt;&lt;i&gt;- Inlet Pressure: 230 bar&amp;nbsp;&lt;/i&gt;&lt;/span&gt;&lt;/div&gt;&lt;div&gt;&lt;span style=&quot;font-size: 16px;&quot;&gt;&lt;i&gt;- Max volumetric flow rate: 15m³/h (250 LPM&lt;/i&gt;&lt;/span&gt;&lt;/div&gt;" style="text;strokeColor=none;align=center;fillColor=none;html=1;verticalAlign=middle;whiteSpace=wrap;rounded=0;spacing=4;fontStyle=1" parent="Qdo3hB_uDaMukJDxGay6-1" vertex="1">
          <mxGeometry x="1190.05" y="350" width="220" height="90" as="geometry" />
        </mxCell>
        <mxCell id="hanNXz3H3WAPIJJRrDtn-15" value="&lt;div&gt;&lt;span style=&quot;font-size: 16px;&quot;&gt;&lt;i&gt;&lt;font style=&quot;&quot;&gt;10 Bar&lt;/font&gt;&lt;/i&gt;&lt;/span&gt;&lt;/div&gt;" style="text;strokeColor=none;align=left;fillColor=none;html=1;verticalAlign=middle;whiteSpace=wrap;rounded=0;spacing=4;fontStyle=1;fontColor=#FF3333;" parent="Qdo3hB_uDaMukJDxGay6-1" vertex="1">
          <mxGeometry x="532.58" y="101.73" width="61.3" height="30" as="geometry" />
        </mxCell>
        <mxCell id="hanNXz3H3WAPIJJRrDtn-16" value="&lt;div&gt;&lt;span style=&quot;font-size: 16px;&quot;&gt;&lt;i&gt;&lt;font style=&quot;&quot;&gt;10 Bar&lt;/font&gt;&lt;/i&gt;&lt;/span&gt;&lt;/div&gt;" style="text;strokeColor=none;align=left;fillColor=none;html=1;verticalAlign=middle;whiteSpace=wrap;rounded=0;spacing=4;fontStyle=1;fontColor=#FF3333;" parent="Qdo3hB_uDaMukJDxGay6-1" vertex="1">
          <mxGeometry x="758.7900000000001" y="101.73" width="61.3" height="30" as="geometry" />
        </mxCell>
        <mxCell id="hanNXz3H3WAPIJJRrDtn-17" value="&lt;div&gt;&lt;span style=&quot;font-size: 16px;&quot;&gt;&lt;i&gt;&lt;font style=&quot;&quot;&gt;10 Bar&lt;/font&gt;&lt;/i&gt;&lt;/span&gt;&lt;/div&gt;" style="text;strokeColor=none;align=left;fillColor=none;html=1;verticalAlign=middle;whiteSpace=wrap;rounded=0;spacing=4;fontStyle=1;fontColor=#FF3333;" parent="Qdo3hB_uDaMukJDxGay6-1" vertex="1">
          <mxGeometry x="523.1200000000001" y="1222.29" width="61.3" height="30" as="geometry" />
        </mxCell>
        <mxCell id="hanNXz3H3WAPIJJRrDtn-18" value="&lt;div&gt;&lt;span style=&quot;font-size: 16px;&quot;&gt;&lt;i&gt;&lt;font style=&quot;&quot;&gt;10 Bar&lt;/font&gt;&lt;/i&gt;&lt;/span&gt;&lt;/div&gt;" style="text;strokeColor=none;align=left;fillColor=none;html=1;verticalAlign=middle;whiteSpace=wrap;rounded=0;spacing=4;fontStyle=1;fontColor=#FF3333;" parent="Qdo3hB_uDaMukJDxGay6-1" vertex="1">
          <mxGeometry x="415.2700000000001" y="1350" width="61.3" height="30" as="geometry" />
        </mxCell>
        <mxCell id="hanNXz3H3WAPIJJRrDtn-19" value="&lt;div&gt;&lt;span style=&quot;font-size: 16px;&quot;&gt;&lt;i&gt;&lt;font style=&quot;&quot;&gt;10 Bar&lt;/font&gt;&lt;/i&gt;&lt;/span&gt;&lt;/div&gt;" style="text;strokeColor=none;align=left;fillColor=none;html=1;verticalAlign=middle;whiteSpace=wrap;rounded=0;spacing=4;fontStyle=1;fontColor=#FF3333;" parent="Qdo3hB_uDaMukJDxGay6-1" vertex="1">
          <mxGeometry x="1002.7600000000001" y="1130" width="61.3" height="30" as="geometry" />
        </mxCell>
        <mxCell id="hanNXz3H3WAPIJJRrDtn-20" value="&lt;div style=&quot;line-height: 90%;&quot;&gt;&lt;p style=&quot;line-height: 110%;&quot;&gt;&lt;i&gt;&lt;font style=&quot;font-size: 13px; line-height: 110%;&quot;&gt;Max Pressure-10 bar Seal Material: Viton&lt;/font&gt;&lt;/i&gt;&lt;/p&gt;&lt;p style=&quot;line-height: 110%;&quot;&gt;&lt;i style=&quot;background-color: transparent; color: light-dark(rgb(0, 0, 0), rgb(255, 255, 255));&quot;&gt;&lt;font style=&quot;font-size: 13px; line-height: 110%;&quot;&gt;&amp;nbsp;3/4&#39;&#39; threaded, Flow rate: 25LPM&lt;/font&gt;&lt;/i&gt;&lt;/p&gt;&lt;/div&gt;" style="text;strokeColor=none;align=left;fillColor=none;html=1;verticalAlign=middle;whiteSpace=wrap;rounded=0;spacing=4;fontStyle=1" parent="Qdo3hB_uDaMukJDxGay6-1" vertex="1">
          <mxGeometry x="567.85" y="1072.82" width="153.25" height="90" as="geometry" />
        </mxCell>
        <mxCell id="hanNXz3H3WAPIJJRrDtn-21" value="&lt;div&gt;&lt;span style=&quot;font-size: 16px;&quot;&gt;&lt;i&gt;- Material: Stainless Steel 316 / 304&lt;/i&gt;&lt;/span&gt;&lt;/div&gt;&lt;div&gt;&lt;span style=&quot;font-size: 16px;&quot;&gt;&lt;i&gt;- Max pressure: 10 bar&lt;/i&gt;&lt;/span&gt;&lt;/div&gt;&lt;div&gt;&lt;span style=&quot;font-size: 16px;&quot;&gt;&lt;i&gt;- 220V AC&lt;/i&gt;&lt;/span&gt;&lt;/div&gt;&lt;div&gt;&lt;span style=&quot;font-size: 16px;&quot;&gt;&lt;i&gt;- Flow rate: N/A&lt;/i&gt;&lt;/span&gt;&lt;/div&gt;" style="text;strokeColor=none;align=left;fillColor=none;html=1;verticalAlign=middle;whiteSpace=wrap;rounded=0;spacing=4;fontStyle=1" parent="Qdo3hB_uDaMukJDxGay6-1" vertex="1">
          <mxGeometry x="250.66" y="67.5" width="189.01" height="64.23" as="geometry" />
        </mxCell>
        <mxCell id="hanNXz3H3WAPIJJRrDtn-22" value="&lt;div&gt;&lt;span style=&quot;font-size: 16px;&quot;&gt;&lt;i&gt;- Material: Stainless Steel 316 / 304&lt;/i&gt;&lt;/span&gt;&lt;/div&gt;&lt;div&gt;&lt;span style=&quot;font-size: 16px;&quot;&gt;&lt;i&gt;- Max pressure: 10 bar&lt;/i&gt;&lt;/span&gt;&lt;/div&gt;&lt;div&gt;&lt;span style=&quot;font-size: 16px;&quot;&gt;&lt;i&gt;- 220V AC&lt;/i&gt;&lt;/span&gt;&lt;/div&gt;&lt;div&gt;&lt;span style=&quot;font-size: 16px;&quot;&gt;&lt;i&gt;- Flow rate: N/A&lt;/i&gt;&lt;/span&gt;&lt;/div&gt;" style="text;strokeColor=none;align=left;fillColor=none;html=1;verticalAlign=middle;whiteSpace=wrap;rounded=0;spacing=4;fontStyle=1" parent="Qdo3hB_uDaMukJDxGay6-1" vertex="1">
          <mxGeometry x="240" y="672.23" width="180" height="90" as="geometry" />
        </mxCell>
        <mxCell id="9OwRmg5clVheJSdMpVGJ-2" style="edgeStyle=orthogonalEdgeStyle;rounded=1;orthogonalLoop=1;jettySize=auto;html=1;entryX=1;entryY=0.5;entryDx=0;entryDy=0;endArrow=none;startFill=0;curved=0;strokeWidth=5;fillColor=#e3c800;strokeColor=light-dark(#B09500, #f0cd05);" edge="1" parent="Qdo3hB_uDaMukJDxGay6-1" target="Qdo3hB_uDaMukJDxGay6-57">
          <mxGeometry relative="1" as="geometry">
            <mxPoint x="497" y="1320" as="sourcePoint" />
            <mxPoint x="495.45" y="1252.29" as="targetPoint" />
          </mxGeometry>
        </mxCell>
        <mxCell id="DtA6F7GkJwA5GQcyedON-7" value="&lt;font style=&quot;font-size: 16px;&quot;&gt;&lt;i&gt;Ball Valve&amp;nbsp;&lt;br&gt;Stainless Steel&amp;nbsp;&lt;/i&gt;&lt;/font&gt;" style="text;strokeColor=none;align=center;fillColor=none;html=1;verticalAlign=middle;whiteSpace=wrap;rounded=0;spacing=4;fontStyle=1" parent="1" vertex="1">
          <mxGeometry x="110" y="400" width="130" height="80" as="geometry" />
        </mxCell>
        <mxCell id="DtA6F7GkJwA5GQcyedON-8" value="&lt;div&gt;&lt;span style=&quot;font-size: 16px;&quot;&gt;&lt;i&gt;&amp;nbsp;Material (Wetted parts): Stainless Steel 316 / 304&lt;/i&gt;&lt;/span&gt;&lt;/div&gt;&lt;div&gt;&lt;span style=&quot;font-size: 16px;&quot;&gt;&lt;i&gt;- Output Pressure Rating: &lt;font style=&quot;color: rgb(255, 51, 51);&quot;&gt;16 bar&lt;/font&gt;&lt;/i&gt;&lt;/span&gt;&lt;/div&gt;&lt;div&gt;&lt;br&gt;&lt;/div&gt;" style="text;strokeColor=none;align=center;fillColor=none;html=1;verticalAlign=middle;whiteSpace=wrap;rounded=0;spacing=4;fontStyle=1" parent="1" vertex="1">
          <mxGeometry x="40" y="290" width="200" height="80" as="geometry" />
        </mxCell>
      </root>
    </mxGraphModel>
  </diagram>
</mxfile>
